<svg width="21" height="20" viewBox="0 0 21 20" fill="none" xmlns="http://www.w3.org/2000/svg">
<path d="M10.8696 1.80299C13.5396 1.80299 13.8562 1.81299 14.9112 1.86132C17.6212 1.98465 18.8871 3.27049 19.0104 5.96049C19.0587 7.01465 19.0679 7.33132 19.0679 10.0013C19.0679 12.6722 19.0579 12.988 19.0104 14.0422C18.8862 16.7297 17.6237 18.018 14.9112 18.1413C13.8562 18.1897 13.5412 18.1997 10.8696 18.1997C8.19957 18.1997 7.8829 18.1897 6.82873 18.1413C4.11207 18.0172 2.8529 16.7255 2.72957 14.0413C2.68123 12.9872 2.67123 12.6713 2.67123 10.0005C2.67123 7.33049 2.68207 7.01465 2.72957 5.95965C2.85373 3.27049 4.11623 1.98382 6.82873 1.86049C7.88373 1.81299 8.19957 1.80299 10.8696 1.80299ZM10.8696 0.000488281C8.15373 0.000488281 7.81373 0.0121549 6.74707 0.0604883C3.1154 0.227155 1.09707 2.24215 0.930401 5.87715C0.881235 6.94465 0.869568 7.28465 0.869568 10.0005C0.869568 12.7163 0.881235 13.0572 0.929568 14.1238C1.09623 17.7555 3.11123 19.7738 6.74623 19.9405C7.81373 19.9888 8.15373 20.0005 10.8696 20.0005C13.5854 20.0005 13.9262 19.9888 14.9929 19.9405C18.6212 19.7738 20.6446 17.7588 20.8087 14.1238C20.8579 13.0572 20.8696 12.7163 20.8696 10.0005C20.8696 7.28465 20.8579 6.94465 20.8096 5.87799C20.6462 2.24965 18.6287 0.227988 14.9937 0.0613216C13.9262 0.0121549 13.5854 0.000488281 10.8696 0.000488281V0.000488281ZM10.8696 4.86549C8.03373 4.86549 5.73457 7.16465 5.73457 10.0005C5.73457 12.8363 8.03373 15.1363 10.8696 15.1363C13.7054 15.1363 16.0046 12.8372 16.0046 10.0005C16.0046 7.16465 13.7054 4.86549 10.8696 4.86549ZM10.8696 13.3338C9.02873 13.3338 7.53623 11.8422 7.53623 10.0005C7.53623 8.15965 9.02873 6.66715 10.8696 6.66715C12.7104 6.66715 14.2029 8.15965 14.2029 10.0005C14.2029 11.8422 12.7104 13.3338 10.8696 13.3338ZM16.2079 3.46299C15.5446 3.46299 15.0071 4.00049 15.0071 4.66299C15.0071 5.32549 15.5446 5.86299 16.2079 5.86299C16.8704 5.86299 17.4071 5.32549 17.4071 4.66299C17.4071 4.00049 16.8704 3.46299 16.2079 3.46299Z" fill="white"/>
</svg>
