<svg width="60" height="67" viewBox="0 0 60 67" fill="none" xmlns="http://www.w3.org/2000/svg">
<path d="M29.8802 0.011795C29.8631 0.0179596 29.8567 0.0405579 29.8652 0.0693207C29.8802 0.126842 29.7949 0.194641 29.6074 0.276817C29.5371 0.307632 29.4412 0.363102 29.3943 0.398029C29.3453 0.435009 29.243 0.494587 29.1621 0.52951C29.0832 0.562382 28.9831 0.617851 28.9405 0.650723C28.8979 0.683594 28.7956 0.741119 28.7167 0.773991C28.6358 0.808914 28.5399 0.862331 28.5037 0.893147C28.4674 0.923962 28.3694 0.977379 28.2863 1.01436C28.2053 1.04928 28.1073 1.10475 28.0711 1.13351C28.0349 1.16433 27.9432 1.21569 27.8708 1.24856C27.7962 1.28349 27.7003 1.33896 27.6577 1.37183C27.613 1.40675 27.5128 1.45811 27.4361 1.48893C27.3594 1.51769 27.2593 1.57111 27.2166 1.60398C27.1719 1.6389 27.0675 1.69643 26.9865 1.73341C26.9034 1.77039 26.8054 1.82381 26.7692 1.85462C26.7329 1.88338 26.6328 1.93885 26.5454 1.97789C26.4602 2.01487 26.3579 2.07034 26.3217 2.10115C26.2855 2.13197 26.1896 2.18539 26.1086 2.22031C26.0298 2.25318 25.9296 2.30865 25.887 2.34152C25.8444 2.37439 25.7442 2.42781 25.6654 2.46273C25.5866 2.49561 25.4843 2.55518 25.4395 2.59422C25.3927 2.6312 25.301 2.68256 25.2328 2.70721C25.1668 2.73186 25.0773 2.77912 25.0347 2.80993C24.9942 2.8428 24.8834 2.90649 24.7896 2.95169C24.6959 2.99689 24.6042 3.0503 24.5872 3.07085C24.5702 3.08934 24.4807 3.1407 24.3869 3.18179C24.2931 3.22287 24.1866 3.28245 24.1483 3.31327C24.112 3.34409 24.0161 3.3975 23.9352 3.43243C23.8563 3.46735 23.7626 3.51871 23.7263 3.54747C23.6923 3.57624 23.5921 3.62965 23.5047 3.66869C23.4174 3.70772 23.3108 3.76524 23.2704 3.79606C23.2277 3.82893 23.1212 3.88851 23.0338 3.9296C22.9465 3.97274 22.8548 4.0241 22.8314 4.04465C22.808 4.06725 22.7249 4.11039 22.6503 4.14531C22.5736 4.17818 22.4734 4.23571 22.4265 4.27063C22.3797 4.30761 22.2731 4.3672 22.1922 4.40417C22.1091 4.44115 22.0132 4.49457 21.9769 4.52538C21.9386 4.55415 21.8491 4.60551 21.7745 4.63633C21.6999 4.66919 21.6104 4.7185 21.5742 4.74726C21.5401 4.77602 21.4293 4.83766 21.3292 4.88491C21.229 4.93216 21.1289 4.98969 21.1054 5.01023C21.082 5.03078 20.9968 5.07803 20.9137 5.11706C20.8327 5.1561 20.7219 5.21978 20.6686 5.25882C20.6153 5.29785 20.5237 5.34716 20.4662 5.3677C20.4065 5.3903 20.3149 5.43755 20.2574 5.47659C20.202 5.51562 20.0976 5.5752 20.023 5.61013C19.9505 5.64505 19.8483 5.70258 19.795 5.73956C19.7417 5.77448 19.6416 5.82995 19.5712 5.86077C19.5009 5.89158 19.4072 5.94294 19.3646 5.97787C19.3198 6.01074 19.2239 6.06416 19.1515 6.09703C19.0769 6.12784 18.9874 6.1792 18.949 6.21002C18.9128 6.23878 18.8169 6.2922 18.736 6.32918C18.6571 6.3641 18.557 6.41957 18.5165 6.45039C18.476 6.48326 18.3695 6.54284 18.2821 6.58393C18.1947 6.62296 18.0946 6.68048 18.0584 6.70925C18.0243 6.73801 17.9326 6.78937 17.8581 6.82224C17.7835 6.85306 17.694 6.90442 17.6556 6.93523C17.6194 6.964 17.5193 7.01947 17.4319 7.0585C17.3445 7.09753 17.238 7.15506 17.1932 7.18998C17.1485 7.22285 17.0569 7.27422 16.9887 7.30298C16.9205 7.33174 16.8204 7.38721 16.7671 7.42624C16.7117 7.46528 16.6115 7.52075 16.5433 7.54951C16.473 7.57827 16.3686 7.63785 16.309 7.68305C16.2493 7.72619 16.1939 7.76317 16.1854 7.76317C16.1491 7.76317 15.9552 7.86795 15.8764 7.92752C15.8338 7.96245 15.7443 8.0097 15.6804 8.0323C15.6164 8.0549 15.5184 8.11037 15.4588 8.15351C15.4012 8.19666 15.2968 8.25624 15.2286 8.285C15.1604 8.31376 15.0731 8.36307 15.0369 8.39183C14.9985 8.42265 14.9069 8.47401 14.8302 8.50688C14.7535 8.53975 14.6427 8.60344 14.583 8.64658C14.5233 8.69178 14.4338 8.74108 14.3848 8.75957C14.3337 8.77601 14.2463 8.82326 14.1909 8.86229C14.1355 8.90133 14.0332 8.95885 13.9651 8.98761C13.8947 9.01843 13.7925 9.07595 13.7328 9.11704C13.6753 9.16019 13.573 9.21566 13.5091 9.24236C13.4451 9.26907 13.3492 9.32043 13.296 9.35741C13.2427 9.39234 13.1383 9.45192 13.0616 9.4889C12.987 9.52588 12.8805 9.58751 12.8293 9.62449C12.7782 9.66352 12.7015 9.70461 12.6589 9.71694C12.6162 9.72926 12.5289 9.77446 12.465 9.81966C12.401 9.8628 12.2774 9.93265 12.1901 9.97169C12.1027 10.0128 11.9962 10.0724 11.9557 10.1032C11.9131 10.134 11.8172 10.1853 11.7426 10.2162C11.668 10.247 11.5721 10.2983 11.5295 10.3292C11.4869 10.362 11.391 10.4154 11.3143 10.4483C11.2376 10.4832 11.1375 10.5408 11.0906 10.5777C11.0437 10.6127 10.9435 10.6702 10.8668 10.7031C10.7901 10.738 10.6921 10.7914 10.6474 10.8263C10.6047 10.8613 10.5131 10.9126 10.4449 10.9414C10.3789 10.9701 10.2894 11.0194 10.2489 11.0503C10.2084 11.0811 10.0976 11.1448 10.0017 11.19C9.90797 11.2352 9.81847 11.2886 9.80142 11.3071C9.78438 11.3256 9.69062 11.3769 9.5926 11.4221C9.49459 11.4653 9.38378 11.5248 9.34756 11.5557C9.31134 11.5865 9.21332 11.6399 9.13022 11.6769C9.04924 11.7118 8.95123 11.7673 8.915 11.796C8.87665 11.8268 8.78289 11.8803 8.70192 11.9152C8.62095 11.9501 8.52293 12.0015 8.48458 12.0282C8.44835 12.0569 8.35247 12.1083 8.27149 12.1432C8.19265 12.1802 8.09037 12.2377 8.0435 12.2747C7.99662 12.3117 7.90286 12.361 7.83681 12.3856C7.76862 12.4103 7.6706 12.4658 7.6152 12.5089C7.5598 12.5541 7.45965 12.6096 7.39573 12.6342C7.32967 12.6589 7.22952 12.7144 7.16986 12.7575C7.11233 12.7986 7.00792 12.8582 6.93973 12.8869C6.87154 12.9157 6.77992 12.9671 6.7373 12.9999C6.69469 13.0328 6.59241 13.0883 6.50931 13.1232C6.42833 13.1602 6.33671 13.2115 6.30688 13.2382C6.27705 13.2649 6.18116 13.3184 6.09379 13.3574C6.00643 13.3964 5.8935 13.4601 5.84449 13.5012C5.79335 13.5402 5.70385 13.5895 5.64632 13.608C5.58666 13.6265 5.49503 13.6738 5.44389 13.7128C5.39062 13.7498 5.28408 13.8135 5.20311 13.8525C5.12214 13.8915 5.02838 13.947 4.99429 13.9737C4.9602 14.0004 4.8707 14.0497 4.79399 14.0806C4.71728 14.1134 4.6214 14.1668 4.58091 14.1997C4.54043 14.2346 4.44028 14.2922 4.35504 14.3291C4.26981 14.3661 4.15901 14.4278 4.10574 14.4668C4.05034 14.5058 3.95445 14.5613 3.89052 14.5901C3.82447 14.6188 3.73497 14.6702 3.69236 14.7051C3.64761 14.738 3.55812 14.7893 3.48993 14.8181C3.42387 14.8469 3.33864 14.8962 3.29816 14.9311C3.25767 14.964 3.17031 15.0153 3.09999 15.0461C3.02967 15.0749 2.92526 15.1345 2.8656 15.1756C2.80807 15.2187 2.70366 15.2762 2.63547 15.3009C2.56941 15.3276 2.47779 15.3769 2.43304 15.4118C2.39043 15.4447 2.29454 15.5002 2.22209 15.531C2.14964 15.5639 2.05589 15.6173 2.0154 15.6522C1.97492 15.6871 1.88116 15.7405 1.80658 15.7734C1.73413 15.8063 1.62972 15.8638 1.57858 15.8987C1.52744 15.9357 1.42516 15.9912 1.35058 16.024C1.27387 16.0549 1.1716 16.1144 1.11832 16.1514C1.06505 16.1905 0.967037 16.2439 0.900981 16.2685C0.832795 16.2952 0.74117 16.3425 0.698553 16.3754C0.615451 16.437 0.423677 16.5356 0.387453 16.5356C0.376799 16.5356 0.306482 16.5787 0.234034 16.6301C0.153063 16.6876 0.089138 16.7184 0.0678297 16.7102C0.0507832 16.7041 0.0273441 16.7102 0.01669 16.7246C-0.00248739 16.7534 -0.00674904 49.9448 0.0124284 50.0146C0.0209516 50.0475 0.0358674 50.0557 0.0742222 50.0475C0.112577 50.0414 0.155193 50.064 0.238295 50.1297C0.300089 50.1811 0.4045 50.2427 0.468424 50.2673C0.532349 50.2941 0.634628 50.3495 0.692161 50.3927C0.751824 50.4338 0.851972 50.4892 0.920159 50.5139C0.986214 50.5406 1.07784 50.5899 1.12259 50.6269C1.21208 50.7008 1.30158 50.7501 1.38681 50.7686C1.41664 50.7768 1.50613 50.8282 1.58711 50.8857C1.66595 50.9412 1.76823 50.9987 1.81297 51.0131C1.85985 51.0254 1.93443 51.0665 1.98131 51.1056C2.02606 51.1446 2.1326 51.2021 2.2157 51.235C2.2988 51.2679 2.40747 51.3274 2.45648 51.3665C2.50549 51.4055 2.59712 51.4569 2.66104 51.4815C2.72496 51.5041 2.82511 51.5616 2.88265 51.6048C2.93805 51.65 3.04033 51.7054 3.10638 51.728C3.17031 51.7527 3.25767 51.8 3.30029 51.8349C3.34077 51.8698 3.43879 51.9273 3.5155 51.9602C3.59221 51.9931 3.6881 52.0465 3.73071 52.0794C3.77333 52.1122 3.86495 52.1636 3.93527 52.1965C4.00559 52.2273 4.10574 52.2869 4.15688 52.3279C4.20802 52.369 4.30604 52.4224 4.37209 52.4471C4.44028 52.4718 4.54043 52.5272 4.59583 52.5724C4.65123 52.6176 4.74925 52.6731 4.81317 52.6957C4.8771 52.7183 4.97511 52.7717 5.03265 52.8169C5.09018 52.86 5.1818 52.9135 5.2372 52.9319C5.29261 52.9525 5.38636 53.0018 5.44389 53.0449C5.50356 53.086 5.60371 53.1415 5.66763 53.1682C5.73155 53.1929 5.82957 53.2504 5.88497 53.2935C5.94038 53.3387 6.04265 53.3921 6.11084 53.4147C6.18116 53.4373 6.27705 53.4887 6.32392 53.5277C6.37293 53.5668 6.47308 53.6263 6.54979 53.6592C6.6265 53.6941 6.72026 53.7455 6.75861 53.7784C6.79697 53.8112 6.89072 53.8626 6.96743 53.8934C7.04414 53.9242 7.14429 53.9818 7.1933 54.0187C7.24231 54.0578 7.33606 54.1091 7.40212 54.1317C7.46604 54.1564 7.56193 54.2077 7.61094 54.2468C7.71535 54.3331 7.78354 54.368 7.87942 54.3885C7.91778 54.3947 7.99875 54.444 8.05841 54.4933C8.11808 54.5426 8.22249 54.6022 8.28641 54.6269C8.35247 54.6495 8.44409 54.7008 8.4931 54.7378C8.54211 54.7768 8.63587 54.8282 8.70405 54.8549C8.78715 54.8857 8.86173 54.935 8.92566 54.9987C9.09825 55.1754 9.22184 55.1138 9.19627 54.8652C9.1707 54.6269 9.22397 22.0189 9.24954 21.9285C9.2815 21.8155 9.31986 21.7806 9.46262 21.7313C9.53081 21.7066 9.62457 21.6553 9.67144 21.6162C9.71832 21.5792 9.8206 21.5197 9.89731 21.4847C9.97402 21.4519 10.0827 21.3923 10.1381 21.3553C10.1935 21.3183 10.2851 21.267 10.3427 21.2423C10.3981 21.2197 10.479 21.1704 10.5216 21.1355C10.5643 21.0985 10.641 21.0533 10.6942 21.0307C10.8391 20.9732 10.9137 20.9321 10.9734 20.8787C11.0032 20.852 11.0991 20.8006 11.1865 20.7616C11.276 20.7225 11.3761 20.6671 11.4123 20.6362C11.4507 20.6075 11.5423 20.5561 11.619 20.5233C11.6936 20.4904 11.798 20.4349 11.8491 20.3979C11.9003 20.363 12.0047 20.3055 12.0814 20.2726C12.1581 20.2377 12.2433 20.1884 12.2732 20.1617C12.303 20.135 12.3989 20.0816 12.4863 20.0425C12.5736 20.0035 12.6866 19.9398 12.7334 19.9008C12.7824 19.8617 12.8677 19.8124 12.9252 19.7919C12.9827 19.7713 13.0765 19.722 13.134 19.683C13.1916 19.6419 13.296 19.5844 13.3663 19.5515C13.4366 19.5186 13.524 19.4693 13.5602 19.4406C13.5964 19.4098 13.6944 19.3563 13.7797 19.3173C13.8649 19.2803 13.9693 19.2228 14.0141 19.1879C14.0588 19.155 14.1526 19.1016 14.2229 19.0728C14.2932 19.042 14.3912 18.9865 14.4402 18.9475C14.4892 18.9085 14.5851 18.853 14.6533 18.8242C14.7215 18.7955 14.8195 18.74 14.8728 18.703C14.9261 18.666 15.0177 18.6147 15.0752 18.59C15.1349 18.5633 15.2308 18.5079 15.2883 18.4647C15.348 18.4236 15.446 18.3702 15.5078 18.3476C15.5696 18.323 15.6718 18.2675 15.7315 18.2243C15.7933 18.1791 15.8913 18.1237 15.9531 18.1011C16.0149 18.0785 16.1023 18.0312 16.1491 17.9963C16.196 17.9593 16.2983 17.9018 16.3793 17.8669C16.4581 17.832 16.5519 17.7826 16.586 17.7539C16.6201 17.7272 16.7266 17.6655 16.8204 17.6203C16.9162 17.5751 17.0206 17.5135 17.0547 17.4868C17.0888 17.4601 17.1762 17.4108 17.2508 17.3779C17.3254 17.3471 17.4212 17.2916 17.466 17.2567C17.5107 17.2238 17.6045 17.1704 17.6748 17.1396C17.7451 17.1088 17.8389 17.0574 17.8815 17.0246C17.9241 16.9917 18.0243 16.9362 18.1052 16.9013C18.1841 16.8664 18.2842 16.813 18.3268 16.7801C18.3673 16.7493 18.4739 16.6917 18.5612 16.6527C18.6486 16.6137 18.7487 16.5582 18.7871 16.5274C18.8233 16.4986 18.9107 16.4493 18.9789 16.4206C19.0471 16.3918 19.1515 16.3322 19.209 16.2891C19.2687 16.2459 19.3688 16.1905 19.4327 16.1658C19.4967 16.1412 19.584 16.096 19.6266 16.0631C19.6671 16.0323 19.7737 15.9706 19.861 15.9295C19.9463 15.8864 20.0528 15.8268 20.0933 15.796C20.1338 15.7652 20.2297 15.7138 20.3042 15.683C20.3788 15.6501 20.4811 15.5906 20.5344 15.5474C20.5855 15.5063 20.6665 15.4611 20.7155 15.4447C20.7624 15.4303 20.854 15.3831 20.9158 15.3379C20.9797 15.2947 21.0863 15.2351 21.1544 15.2064C21.2205 15.1776 21.3143 15.1242 21.3611 15.0872C21.408 15.0523 21.5124 14.9927 21.5913 14.9578C21.6722 14.9208 21.7681 14.8674 21.8043 14.8366C21.8427 14.8078 21.9237 14.7606 21.9876 14.7339C22.0515 14.7072 22.1602 14.6455 22.2326 14.5962C22.3051 14.549 22.4138 14.4894 22.4756 14.4647C22.5395 14.4401 22.6268 14.3928 22.6716 14.3579C22.7163 14.323 22.8101 14.2716 22.8783 14.2408C22.9465 14.212 23.0402 14.1566 23.0892 14.1216C23.1361 14.0847 23.2363 14.0292 23.313 13.9984C23.3875 13.9676 23.4856 13.9162 23.5303 13.8833C23.5729 13.8484 23.6646 13.797 23.7327 13.7683C23.7988 13.7375 23.9117 13.6758 23.982 13.6286C24.0524 13.5813 24.1525 13.5259 24.2058 13.5074C24.2569 13.4868 24.3443 13.4396 24.3976 13.4026C24.4508 13.3656 24.5616 13.304 24.6426 13.2629C24.7257 13.2239 24.8259 13.1643 24.8685 13.1335C24.9111 13.1006 24.9942 13.0554 25.056 13.0328C25.1178 13.0102 25.2158 12.9568 25.2776 12.9116C25.3394 12.8664 25.4438 12.8089 25.5141 12.7822C25.5823 12.7554 25.6867 12.6979 25.7485 12.6548C25.8082 12.6116 25.904 12.5562 25.9594 12.5315C26.017 12.5089 26.1107 12.4555 26.1661 12.4165C26.2215 12.3774 26.3196 12.324 26.3835 12.2994C26.4453 12.2747 26.5326 12.2275 26.5753 12.1946C26.62 12.1638 26.7244 12.1042 26.8096 12.0631C26.8949 12.0241 26.9993 11.9645 27.0419 11.9316C27.0845 11.8987 27.1847 11.8453 27.2635 11.8104C27.3424 11.7755 27.4361 11.7241 27.4723 11.6954C27.5086 11.6666 27.6151 11.605 27.7089 11.5618C27.8047 11.5166 27.9006 11.4612 27.9241 11.4406C27.9475 11.4201 28.0327 11.3749 28.1116 11.3399C28.1926 11.305 28.297 11.2454 28.3417 11.2064C28.3886 11.1694 28.4802 11.1181 28.5463 11.0934C28.6123 11.0688 28.7061 11.0174 28.7551 10.9804C28.802 10.9414 28.9064 10.8818 28.9873 10.8469C29.0662 10.814 29.1685 10.7565 29.2132 10.7216C29.258 10.6866 29.3496 10.6353 29.4178 10.6065C29.4838 10.5777 29.5989 10.5141 29.6713 10.4627C29.8162 10.3641 29.9483 10.3271 30.0805 10.3518C30.1785 10.3682 30.2339 10.3949 30.3745 10.4956C30.4342 10.5367 30.5237 10.588 30.5769 10.6065C30.6302 10.6271 30.7218 10.6764 30.7794 10.7174C30.839 10.7585 30.9477 10.8202 31.0244 10.8571C31.1011 10.8921 31.1927 10.9455 31.2268 10.9743C31.2631 11.001 31.3568 11.0523 31.4357 11.0872C31.5166 11.1222 31.6104 11.1756 31.6466 11.2043C31.6828 11.2352 31.7979 11.2989 31.9002 11.3482C32.0025 11.3995 32.092 11.4488 32.1005 11.4612C32.109 11.4735 32.1836 11.5166 32.2667 11.5557C32.3519 11.5947 32.4585 11.6563 32.5032 11.6912C32.5501 11.7262 32.6524 11.7816 32.7333 11.8145C32.8143 11.8453 32.9208 11.9029 32.9699 11.9398C33.0189 11.9789 33.1275 12.0384 33.2085 12.0754C33.2916 12.1124 33.3768 12.1597 33.4003 12.1802C33.4237 12.2028 33.526 12.2583 33.624 12.3055C33.7242 12.3507 33.8243 12.4062 33.8478 12.4288C33.8733 12.4493 33.9628 12.5007 34.048 12.5397C34.1333 12.5808 34.2398 12.6404 34.2824 12.6733C34.3251 12.7061 34.4209 12.7575 34.4934 12.7842C34.5658 12.813 34.6639 12.8623 34.7086 12.8972C34.7534 12.9321 34.8556 12.9897 34.9387 13.0287C35.0197 13.0657 35.122 13.1232 35.1646 13.154C35.2072 13.1848 35.3095 13.2423 35.3926 13.2814C35.4757 13.3184 35.578 13.3779 35.6227 13.4108C35.6653 13.4437 35.7442 13.4868 35.7975 13.5074C35.8507 13.5259 35.9423 13.5752 35.9999 13.6142C36.0595 13.6553 36.1746 13.719 36.2556 13.758C36.3387 13.795 36.4282 13.8484 36.458 13.8751C36.4878 13.9018 36.5752 13.9532 36.6562 13.9881C36.735 14.023 36.8629 14.0929 36.9396 14.1422C37.0163 14.1935 37.0909 14.2346 37.1079 14.2346C37.125 14.2346 37.2017 14.2778 37.2805 14.3291C37.3615 14.3826 37.4829 14.4504 37.5554 14.4812C37.6257 14.512 37.7131 14.5613 37.7514 14.5921C37.7876 14.6209 37.8835 14.6743 37.9645 14.7113C38.0433 14.7462 38.1478 14.8037 38.1946 14.8407C38.2415 14.8756 38.3459 14.9352 38.4248 14.9701C38.5057 15.0071 38.6016 15.0605 38.6378 15.0893C38.6762 15.1201 38.7657 15.1715 38.8403 15.2023C38.9148 15.2351 39.0278 15.2968 39.0938 15.342C39.1578 15.3872 39.2451 15.4344 39.2899 15.4488C39.3325 15.4611 39.4156 15.5084 39.4731 15.5515C39.5328 15.5926 39.6415 15.6563 39.7182 15.6892C39.7949 15.722 39.8865 15.7734 39.9249 15.8042C39.9611 15.833 40.057 15.8864 40.1379 15.9234C40.2168 15.9583 40.3318 16.022 40.3894 16.0631C40.449 16.1062 40.5385 16.1555 40.5918 16.174C40.6429 16.1946 40.7324 16.2418 40.7857 16.2809C40.8411 16.3199 40.9413 16.3754 41.0094 16.4062C41.0798 16.4349 41.1799 16.4945 41.2353 16.5356C41.2907 16.5787 41.3909 16.6342 41.459 16.6589C41.5272 16.6856 41.621 16.7369 41.6679 16.7719C41.7147 16.8068 41.8085 16.8623 41.8788 16.891C41.947 16.9218 42.0472 16.9773 42.1026 17.0163C42.1558 17.0533 42.2666 17.115 42.3497 17.1499C42.4307 17.1869 42.5223 17.2382 42.5522 17.2649C42.582 17.2916 42.6715 17.343 42.7525 17.3779C42.8334 17.4128 42.9549 17.4889 43.0252 17.5443C43.1296 17.6265 43.1658 17.645 43.234 17.645C43.2937 17.645 43.3235 17.6347 43.3384 17.606C43.3683 17.5546 43.3725 7.64812 43.3427 7.57417C43.315 7.50021 43.1403 7.36872 42.9719 7.29476C42.891 7.25778 42.7951 7.20436 42.7588 7.1756C42.7205 7.14479 42.6289 7.09343 42.5543 7.06055C42.4797 7.02974 42.3902 6.97838 42.3519 6.94756C42.3156 6.9188 42.2176 6.86333 42.1366 6.8284C42.0535 6.79142 41.9555 6.73801 41.9193 6.70719C41.8831 6.67638 41.7872 6.62296 41.7062 6.58804C41.6274 6.55516 41.5272 6.49969 41.4825 6.46682C41.4399 6.43395 41.3397 6.37848 41.2588 6.3415C41.1799 6.30658 41.0862 6.25316 41.0499 6.22646C41.0158 6.19975 40.9114 6.14017 40.8198 6.09703C40.7282 6.05388 40.6238 5.9943 40.5854 5.96349C40.5471 5.93267 40.4597 5.88337 40.3894 5.85255C40.3169 5.82173 40.1955 5.75394 40.1145 5.70052C40.0357 5.64916 39.9589 5.60602 39.9419 5.60602C39.9249 5.60602 39.8503 5.56493 39.7736 5.51357C39.6969 5.46426 39.5711 5.39441 39.4923 5.35949C39.4156 5.32661 39.3218 5.27525 39.2856 5.24444C39.2494 5.21568 39.1514 5.15815 39.0704 5.12117C38.9873 5.08214 38.9021 5.03283 38.8765 5.01229C38.8531 4.98969 38.7806 4.9486 38.7167 4.91778C38.5334 4.83355 38.4759 4.80273 38.4077 4.74726C38.3736 4.7185 38.282 4.66919 38.2074 4.63633C38.1328 4.60551 38.0369 4.55209 37.9943 4.51922C37.9517 4.48635 37.8516 4.43088 37.7727 4.39801C37.6918 4.36308 37.5959 4.30967 37.5596 4.27885C37.5213 4.24804 37.4233 4.19257 37.3423 4.15764C37.2592 4.12066 37.1633 4.06725 37.1292 4.04054C37.093 4.01178 36.995 3.95425 36.9097 3.91316C36.8224 3.87207 36.7222 3.81455 36.686 3.78579C36.6477 3.75497 36.556 3.70361 36.4814 3.67074C36.4069 3.63787 36.3003 3.5824 36.2471 3.54337C36.1938 3.50639 36.0936 3.45092 36.0255 3.42215C35.9573 3.39134 35.8699 3.34203 35.8337 3.31327C35.7953 3.28245 35.6952 3.22698 35.6078 3.18795C35.5204 3.14891 35.4203 3.0955 35.3862 3.06674C35.35 3.03798 35.2541 2.98251 35.171 2.94347C35.0879 2.90238 34.9877 2.84691 34.9494 2.82021C34.911 2.79144 34.8194 2.74214 34.747 2.70927C34.6745 2.67845 34.5722 2.61887 34.519 2.58189C34.4657 2.54286 34.3677 2.48533 34.2974 2.45657C34.2292 2.42575 34.129 2.37029 34.0736 2.33331C34.0203 2.29427 33.9202 2.2388 33.8541 2.21004C33.786 2.18128 33.6943 2.12992 33.6517 2.09499C33.607 2.06212 33.5132 2.00871 33.4429 1.97994C33.3747 1.94913 33.281 1.89777 33.2383 1.86489C33.1936 1.83202 33.0934 1.7745 33.0125 1.73957C32.9336 1.70465 32.8313 1.64918 32.7887 1.61631C32.7461 1.58344 32.646 1.52797 32.565 1.49304C32.4862 1.45811 32.3924 1.40881 32.3583 1.38005C32.3242 1.35334 32.2283 1.29787 32.1452 1.25678C32.0621 1.21775 31.9492 1.152 31.8959 1.11502C31.8405 1.07599 31.7574 1.03079 31.7105 1.01641C31.6168 0.983543 31.5358 0.938343 31.4421 0.864384C31.408 0.837677 31.3206 0.790424 31.246 0.757553C31.1714 0.724682 31.0777 0.675377 31.0393 0.646614C30.9988 0.615799 30.8966 0.560329 30.8092 0.519241C30.7218 0.478149 30.6281 0.424736 30.5982 0.398029C30.5684 0.371319 30.4725 0.315849 30.3852 0.274761C30.1742 0.178204 30.1209 0.135059 30.1337 0.071373C30.1423 0.032341 30.1337 0.0179596 30.0996 0.00973892C30.0464 -0.00464249 29.9164 -0.00258636 29.8802 0.011795Z" fill="white"/>
<path d="M50.7897 11.7332C50.762 11.7743 50.7599 13.7671 50.777 28.2775C50.7876 37.3499 50.7876 44.8157 50.777 44.865C50.7535 44.9903 50.696 45.054 50.5575 45.1054C50.4914 45.1301 50.3955 45.1835 50.3465 45.2225C50.2954 45.2615 50.1974 45.3191 50.1271 45.3499C50.0567 45.3786 49.963 45.43 49.9204 45.4649C49.8756 45.4978 49.7797 45.5533 49.7052 45.5841C49.6306 45.617 49.5347 45.6724 49.4921 45.7094C49.4495 45.7443 49.3642 45.7936 49.3024 45.8162C49.2406 45.8388 49.1405 45.8922 49.083 45.9354C49.0233 45.9806 48.9168 46.0402 48.8486 46.071C48.7782 46.0997 48.676 46.1552 48.6227 46.1942C48.5673 46.2333 48.4714 46.2867 48.4096 46.3134C48.3457 46.3401 48.2562 46.3915 48.2093 46.4285C48.1624 46.4654 48.0644 46.5209 47.9941 46.5517C47.9217 46.5825 47.8109 46.6462 47.7491 46.6914C47.6851 46.7366 47.5978 46.7839 47.553 46.7983C47.5104 46.8106 47.4188 46.8619 47.3506 46.9092C47.2845 46.9564 47.1737 47.0181 47.1056 47.0448C47.0395 47.0694 46.9479 47.1187 46.9031 47.1537C46.8605 47.1865 46.7625 47.242 46.6858 47.2769C46.6091 47.3119 46.5089 47.3694 46.462 47.4064C46.4152 47.4433 46.3214 47.4926 46.2554 47.5173C46.1872 47.542 46.087 47.5974 46.0316 47.6426C45.9762 47.6878 45.8825 47.7392 45.8271 47.7597C45.7695 47.7782 45.6758 47.8296 45.6161 47.8748C45.5543 47.9179 45.4456 47.9795 45.3689 48.0124C45.2944 48.0453 45.1942 48.1028 45.1452 48.1418C45.0962 48.1788 45.0323 48.2179 45.0024 48.2261C44.9108 48.2528 44.7936 48.3165 44.719 48.3802C44.6807 48.413 44.5933 48.4582 44.5294 48.4829C44.4633 48.5055 44.3611 48.563 44.3014 48.6082C44.2417 48.6534 44.1352 48.713 44.0649 48.7397C43.9946 48.7664 43.8965 48.8198 43.8475 48.8588C43.7964 48.8979 43.7026 48.9513 43.6387 48.978C43.5748 49.0027 43.481 49.0561 43.4299 49.0931C43.3809 49.1321 43.2807 49.1876 43.2083 49.2163C43.1358 49.243 43.0378 49.2985 42.9909 49.3355C42.9419 49.3725 42.8396 49.432 42.7608 49.4649C42.682 49.4998 42.5797 49.5574 42.5371 49.5923C42.4923 49.6272 42.39 49.6847 42.3091 49.7176C42.2281 49.7505 42.1365 49.7998 42.1066 49.8265C42.0768 49.8552 41.9852 49.9066 41.9021 49.9436C41.8211 49.9785 41.7167 50.0381 41.6677 50.0751C41.6208 50.1121 41.559 50.149 41.5292 50.1573C41.4312 50.186 41.2841 50.2661 41.233 50.3196C41.2053 50.3483 41.1158 50.3956 41.037 50.4264C40.956 50.4551 40.8452 50.5147 40.7919 50.5579C40.7365 50.601 40.6492 50.6524 40.5938 50.6729C40.5405 50.6914 40.4403 50.7469 40.3743 50.7941C40.3082 50.8414 40.2038 50.8989 40.1442 50.9194C40.0824 50.94 39.9971 50.9872 39.9524 51.0242C39.9076 51.0612 39.8096 51.1187 39.735 51.1516C39.6583 51.1845 39.5624 51.2399 39.5198 51.2749C39.4793 51.3118 39.3835 51.3632 39.3089 51.392C39.2343 51.4207 39.1278 51.4803 39.0681 51.5234C39.0106 51.5666 38.9062 51.6262 38.8358 51.6549C38.7676 51.6837 38.6803 51.7351 38.6441 51.7659C38.6057 51.7987 38.5183 51.846 38.448 51.8727C38.3798 51.8974 38.2776 51.9549 38.2243 51.998C38.171 52.0412 38.0666 52.0987 37.9963 52.1275C37.9238 52.1542 37.8237 52.2096 37.7726 52.2507C37.7214 52.2898 37.6255 52.3432 37.5595 52.3678C37.4934 52.3925 37.4018 52.4418 37.3592 52.4788C37.3144 52.5157 37.2121 52.5753 37.1333 52.6102C37.0523 52.6431 36.9522 52.7006 36.9074 52.7356C36.8627 52.7684 36.7647 52.8239 36.6901 52.8547C36.6155 52.8876 36.5132 52.9472 36.4664 52.9862C36.4174 53.0252 36.3321 53.0745 36.2746 53.093C36.2171 53.1136 36.1212 53.167 36.0615 53.2101C36.0018 53.2553 35.8932 53.3129 35.8229 53.3416C35.7504 53.3704 35.6439 53.4279 35.5863 53.469C35.5288 53.5121 35.4329 53.5635 35.3775 53.582C35.32 53.6025 35.2347 53.6498 35.1836 53.6909C35.1346 53.732 35.0344 53.7895 34.962 53.8183C34.8874 53.845 34.7851 53.9025 34.7319 53.9456C34.6786 53.9867 34.5806 54.0442 34.5124 54.0709C34.4442 54.0956 34.3462 54.1511 34.2951 54.1922C34.2418 54.2353 34.1502 54.2846 34.0905 54.3052C34.033 54.3257 33.9286 54.3812 33.8625 54.4284C33.7964 54.4777 33.6963 54.5311 33.6409 54.5517C33.5855 54.5722 33.4939 54.6236 33.4385 54.6688C33.3809 54.714 33.2829 54.7695 33.2169 54.7921C33.1508 54.8167 33.0507 54.8701 32.9974 54.9133C32.942 54.9585 32.844 55.0119 32.78 55.0365C32.714 55.0591 32.616 55.1146 32.5627 55.1577C32.5073 55.2009 32.405 55.2584 32.3368 55.2831C32.2665 55.3098 32.1791 55.357 32.1429 55.3899C32.1046 55.4207 32.0129 55.4741 31.9384 55.507C31.8638 55.5399 31.7487 55.6036 31.6848 55.6508C31.6209 55.6981 31.5314 55.7453 31.4824 55.7576C31.4355 55.77 31.3396 55.8213 31.2714 55.8727C31.2011 55.924 31.0967 55.9857 31.037 56.0083C30.9774 56.0309 30.8815 56.0843 30.8218 56.1274C30.7643 56.1685 30.662 56.224 30.5981 56.2507C30.5342 56.2774 30.4319 56.337 30.3701 56.3863C30.2444 56.4849 30.1485 56.5157 29.9801 56.5157C29.8502 56.5157 29.6776 56.45 29.6072 56.3719C29.5625 56.3226 29.3814 56.2281 29.3345 56.2281C29.3196 56.2281 29.2514 56.187 29.1853 56.1377C29.1193 56.0884 29.017 56.0309 28.9573 56.0103C28.8998 55.9898 28.7997 55.9343 28.74 55.885C28.6782 55.8357 28.5759 55.7802 28.5141 55.7617C28.4523 55.7433 28.365 55.6981 28.3224 55.6631C28.2158 55.5768 28.1519 55.5399 28.0581 55.5111C28.0155 55.4967 27.9324 55.4515 27.877 55.4063C27.8195 55.3632 27.7151 55.3057 27.6405 55.2769C27.568 55.2481 27.4679 55.1927 27.4189 55.1536C27.3677 55.1125 27.274 55.0612 27.2122 55.0365C27.1483 55.0119 27.0396 54.9523 26.9714 54.903C26.9032 54.8537 26.801 54.7982 26.7434 54.7797C26.6859 54.7612 26.6262 54.7325 26.6113 54.716C26.5666 54.6647 26.4195 54.5743 26.3151 54.5352C26.2619 54.5147 26.1809 54.4675 26.1319 54.4305C26.085 54.3935 25.987 54.338 25.9145 54.3093C25.8421 54.2826 25.7419 54.225 25.6929 54.1839C25.6439 54.1449 25.5459 54.0915 25.4777 54.0668C25.4074 54.0422 25.3115 53.9908 25.2625 53.9518C25.2156 53.9128 25.1091 53.8511 25.026 53.8141C24.945 53.7792 24.847 53.7237 24.8108 53.695C24.7724 53.6642 24.6787 53.6128 24.5998 53.5779C24.521 53.543 24.4187 53.4875 24.3761 53.4546C24.3313 53.4197 24.2376 53.3683 24.1694 53.3396C24.1012 53.3108 24.0053 53.2533 23.9542 53.2142C23.9052 53.1752 23.805 53.1218 23.7347 53.0951C23.6644 53.0684 23.5706 53.017 23.528 52.98C23.4854 52.9431 23.3895 52.8876 23.3128 52.8547C23.2382 52.8198 23.1423 52.7664 23.0997 52.7356C23.0571 52.7027 22.9591 52.6472 22.8802 52.6144C22.8014 52.5794 22.7034 52.524 22.6629 52.489C22.6224 52.4541 22.5287 52.4027 22.4541 52.374C22.3795 52.3452 22.2793 52.2877 22.2282 52.2487C22.1792 52.2096 22.079 52.1542 22.0066 52.1254C21.932 52.0966 21.8404 52.0453 21.7999 52.0103C21.7573 51.9775 21.6529 51.9179 21.5655 51.8789C21.4782 51.8398 21.378 51.7844 21.3418 51.7556C21.3056 51.7268 21.2161 51.6755 21.1415 51.6447C21.0669 51.6118 20.9668 51.5543 20.9178 51.5152C20.8687 51.4783 20.7729 51.4269 20.7068 51.4022C20.6386 51.3796 20.5321 51.3201 20.4703 51.2708C20.4106 51.2235 20.3105 51.166 20.2529 51.1454C20.1933 51.1228 20.108 51.0756 20.0612 51.0386C20.0143 51.0037 19.9099 50.9441 19.8268 50.9092C19.7458 50.8722 19.6542 50.8208 19.6243 50.7941C19.5945 50.7674 19.505 50.7161 19.4219 50.6811C19.3409 50.6462 19.2344 50.5866 19.1854 50.5476C19.1364 50.5086 19.0405 50.4572 18.9723 50.4325C18.902 50.4079 18.8061 50.3524 18.755 50.3113C18.706 50.2682 18.6101 50.2127 18.5419 50.186C18.4758 50.1614 18.3821 50.11 18.3331 50.073C18.2841 50.036 18.1903 49.9826 18.1242 49.9539C18.0561 49.9251 17.9516 49.8635 17.8941 49.8183C17.8345 49.7731 17.7599 49.7299 17.73 49.7217C17.6448 49.7032 17.5553 49.656 17.4552 49.5779C17.4062 49.5389 17.3081 49.4855 17.2357 49.4587C17.1654 49.432 17.061 49.3683 17.0013 49.317C16.8905 49.2204 16.7392 49.1608 16.7009 49.1978C16.6902 49.2081 16.6732 49.2492 16.6668 49.2862C16.6582 49.3252 16.6561 51.583 16.6625 54.3031L16.6732 59.2502L16.7605 59.3303C16.8095 59.3734 16.9033 59.4269 16.9757 59.4536C17.046 59.4782 17.1483 59.5337 17.2016 59.5748C17.2549 59.6179 17.355 59.6754 17.4232 59.7001C17.4914 59.7268 17.5894 59.7843 17.6427 59.8254C17.6959 59.8686 17.794 59.922 17.86 59.9466C17.9282 59.9713 18.0284 60.0267 18.0838 60.0719C18.1392 60.1151 18.2308 60.1665 18.2862 60.1849C18.3416 60.2014 18.4332 60.2527 18.4865 60.2959C18.5419 60.339 18.6442 60.3945 18.7166 60.4212C18.7869 60.4459 18.8892 60.5013 18.9403 60.5445C18.9915 60.5897 19.0916 60.6451 19.1598 60.6698C19.2301 60.6944 19.3324 60.7499 19.3857 60.7931C19.4411 60.8362 19.5412 60.8917 19.6073 60.9143C19.6734 60.9389 19.7692 60.9903 19.8161 61.0293C19.863 61.0683 19.9525 61.1197 20.0143 61.1423C20.0761 61.1649 20.1741 61.2183 20.2338 61.2635C20.2934 61.3087 20.4021 61.3662 20.4745 61.395C20.547 61.4217 20.6471 61.4792 20.7004 61.5244C20.7558 61.5717 20.8432 61.6189 20.9135 61.6415C20.9795 61.66 21.0733 61.7093 21.1223 61.7484C21.1713 61.7895 21.2736 61.849 21.346 61.8798C21.4206 61.9127 21.5208 61.9702 21.5677 62.0093C21.6145 62.0483 21.704 62.0956 21.7679 62.1161C21.834 62.1346 21.9256 62.186 21.9874 62.2373C22.0471 62.2866 22.1451 62.3421 22.2069 62.3606C22.2687 62.3811 22.371 62.4366 22.4328 62.4859C22.4946 62.5332 22.5947 62.5886 22.6565 62.6092C22.7183 62.6277 22.8099 62.679 22.8632 62.7222C22.9165 62.7653 23.0123 62.8187 23.0763 62.8434C23.1402 62.868 23.2425 62.9235 23.3 62.9666C23.3597 63.0098 23.4577 63.0632 23.5174 63.0858C23.5791 63.1084 23.6793 63.1639 23.739 63.2111C23.7986 63.2563 23.9009 63.3097 23.9648 63.3303C24.033 63.3508 24.1225 63.4001 24.1758 63.4453C24.2269 63.4885 24.3271 63.548 24.4016 63.5748C24.4741 63.6035 24.5721 63.659 24.619 63.698C24.6659 63.7371 24.7596 63.7884 24.8278 63.811C24.8939 63.8357 24.9876 63.887 25.0345 63.9261C25.0835 63.9651 25.1794 64.0185 25.2518 64.0473C25.3222 64.076 25.4287 64.1336 25.4862 64.1788C25.5438 64.2219 25.6439 64.2774 25.71 64.3C25.776 64.3246 25.874 64.3801 25.9273 64.4232C25.9827 64.4664 26.0829 64.5218 26.151 64.5486C26.2192 64.5753 26.3173 64.6287 26.3684 64.6698C26.4195 64.7109 26.509 64.7602 26.5666 64.7787C26.6241 64.7992 26.72 64.8526 26.7796 64.8978C26.8393 64.943 26.9416 64.9985 27.0055 65.0211C27.0716 65.0416 27.1717 65.0971 27.2271 65.1423C27.2825 65.1895 27.3869 65.245 27.4551 65.2676C27.5276 65.2923 27.6149 65.3395 27.6575 65.3785C27.698 65.4176 27.7939 65.4731 27.8685 65.5039C27.9452 65.5347 28.0454 65.5902 28.0944 65.6271C28.1412 65.6662 28.235 65.7155 28.301 65.7401C28.3692 65.7648 28.4651 65.8161 28.5141 65.8552C28.6185 65.9415 28.6867 65.9764 28.7826 65.9969C28.821 66.0031 28.9019 66.0524 28.9616 66.1017C29.0213 66.151 29.1235 66.2106 29.1875 66.2332C29.2514 66.2558 29.3452 66.3072 29.3942 66.3482C29.4432 66.3873 29.5454 66.4427 29.62 66.4715C29.6925 66.5003 29.7926 66.5557 29.8395 66.5948C29.9588 66.6934 30.0441 66.6913 30.1762 66.5845C30.2316 66.5414 30.3253 66.4879 30.385 66.4674C30.4468 66.4469 30.5427 66.3893 30.6023 66.3421C30.6599 66.2928 30.7217 66.2537 30.7387 66.2537C30.7877 66.2537 30.9433 66.1716 31.0328 66.0955C31.0796 66.0586 31.1691 66.0113 31.2309 65.9928C31.2927 65.9743 31.3929 65.9189 31.4547 65.8696C31.5165 65.8203 31.6123 65.7668 31.6699 65.7483C31.7253 65.7299 31.819 65.6806 31.8766 65.6354C31.9341 65.5922 32.0342 65.5367 32.096 65.5141C32.16 65.4915 32.2644 65.432 32.3326 65.3827C32.3986 65.3313 32.4988 65.2758 32.5542 65.2594C32.6096 65.2409 32.7055 65.1875 32.7673 65.1382C32.829 65.0889 32.9292 65.0334 32.991 65.0149C33.0528 64.9964 33.1444 64.9471 33.1913 64.9081C33.2403 64.869 33.3447 64.8074 33.4257 64.7725C33.5045 64.7396 33.6004 64.6842 33.6345 64.6513C33.6707 64.6184 33.7538 64.5732 33.8199 64.5486C33.8859 64.5239 33.9967 64.4643 34.0649 64.413C34.131 64.3616 34.212 64.3164 34.2418 64.3082C34.3249 64.2897 34.4463 64.226 34.5252 64.1582C34.5635 64.1253 34.6509 64.0801 34.717 64.0555C34.783 64.0308 34.881 63.9774 34.9364 63.9322C34.9897 63.8891 35.0898 63.8336 35.1559 63.811C35.222 63.7884 35.3157 63.7371 35.3626 63.698C35.4095 63.659 35.5075 63.6035 35.5799 63.5768C35.6524 63.548 35.7547 63.4905 35.8058 63.4494C35.8569 63.4104 35.9571 63.3549 36.0274 63.3282C36.0977 63.3015 36.2021 63.2419 36.2639 63.1967C36.3236 63.1515 36.4195 63.0981 36.4749 63.0817C36.5324 63.0632 36.6198 63.0139 36.6667 62.9749C36.7157 62.9358 36.8158 62.8783 36.8883 62.8495C36.9607 62.8228 37.063 62.7633 37.1141 62.7181C37.1674 62.6749 37.2207 62.6379 37.2335 62.6379C37.2867 62.6379 37.4934 62.529 37.5701 62.4633C37.6149 62.4243 37.6639 62.3914 37.6788 62.3914C37.7299 62.3914 37.9217 62.2928 37.9963 62.2291C38.0368 62.1942 38.1412 62.1387 38.2264 62.1058C38.3117 62.0709 38.4075 62.0216 38.4374 61.9928C38.4672 61.9641 38.5567 61.9148 38.6334 61.8819C38.7101 61.849 38.8081 61.7915 38.8486 61.7566C38.8891 61.7217 38.9935 61.6662 39.0787 61.6333C39.164 61.5984 39.2641 61.5429 39.3004 61.5101C39.3387 61.4751 39.4282 61.4238 39.5007 61.3971C39.5731 61.3703 39.6754 61.3128 39.7265 61.2717C39.7798 61.2306 39.8735 61.1772 39.9353 61.1546C39.9971 61.132 40.0973 61.0786 40.1548 61.0355C40.2145 60.9923 40.3146 60.9369 40.3785 60.9122C40.4425 60.8876 40.5362 60.8341 40.5874 60.7951C40.6385 60.7561 40.7387 60.7006 40.8132 60.6718C40.8878 60.6451 40.988 60.5897 41.037 60.5506C41.0839 60.5095 41.1819 60.4561 41.2543 60.4294C41.3268 60.4007 41.4354 60.3411 41.4972 60.2959C41.559 60.2507 41.6507 60.1993 41.7039 60.1829C41.7551 60.1644 41.8424 60.1151 41.8978 60.0699C41.9532 60.0267 42.0534 59.9713 42.1216 59.9466C42.1876 59.922 42.2856 59.8686 42.3389 59.8254C42.3922 59.7823 42.4838 59.7309 42.5413 59.7104C42.601 59.6898 42.7011 59.6323 42.7672 59.585C42.8333 59.5357 42.9398 59.4762 43.0059 59.4536C43.0698 59.431 43.1593 59.3817 43.2062 59.3467C43.2509 59.3118 43.3489 59.2563 43.4256 59.2235C43.5002 59.1885 43.6004 59.131 43.6494 59.094C43.6962 59.055 43.7921 59.0057 43.8603 58.981C43.9285 58.9543 44.0223 58.903 44.067 58.8639C44.1117 58.8249 44.2183 58.7653 44.3014 58.7325C44.3845 58.6996 44.491 58.6421 44.5379 58.601C44.5869 58.5619 44.6722 58.5147 44.7276 58.4983C44.7851 58.4798 44.8852 58.4243 44.9513 58.375C45.0173 58.3257 45.1154 58.2702 45.1708 58.2517C45.2262 58.2353 45.3157 58.1839 45.3732 58.1387C45.4286 58.0935 45.5309 58.0381 45.6012 58.0134C45.6715 57.9888 45.7695 57.9333 45.8228 57.8881C45.8739 57.8449 45.972 57.7895 46.038 57.7689C46.1041 57.7463 46.2085 57.6929 46.2681 57.6477C46.3278 57.6046 46.4322 57.545 46.5025 57.5142C46.5707 57.4854 46.6581 57.4341 46.6986 57.4012C46.7369 57.3683 46.8264 57.319 46.8989 57.2944C46.9692 57.2697 47.0693 57.2142 47.1226 57.169C47.1737 57.1238 47.276 57.0663 47.3463 57.0396C47.4167 57.0129 47.5147 56.9574 47.5679 56.9163C47.6191 56.8773 47.7192 56.8218 47.7917 56.7931C47.862 56.7664 47.9621 56.7129 48.0112 56.6739C48.0623 56.6349 48.1582 56.5794 48.2285 56.5486C48.2967 56.5198 48.384 56.4685 48.4224 56.4356C48.4608 56.4027 48.5396 56.3596 48.595 56.339C48.7079 56.3 48.7974 56.2486 48.8827 56.1726C48.9125 56.148 48.9956 56.1028 49.0702 56.074C49.1448 56.0473 49.2449 55.9918 49.296 55.9528C49.345 55.9117 49.4409 55.8604 49.5049 55.8378C49.5709 55.8131 49.6711 55.7597 49.7286 55.7145C49.7861 55.6714 49.8841 55.6159 49.9502 55.5912C50.0141 55.5686 50.1036 55.5193 50.1505 55.4803C50.1974 55.4413 50.2975 55.3837 50.3721 55.3509C50.4488 55.3159 50.549 55.2584 50.598 55.2194C50.6448 55.1803 50.7407 55.131 50.8068 55.1084C50.875 55.0858 50.9666 55.0365 51.0114 55.0016C51.0561 54.9646 51.1562 54.905 51.2351 54.8722C51.3139 54.8393 51.4162 54.7797 51.461 54.7407C51.5078 54.7037 51.6037 54.6503 51.674 54.6256C51.7465 54.601 51.8402 54.5496 51.8871 54.5085C51.9319 54.4695 52.0192 54.4181 52.081 54.3955C52.1428 54.3729 52.2451 54.3175 52.3069 54.2723C52.3687 54.2271 52.471 54.1716 52.5306 54.149C52.5924 54.1244 52.6947 54.0668 52.7586 54.0196C52.8225 53.9723 52.8993 53.9251 52.9291 53.9169C53.0186 53.8902 53.1763 53.808 53.2061 53.771C53.2231 53.7525 53.3062 53.7053 53.3936 53.6683C53.4788 53.6313 53.5896 53.5676 53.6408 53.5265C53.6919 53.4875 53.7793 53.4382 53.8368 53.4197C53.8944 53.4033 53.9924 53.3519 54.0542 53.3067C54.116 53.2636 54.2289 53.1999 54.3056 53.167C54.3802 53.1341 54.4782 53.0787 54.5229 53.0437C54.5656 53.0088 54.6551 52.9574 54.7211 52.9328C54.7872 52.9061 54.8831 52.8527 54.9363 52.8116C54.9875 52.7725 55.0812 52.7191 55.1451 52.6965C55.2091 52.6739 55.3071 52.6185 55.3646 52.5733C55.42 52.5281 55.5138 52.4767 55.5713 52.4582C55.631 52.4397 55.7269 52.3863 55.7865 52.3411C55.8462 52.2959 55.9527 52.2363 56.023 52.2076C56.0934 52.1809 56.1978 52.1213 56.2574 52.0781C56.315 52.0329 56.3746 51.996 56.3874 51.996C56.43 51.996 56.6218 51.8912 56.707 51.8213C56.7518 51.7844 56.8306 51.7433 56.886 51.7289C56.9393 51.7145 57.0373 51.6632 57.1034 51.6138C57.1694 51.5666 57.2802 51.5029 57.3463 51.4741C57.4145 51.4454 57.5082 51.394 57.553 51.3591C57.5977 51.3242 57.7 51.2666 57.781 51.2317C57.8598 51.1968 57.9557 51.1454 57.9898 51.1167C58.026 51.0879 58.1134 51.0386 58.1858 51.0078C58.2583 50.977 58.3669 50.9133 58.4266 50.8681C58.4884 50.8208 58.5481 50.7839 58.5609 50.7839C58.612 50.7839 58.8016 50.6852 58.889 50.6133C58.9401 50.5743 59.0275 50.525 59.085 50.5065C59.1447 50.488 59.2278 50.4449 59.2725 50.4099C59.3173 50.375 59.4238 50.3175 59.5091 50.2785C59.5943 50.2415 59.7136 50.1696 59.7754 50.1203C59.8649 50.0463 59.8947 50.0319 59.9331 50.0463C59.9757 50.0607 59.9821 50.0545 59.9928 49.997C59.9992 49.96 60.0013 42.4613 59.9992 33.3314L59.9928 16.7316L59.9438 16.7357C59.8926 16.7419 59.833 16.7111 59.7051 16.6145C59.6646 16.5837 59.5773 16.5364 59.5112 16.5077C59.4473 16.481 59.3642 16.4337 59.3279 16.405C59.2896 16.3741 59.1958 16.3207 59.1149 16.2879C59.036 16.2529 58.9274 16.1934 58.8741 16.1564C58.8208 16.1194 58.71 16.0557 58.6269 16.0167C58.5417 15.9776 58.4373 15.9181 58.3925 15.8852C58.3456 15.8503 58.2647 15.8051 58.2071 15.7866C58.1517 15.766 58.0558 15.7147 57.9941 15.6695C57.9344 15.6243 57.8257 15.5626 57.7554 15.5318C57.6851 15.501 57.5828 15.4435 57.5295 15.4045C57.4763 15.3654 57.3868 15.3161 57.3292 15.2956C57.2696 15.275 57.1822 15.2257 57.1332 15.1867C57.0842 15.1497 56.9819 15.0901 56.9052 15.0573C56.8264 15.0244 56.7283 14.9689 56.6836 14.936C56.641 14.9032 56.5472 14.8498 56.4769 14.8189C56.4066 14.7881 56.3022 14.7285 56.2425 14.6854C56.185 14.6443 56.0934 14.593 56.0401 14.5724C55.9868 14.5539 55.8952 14.5026 55.8334 14.4594C55.7737 14.4163 55.6693 14.3567 55.6033 14.3279C55.5372 14.3012 55.4456 14.2499 55.4008 14.2149C55.3561 14.18 55.2538 14.1245 55.1728 14.0876C55.094 14.0526 55.0002 14.0013 54.9662 13.9746C54.9321 13.9458 54.8362 13.8924 54.7531 13.8513C54.67 13.8123 54.5613 13.7486 54.5123 13.7116C54.4612 13.6746 54.3717 13.6274 54.3141 13.6068C54.2566 13.5863 54.1543 13.5308 54.0883 13.4836C54.0222 13.4363 53.9242 13.3808 53.8709 13.3623C53.8155 13.3418 53.7239 13.2925 53.6642 13.2494C53.6067 13.2083 53.4916 13.1446 53.4085 13.1076C53.3276 13.0706 53.2359 13.0193 53.2061 12.9925C53.1763 12.9658 53.0868 12.9145 53.0058 12.8816C52.9248 12.8467 52.8247 12.7912 52.7821 12.7583C52.7394 12.7255 52.6393 12.67 52.5605 12.6371C52.4795 12.6022 52.3836 12.5488 52.3474 12.518C52.309 12.4872 52.2089 12.4317 52.1215 12.3927C52.0341 12.3536 51.934 12.3002 51.8999 12.2714C51.8637 12.2427 51.7678 12.1872 51.6847 12.1461C51.6016 12.105 51.4993 12.0475 51.4588 12.0167C51.4183 11.9859 51.3267 11.9366 51.2585 11.9058C51.1882 11.877 51.0902 11.8154 51.0412 11.7702C50.9325 11.6736 50.8388 11.6592 50.7897 11.7332Z" fill="white"/>
<path d="M29.8603 15.7497C29.8816 15.7559 29.8965 15.7785 29.8965 15.8073C29.8965 15.8627 29.8006 15.9387 29.6238 16.0189C29.5535 16.0517 29.4512 16.1093 29.3937 16.1504C29.3361 16.1894 29.2466 16.2387 29.1934 16.2572C29.1422 16.2777 29.0527 16.325 28.9995 16.364C28.9441 16.403 28.8439 16.4585 28.7757 16.4893C28.7054 16.5181 28.6031 16.5777 28.5435 16.6188C28.4859 16.6599 28.3836 16.7153 28.3197 16.742C28.2558 16.7687 28.1557 16.8242 28.096 16.8653C28.0385 16.9064 27.9362 16.9619 27.8723 16.9886C27.8083 17.0153 27.7167 17.0687 27.6677 17.1057C27.6187 17.1406 27.5249 17.194 27.4567 17.2228C27.3907 17.2515 27.2884 17.3091 27.2309 17.3501C27.1733 17.3912 27.0753 17.4426 27.0135 17.4652C26.9517 17.4878 26.8558 17.5412 26.7962 17.5823C26.7387 17.6254 26.6321 17.685 26.5618 17.7158C26.4915 17.7467 26.3977 17.8001 26.3551 17.8329C26.3104 17.8658 26.2102 17.9213 26.1335 17.9541C26.0547 17.9891 25.9566 18.0425 25.914 18.0754C25.8714 18.1082 25.7734 18.1616 25.6946 18.1966C25.6157 18.2315 25.5156 18.287 25.4708 18.3219C25.4261 18.3548 25.343 18.4041 25.2833 18.4287C25.2258 18.4534 25.1299 18.5047 25.0702 18.5458C25.0127 18.5849 24.8976 18.6485 24.8145 18.6835C24.7314 18.7205 24.6334 18.7739 24.5972 18.8047C24.561 18.8334 24.4736 18.8828 24.4054 18.9115C24.3372 18.9403 24.2328 18.9999 24.1731 19.0451C24.1135 19.0882 24.0261 19.1375 23.9771 19.1539C23.9302 19.1704 23.8194 19.23 23.7342 19.2854C23.649 19.3409 23.5424 19.3984 23.4977 19.4128C23.4529 19.4251 23.3741 19.4683 23.3208 19.5073C23.2675 19.5463 23.1567 19.61 23.0758 19.6491C22.9948 19.686 22.8925 19.7456 22.8478 19.7785C22.8052 19.8114 22.7029 19.8668 22.624 19.9018C22.5431 19.9387 22.4472 19.9901 22.4131 20.0189C22.3769 20.0497 22.2831 20.101 22.2064 20.1339C22.1297 20.1668 22.0295 20.2222 21.9869 20.2551C21.9443 20.29 21.8378 20.3476 21.7525 20.3845C21.6673 20.4236 21.5693 20.477 21.5331 20.5058C21.499 20.5345 21.4031 20.5859 21.3242 20.6208C21.2433 20.6557 21.1431 20.7133 21.0984 20.7461C21.0558 20.779 20.9663 20.8304 20.9002 20.8571C20.8341 20.8858 20.7276 20.9454 20.6658 20.9906C20.604 21.0337 20.506 21.0872 20.4506 21.1056C20.3931 21.1262 20.3036 21.1755 20.2503 21.2145C20.197 21.2536 20.0884 21.3152 20.0116 21.3481C19.9349 21.3809 19.8476 21.4303 19.8177 21.457C19.7879 21.4837 19.6899 21.5391 19.6004 21.5782C19.5109 21.6193 19.4086 21.6747 19.3745 21.7035C19.3383 21.7323 19.2382 21.7877 19.1529 21.8268C19.0677 21.8637 18.9526 21.9274 18.8972 21.9685C18.8418 22.0096 18.7907 22.0425 18.7843 22.0425C18.7502 22.0425 18.5542 22.1493 18.4775 22.2068C18.4348 22.2418 18.3453 22.289 18.2814 22.3116C18.2175 22.3342 18.1301 22.3815 18.0854 22.4164C18.0406 22.4492 17.932 22.5088 17.8446 22.5479C17.7594 22.5869 17.655 22.6444 17.6187 22.6773C17.5804 22.7102 17.4824 22.7636 17.4035 22.7985C17.3226 22.8334 17.2224 22.8889 17.1798 22.9218C17.1372 22.9546 17.0349 23.0122 16.956 23.045C16.8751 23.08 16.7792 23.1334 16.743 23.1642C16.7067 23.195 16.6087 23.2484 16.5256 23.2854C16.4447 23.3203 16.3466 23.3758 16.3083 23.4066C16.2721 23.4354 16.1719 23.4908 16.0845 23.5299C15.9993 23.5669 15.8992 23.6223 15.8651 23.649C15.8288 23.6778 15.7351 23.7292 15.6562 23.7641C15.5753 23.799 15.4751 23.8565 15.4304 23.8915C15.3856 23.9243 15.2876 23.9798 15.213 24.0106C15.1385 24.0435 15.0468 24.0949 15.0085 24.1257C14.9723 24.1544 14.8721 24.2099 14.7847 24.2489C14.6995 24.2859 14.5994 24.3414 14.5631 24.3722C14.5269 24.401 14.4374 24.4523 14.365 24.4852C14.2925 24.5181 14.2201 24.555 14.203 24.5694C14.186 24.5838 14.1476 24.59 14.1199 24.5818C14.0581 24.5674 14.0432 24.5961 14.0432 24.7194C14.0432 24.8796 13.9367 24.8673 15.3899 24.8735C16.2934 24.8776 16.7153 24.8858 16.7558 24.9022C16.8751 24.9474 16.8751 24.9495 16.8772 26.024C16.8793 27.0758 16.8772 27.1025 16.7771 27.1498C16.7558 27.1601 16.1421 27.1724 15.4112 27.1786C14.2627 27.1868 14.0816 27.1929 14.0645 27.2196C14.0368 27.2587 14.0453 42.1451 14.073 42.1698C14.0837 42.178 14.0965 42.1759 14.1007 42.1615C14.1135 42.1307 14.1668 42.1492 14.235 42.2088C14.2648 42.2334 14.3373 42.2725 14.3991 42.2951C14.4587 42.3177 14.5504 42.367 14.6015 42.4081C14.6526 42.4471 14.7549 42.5046 14.8295 42.5334C14.9041 42.5622 15.0063 42.6176 15.0554 42.6567C15.1044 42.6977 15.2003 42.7491 15.2642 42.7717C15.3302 42.7964 15.4304 42.8518 15.4858 42.897C15.5412 42.9402 15.6328 42.9915 15.6903 43.01C15.7457 43.0285 15.8374 43.0758 15.8928 43.1169C15.946 43.1559 16.0547 43.2175 16.1293 43.2504C16.206 43.2833 16.3083 43.3428 16.3573 43.3798C16.4063 43.4189 16.5043 43.4723 16.5768 43.501C16.6471 43.5277 16.7472 43.5812 16.7962 43.6202C16.8474 43.6613 16.939 43.7106 17.0008 43.7332C17.0626 43.7558 17.1649 43.8133 17.2288 43.8606C17.2906 43.9078 17.3929 43.9633 17.4525 43.9838C17.5122 44.0044 17.6123 44.0598 17.672 44.103C17.7338 44.1482 17.8297 44.1995 17.8872 44.2201C17.9426 44.2406 18.0342 44.294 18.0875 44.3372C18.1429 44.3803 18.2452 44.4379 18.3198 44.4646C18.3922 44.4913 18.4945 44.5488 18.5478 44.5899C18.601 44.631 18.6948 44.6844 18.7566 44.707C18.8184 44.7296 18.9185 44.7851 18.9803 44.8303C19.04 44.8734 19.1423 44.9309 19.2041 44.9535C19.2659 44.9761 19.3575 45.0254 19.4086 45.0665C19.4576 45.1055 19.5557 45.159 19.626 45.1857C19.6963 45.2124 19.7943 45.2678 19.8433 45.3069C19.8923 45.348 19.9903 45.4014 20.0585 45.426C20.1267 45.4507 20.229 45.5062 20.2823 45.5493C20.3377 45.5924 20.4336 45.6479 20.4975 45.6705C20.5614 45.6931 20.6701 45.7527 20.7383 45.802C20.8064 45.8513 20.8981 45.9027 20.9407 45.915C20.9854 45.9294 21.0707 45.9766 21.1303 46.0198C21.19 46.065 21.2987 46.1225 21.369 46.1492C21.4414 46.178 21.5458 46.2355 21.6012 46.2807C21.6566 46.3259 21.7589 46.3813 21.8292 46.406C21.8974 46.4307 21.9933 46.482 22.0402 46.5211C22.0871 46.5601 22.1787 46.6114 22.2448 46.634C22.3087 46.6587 22.4173 46.7183 22.4855 46.7676C22.5537 46.8169 22.6453 46.8682 22.688 46.8826C22.7327 46.895 22.8243 46.9463 22.8925 46.9956C22.9586 47.0429 23.0694 47.1025 23.1354 47.1271C23.2015 47.1497 23.2995 47.2052 23.3528 47.2483C23.406 47.2915 23.4998 47.3428 23.5573 47.3634C23.617 47.3839 23.7171 47.4394 23.7811 47.4866C23.845 47.5339 23.9451 47.5873 24.0005 47.6058C24.0581 47.6243 24.1604 47.6818 24.2307 47.7311C24.301 47.7825 24.3969 47.8359 24.4416 47.8482C24.4864 47.8626 24.5716 47.9098 24.6313 47.9571C24.6909 48.0044 24.7975 48.0639 24.8678 48.0886C24.9402 48.1132 25.0425 48.1687 25.0979 48.2118C25.1533 48.255 25.2471 48.3084 25.3046 48.329C25.3643 48.3474 25.4644 48.4029 25.5283 48.4522C25.5923 48.4995 25.6924 48.5529 25.7478 48.5714C25.8032 48.5899 25.8991 48.6412 25.9588 48.6885C26.0184 48.7337 26.1143 48.7871 26.1719 48.8076C26.2315 48.8261 26.3253 48.8816 26.3807 48.9268C26.4425 48.9761 26.5405 49.0295 26.6129 49.0542C26.6854 49.0768 26.7877 49.1322 26.8431 49.1774C26.9006 49.2206 26.9944 49.274 27.0519 49.2945C27.1115 49.3151 27.2032 49.3664 27.2586 49.4116C27.314 49.4548 27.412 49.5082 27.4759 49.5308C27.5377 49.5513 27.6464 49.6089 27.7146 49.6602C27.7849 49.7095 27.8872 49.7671 27.9447 49.7855C28.0001 49.802 28.0875 49.8533 28.1365 49.8965C28.1919 49.9458 28.2771 49.993 28.3581 50.0198C28.4327 50.0424 28.5349 50.0978 28.5903 50.1451C28.6479 50.1903 28.7416 50.2437 28.8013 50.2663C28.861 50.2868 28.959 50.3444 29.0208 50.3895C29.0826 50.4368 29.1763 50.4861 29.2253 50.4984C29.2765 50.5108 29.3553 50.5518 29.4001 50.5868C29.4874 50.6587 29.5407 50.6895 29.7261 50.7717C29.79 50.8004 29.8752 50.8436 29.9114 50.8682C29.9903 50.9155 30.0372 50.9093 30.1267 50.8354C30.1608 50.8087 30.2332 50.7696 30.2886 50.747C30.3461 50.7265 30.4505 50.6669 30.5209 50.6176C30.5933 50.5662 30.6935 50.5128 30.7403 50.5005C30.7893 50.4861 30.8852 50.4347 30.9513 50.3834C31.0195 50.3341 31.1218 50.2766 31.1814 50.2581C31.2411 50.2396 31.3391 50.1841 31.4009 50.1369C31.4627 50.0875 31.5607 50.0341 31.6204 50.0136C31.68 49.9951 31.7738 49.9437 31.8271 49.9006C31.8825 49.8575 31.9826 49.802 32.0487 49.7794C32.1168 49.7547 32.2191 49.6993 32.2745 49.6541C32.3321 49.6089 32.4216 49.5575 32.477 49.5411C32.5324 49.5226 32.6304 49.4671 32.6964 49.4178C32.7625 49.3685 32.8648 49.313 32.9223 49.2945C32.982 49.276 33.0778 49.2247 33.1354 49.1795C33.1929 49.1363 33.2973 49.0788 33.3634 49.0562C33.4316 49.0316 33.5317 48.9761 33.585 48.933C33.6404 48.8898 33.7341 48.8364 33.7938 48.8138C33.8556 48.7912 33.9557 48.7357 34.0175 48.6905C34.0793 48.6433 34.1774 48.5899 34.2349 48.5714C34.2924 48.5529 34.3926 48.4995 34.4565 48.4522C34.5204 48.4029 34.6206 48.3474 34.6781 48.3269C34.7335 48.3084 34.8336 48.2509 34.8997 48.2016C34.9636 48.1523 35.051 48.105 35.0893 48.0947C35.181 48.0701 35.328 47.9879 35.3813 47.9304C35.4026 47.9078 35.4686 47.8729 35.5304 47.8544C35.6434 47.8195 35.7286 47.7701 35.8202 47.69C35.85 47.6654 35.9268 47.6243 35.9907 47.6017C36.0546 47.5791 36.1526 47.5236 36.208 47.4784C36.2656 47.4353 36.3678 47.3798 36.4382 47.3552C36.5149 47.3305 36.6065 47.2812 36.6662 47.2319C36.7194 47.1846 36.7748 47.1477 36.7876 47.1477C36.8345 47.1477 37.0284 47.049 37.1008 46.9895C37.1413 46.9545 37.2308 46.9052 37.3011 46.8765C37.3715 46.8498 37.4823 46.7902 37.5462 46.7429C37.6101 46.6977 37.7103 46.6464 37.7657 46.6279C37.8211 46.6094 37.9063 46.5621 37.9553 46.5231C38.0043 46.482 38.1002 46.4286 38.1684 46.4039C38.2366 46.3772 38.3431 46.3177 38.4049 46.2684C38.4646 46.2211 38.5242 46.1821 38.537 46.1821C38.5818 46.1821 38.7906 46.0752 38.8566 46.0198C38.895 45.9869 38.9738 45.9438 39.0292 45.9253C39.0868 45.9047 39.1954 45.8431 39.2721 45.7917C39.3489 45.7383 39.449 45.6828 39.4959 45.6685C39.5428 45.6541 39.6301 45.6068 39.6898 45.5637C39.7495 45.5185 39.8603 45.4589 39.9327 45.4301C40.0073 45.4014 40.1074 45.3459 40.1543 45.3089C40.2033 45.272 40.3077 45.2124 40.3866 45.1795C40.4654 45.1446 40.5698 45.0829 40.6167 45.046C40.6636 45.0069 40.7424 44.9638 40.7936 44.9494C40.8447 44.9371 40.9342 44.8898 40.9939 44.8467C41.1153 44.7563 41.1963 44.7152 41.2773 44.6967C41.3071 44.6885 41.3817 44.6454 41.4413 44.6002C41.501 44.5529 41.6097 44.4933 41.68 44.4646C41.7524 44.4358 41.859 44.3783 41.9165 44.3331C41.974 44.2899 42.0678 44.2386 42.1274 44.2201C42.185 44.2016 42.2787 44.1502 42.3341 44.105C42.3917 44.0598 42.4833 44.0085 42.5387 43.9879C42.5941 43.9694 42.6964 43.914 42.7624 43.8647C42.8285 43.8174 42.9372 43.7578 43.0011 43.7352C43.065 43.7126 43.1588 43.6613 43.2099 43.6202C43.2589 43.5812 43.3591 43.5277 43.4294 43.501C43.5018 43.4723 43.5998 43.4189 43.6489 43.3798C43.6979 43.3428 43.8023 43.2833 43.879 43.2483C43.9578 43.2134 44.0601 43.1579 44.1049 43.123C44.1496 43.086 44.2391 43.0388 44.303 43.0162C44.3669 42.9936 44.4671 42.9381 44.5246 42.895C44.5843 42.8518 44.6823 42.7964 44.7462 42.7717C44.8102 42.7491 44.9082 42.6916 44.9657 42.6484C45.0232 42.6053 45.1191 42.5539 45.1809 42.5354C45.3237 42.4903 45.6902 42.2807 45.6795 42.2499C45.6731 42.2334 45.3407 42.2252 44.4437 42.217L43.2142 42.2067L43.1566 42.1492L43.097 42.0937L43.0906 41.0686C43.0884 40.4338 43.0927 40.0249 43.1055 39.9921C43.1183 39.9633 43.1524 39.9222 43.1865 39.9017C43.2397 39.8667 43.342 39.8626 44.5246 39.8503C45.2278 39.8441 45.8287 39.8359 45.8628 39.8318C45.9054 39.8298 45.9203 39.8174 45.9203 39.7846C45.9182 39.7599 45.9246 36.366 45.9331 32.2407C45.9416 28.1133 45.9416 24.705 45.9331 24.6639C45.9224 24.6085 45.9075 24.59 45.8756 24.59C45.818 24.59 45.4473 24.4174 45.4089 24.3722C45.3919 24.3537 45.3002 24.3023 45.2065 24.2613C45.1127 24.2202 45.0062 24.1606 44.9678 24.1298C44.9316 24.099 44.84 24.0476 44.7654 24.0168C44.6908 23.9839 44.5885 23.9264 44.5374 23.8915C44.4841 23.8545 44.3883 23.8011 44.3243 23.7723C44.2583 23.7435 44.1581 23.686 44.0985 23.6449C44.0409 23.6018 43.9365 23.5443 43.8683 23.5155C43.8001 23.4847 43.7064 23.4333 43.6616 23.3984C43.6169 23.3635 43.5295 23.3162 43.4656 23.2916C43.4038 23.2669 43.3037 23.2135 43.2461 23.1704C43.1865 23.1272 43.0799 23.0676 43.0117 23.0368C42.9414 23.0081 42.8413 22.9526 42.788 22.9156C42.7347 22.8786 42.6367 22.8232 42.5685 22.7944C42.5003 22.7656 42.4066 22.7143 42.3618 22.6793C42.3171 22.6444 42.2169 22.589 42.1424 22.5561C42.0678 22.5232 41.9762 22.4718 41.9399 22.4431C41.9037 22.4143 41.8057 22.3609 41.7183 22.3219C41.6331 22.2849 41.5329 22.2294 41.4967 22.2007C41.4349 22.1493 41.2325 22.0425 41.2005 22.0425C41.1941 22.0425 41.1281 22.0034 41.0556 21.9541C40.9832 21.9048 40.8809 21.8473 40.8276 21.8268C40.7744 21.8062 40.6955 21.7631 40.6508 21.7302C40.6082 21.6973 40.5016 21.6377 40.4164 21.5967C40.3333 21.5556 40.2289 21.498 40.1863 21.4652C40.1458 21.4344 40.0392 21.3768 39.9519 21.3378C39.8645 21.2988 39.7644 21.2433 39.7281 21.2145C39.6898 21.1837 39.6003 21.1324 39.5257 21.1015C39.4511 21.0687 39.3595 21.0173 39.3212 20.9865C39.2849 20.9577 39.1848 20.9023 39.0974 20.8632C39.0122 20.8262 38.912 20.7708 38.8779 20.7441C38.8417 20.7153 38.7437 20.6598 38.6606 20.6187C38.5754 20.5777 38.4688 20.5181 38.4262 20.4832C38.3815 20.4503 38.2941 20.403 38.2302 20.3784C38.1684 20.3558 38.0576 20.2962 37.9851 20.2469C37.9148 20.1996 37.8211 20.1462 37.7806 20.1318C37.7401 20.1175 37.6549 20.0682 37.5931 20.025C37.5313 19.9798 37.4183 19.9182 37.3395 19.8833C37.2628 19.8504 37.1712 19.799 37.1349 19.7703C37.1008 19.7415 37.0071 19.6901 36.9304 19.6573C36.8537 19.6244 36.7535 19.5689 36.7109 19.534C36.6662 19.5011 36.566 19.4457 36.4893 19.4107C36.4105 19.3779 36.3018 19.3183 36.2464 19.2793C36.191 19.2402 36.0994 19.1889 36.0418 19.1663C35.9843 19.1416 35.8905 19.0882 35.8309 19.0451C35.7733 19.0019 35.6711 18.9464 35.6071 18.9218C35.5432 18.8951 35.4431 18.8396 35.3834 18.7985C35.3259 18.7574 35.2236 18.6999 35.1597 18.6732C35.0957 18.6444 34.9998 18.591 34.9466 18.554C34.8933 18.515 34.7846 18.4534 34.7015 18.4143C34.6206 18.3753 34.514 18.3178 34.4671 18.2849C34.4203 18.25 34.3393 18.2089 34.286 18.1884C34.2328 18.1699 34.1497 18.1226 34.1006 18.0836C34.0516 18.0466 33.9472 17.987 33.8684 17.9541C33.7917 17.9192 33.6979 17.8679 33.6596 17.8391C33.6233 17.8083 33.5232 17.7528 33.438 17.7158C33.3506 17.6768 33.2504 17.6213 33.2142 17.5926C33.1759 17.5618 33.0778 17.5063 32.9969 17.4714C32.9138 17.4344 32.8158 17.381 32.7795 17.3501C32.7433 17.3193 32.6474 17.2659 32.5665 17.231C32.4876 17.1961 32.3939 17.1468 32.3598 17.118C32.3257 17.0913 32.2213 17.0297 32.1254 16.9845C32.0316 16.9393 31.9208 16.8756 31.8803 16.8448C31.8377 16.8119 31.7503 16.7667 31.6864 16.74C31.6225 16.7153 31.5224 16.6599 31.4627 16.6188C31.4052 16.5777 31.3007 16.5202 31.2326 16.4893C31.1644 16.4585 31.077 16.4092 31.0408 16.3805C31.0024 16.3496 30.9023 16.2942 30.817 16.2551C30.7318 16.2182 30.6253 16.1606 30.5827 16.1278C30.54 16.0949 30.442 16.0374 30.3653 16.0024C30.2886 15.9675 30.2055 15.9223 30.1778 15.8997C30.116 15.8504 30.1011 15.7826 30.148 15.7559C30.1735 15.7415 30.1309 15.7374 30.0031 15.7374C29.9029 15.7395 29.839 15.7436 29.8603 15.7497ZM30.2758 22.2726C30.312 22.2993 30.3802 22.3486 30.4292 22.3856C30.4782 22.4225 30.5677 22.4657 30.6295 22.4821C30.6956 22.5006 30.7808 22.5458 30.8362 22.5931C30.8874 22.6362 30.9854 22.6937 31.0536 22.7204C31.1218 22.7471 31.2155 22.7985 31.2624 22.8355C31.3093 22.8725 31.4009 22.9218 31.4669 22.9464C31.5309 22.969 31.6289 23.0245 31.68 23.0697C31.7397 23.119 31.8292 23.1662 31.9144 23.195C32.0039 23.2238 32.0891 23.269 32.1552 23.3265C32.2234 23.3861 32.3001 23.4272 32.3789 23.4477C32.4471 23.4682 32.5302 23.5114 32.5771 23.5504C32.6623 23.6244 32.7518 23.6737 32.8392 23.6922C32.8712 23.7004 32.9415 23.7435 32.999 23.7887C33.0587 23.836 33.1609 23.8894 33.2355 23.9141C33.3101 23.9367 33.4081 23.988 33.455 24.025C33.5019 24.064 33.5956 24.1133 33.6638 24.138C33.8364 24.1976 33.8833 24.2243 33.9195 24.2777C33.9579 24.3352 34.0751 24.3948 34.1859 24.4133C34.2391 24.4236 34.3052 24.4605 34.3798 24.5263C34.4544 24.592 34.5247 24.6331 34.5886 24.6475C34.6419 24.6619 34.7356 24.7091 34.7974 24.7564C34.8571 24.8016 34.9508 24.8591 35.0041 24.8817C35.0574 24.9043 35.1341 24.9515 35.1767 24.9885C35.2726 25.0707 35.3237 25.0974 35.4558 25.1364C35.5112 25.1508 35.5858 25.1919 35.6199 25.2268C35.6924 25.3008 35.801 25.3604 35.9012 25.3809C35.9417 25.3891 36.0248 25.4364 36.0887 25.4857C36.1526 25.535 36.2549 25.5946 36.3167 25.6172C36.3764 25.6398 36.4786 25.6932 36.5383 25.7384C36.6001 25.7836 36.6981 25.835 36.7535 25.8514C36.811 25.8699 36.9069 25.9254 36.9666 25.9767C37.0369 26.0342 37.12 26.0774 37.1946 26.1C37.2713 26.1205 37.348 26.1637 37.4162 26.2212C37.4865 26.2828 37.5611 26.3239 37.6421 26.3445C37.7103 26.365 37.7934 26.4081 37.8402 26.4472C37.8829 26.4842 37.9702 26.5396 38.0299 26.5704C38.0917 26.5992 38.1599 26.6485 38.179 26.6793C38.2153 26.7327 38.2174 26.9711 38.2238 31.2422C38.228 35.7414 38.228 35.7497 38.1854 35.8175C38.162 35.8544 38.13 35.8894 38.1151 35.8955C38.1023 35.9017 38.0256 35.951 37.9489 36.0065C37.8722 36.0619 37.7699 36.1195 37.7209 36.1338C37.674 36.1503 37.5845 36.1996 37.5227 36.2448C37.4588 36.29 37.3501 36.3495 37.282 36.3783C37.2116 36.405 37.1136 36.4584 37.0646 36.4975C37.0156 36.5365 36.9155 36.592 36.8409 36.6207C36.7684 36.6495 36.6683 36.705 36.6214 36.7419C36.5724 36.7789 36.4808 36.8303 36.4168 36.8549C36.3529 36.8796 36.2528 36.9351 36.1931 36.9782C36.1356 37.0213 36.029 37.0809 35.9587 37.1117C35.8884 37.1405 35.7968 37.1919 35.7542 37.2247C35.7115 37.2556 35.6135 37.311 35.5347 37.3459C35.4558 37.3809 35.36 37.4322 35.3237 37.4631C35.2875 37.4939 35.1895 37.5473 35.1064 37.5843C35.0254 37.6212 34.9338 37.6767 34.904 37.7075C34.8741 37.7383 34.7932 37.7897 34.7228 37.8205C34.6525 37.8513 34.5481 37.913 34.4948 37.9602C34.4394 38.0054 34.3478 38.0568 34.2903 38.0753C34.2328 38.0938 34.1475 38.141 34.1028 38.178C34.0005 38.2602 33.9494 38.2889 33.8215 38.3239C33.7576 38.3424 33.6894 38.3834 33.6361 38.4369C33.5722 38.4985 33.5168 38.5293 33.4124 38.5601C33.308 38.5909 33.2526 38.6218 33.1887 38.6834C33.1354 38.7368 33.0672 38.7779 33.0054 38.7943C32.8733 38.8334 32.7944 38.8744 32.7327 38.9381C32.705 38.9669 32.6176 39.0141 32.5387 39.0429C32.4599 39.0717 32.3725 39.1189 32.3448 39.1477C32.2852 39.2114 32.1765 39.2668 32.0593 39.2977C32.006 39.31 31.94 39.3531 31.8888 39.4024C31.8249 39.4641 31.7695 39.4949 31.6651 39.5257C31.5607 39.5565 31.5053 39.5873 31.4414 39.649C31.386 39.7044 31.3178 39.7435 31.2304 39.7722C31.1537 39.7969 31.0514 39.8503 30.9854 39.9037C30.9215 39.9551 30.8298 40.0044 30.7808 40.0167C30.7254 40.029 30.6423 40.0763 30.5763 40.1318C30.5038 40.1913 30.4207 40.2386 30.3504 40.2571C30.2907 40.2735 30.2183 40.3043 30.1906 40.3249C30.0372 40.4399 29.9583 40.444 29.8305 40.3372C29.7964 40.3105 29.7175 40.2756 29.6557 40.2571C29.5918 40.2386 29.4895 40.1852 29.4192 40.1318C29.351 40.0825 29.2594 40.0311 29.2168 40.0188C29.1444 40.0003 29.0101 39.9202 28.9824 39.877C28.9654 39.8524 28.8098 39.7805 28.7352 39.764C28.7011 39.7558 28.6287 39.7085 28.5733 39.6592C28.5094 39.6017 28.4348 39.5586 28.3666 39.5401C28.226 39.499 28.1919 39.4805 28.1024 39.3942C28.0555 39.349 27.9873 39.312 27.9085 39.2894C27.8382 39.2689 27.7465 39.2237 27.6869 39.1744C27.6315 39.1292 27.5335 39.0737 27.4695 39.0511C27.4056 39.0285 27.3161 38.9772 27.2714 38.9381C27.1883 38.8662 27.1563 38.8498 26.9262 38.7656C26.8026 38.7183 26.8004 38.7183 26.7706 38.7573C26.745 38.7882 26.7408 38.8416 26.7514 39.0121C26.7578 39.1313 26.7642 39.8585 26.7664 40.6289C26.7685 41.9869 26.7664 42.0301 26.7259 42.1225C26.6641 42.256 26.5213 42.3834 26.3807 42.4286C26.3168 42.4512 26.2102 42.5067 26.1442 42.556C26.0781 42.6032 26.0014 42.6505 25.9737 42.6587C25.8842 42.6854 25.7542 42.7553 25.6669 42.8231C25.62 42.858 25.5369 42.9052 25.4793 42.9237C25.4239 42.9443 25.3238 42.9998 25.2556 43.047C25.1895 43.0963 25.0894 43.1497 25.0361 43.1662C24.9829 43.1846 24.8806 43.2401 24.8124 43.2894C24.7442 43.3408 24.6398 43.3983 24.5801 43.4189C24.5226 43.4394 24.4288 43.4908 24.3756 43.5339C24.3223 43.577 24.2264 43.6305 24.1604 43.6551C24.0964 43.6777 23.9878 43.7373 23.9196 43.7887C23.8535 43.84 23.7832 43.8811 23.7662 43.8811C23.7214 43.8811 23.6127 43.9386 23.4934 44.0249C23.4359 44.0681 23.34 44.1194 23.2803 44.1379C23.2228 44.1564 23.129 44.2078 23.0736 44.253C23.0204 44.2961 22.9202 44.3516 22.8499 44.3762C22.7817 44.4009 22.6816 44.4563 22.6262 44.4995C22.5729 44.5426 22.4749 44.5981 22.4088 44.6207C22.3406 44.6454 22.249 44.7029 22.1915 44.7563C22.0999 44.8385 22.0807 44.8467 21.9827 44.8467C21.8484 44.8467 21.7866 44.8097 21.7589 44.7111C21.7461 44.6638 21.7461 41.5267 21.7589 35.688C21.7781 28.1524 21.7866 26.7307 21.8101 26.6834C21.8271 26.6526 21.8846 26.6095 21.9422 26.5828C21.9976 26.5581 22.0849 26.5006 22.1382 26.4575C22.1893 26.4143 22.2703 26.3671 22.3193 26.3547C22.445 26.3219 22.5218 26.2808 22.624 26.1904C22.6752 26.1452 22.7327 26.1103 22.7519 26.1103C22.8158 26.1082 22.9735 26.0301 23.0566 25.9582C23.0992 25.9212 23.1823 25.874 23.2398 25.8534C23.2974 25.8329 23.3975 25.7795 23.4614 25.7322C23.5254 25.687 23.6149 25.6377 23.6617 25.6234C23.7832 25.5823 23.8258 25.5576 23.9004 25.4898C23.9388 25.4569 24.0325 25.4056 24.1114 25.3789C24.2008 25.3481 24.2946 25.2946 24.3564 25.2412C24.4246 25.1816 24.4928 25.1447 24.5673 25.1262C24.6398 25.1097 24.7144 25.0707 24.7783 25.0152C24.8337 24.97 24.9211 24.9146 24.9743 24.892C25.0276 24.8694 25.1086 24.8221 25.1555 24.7851C25.2513 24.7112 25.3408 24.6639 25.4261 24.6434C25.458 24.6372 25.5369 24.5859 25.6029 24.5283C25.6988 24.4503 25.75 24.4236 25.8437 24.403C25.9375 24.3845 25.9843 24.3599 26.0696 24.2818C26.1484 24.2099 26.2123 24.175 26.2997 24.1503C26.3679 24.1318 26.4553 24.0907 26.4915 24.0599C26.5895 23.9798 26.6556 23.9449 26.7578 23.9161C26.8068 23.9017 26.8963 23.8545 26.9603 23.8093C27.0221 23.7641 27.1243 23.7086 27.1861 23.686C27.2501 23.6634 27.3523 23.6038 27.4163 23.5545C27.4802 23.5032 27.5633 23.4559 27.5995 23.4498C27.7018 23.4272 27.787 23.382 27.885 23.2957C27.934 23.2525 28.0044 23.2114 28.0448 23.2032C28.145 23.1827 28.2324 23.1375 28.324 23.0574C28.3666 23.0204 28.4518 22.9731 28.5115 22.9526C28.5712 22.932 28.6756 22.8766 28.7416 22.8273C28.8077 22.78 28.8865 22.7348 28.9164 22.7266C29.0037 22.7061 29.0911 22.6567 29.1891 22.5746C29.2488 22.5253 29.3191 22.4883 29.3894 22.4718C29.464 22.4554 29.5279 22.4225 29.5876 22.3691C29.7282 22.2438 29.7772 22.2274 30.0052 22.2274C30.1842 22.2274 30.2183 22.2335 30.2758 22.2726Z" fill="white"/>
<path d="M29.818 27.7632C29.7711 27.8022 29.6688 27.8618 29.59 27.8967C29.509 27.9296 29.4089 27.985 29.3663 28.0179C29.3237 28.0508 29.2214 28.1083 29.1383 28.1432C29.0573 28.1802 28.9657 28.2316 28.9358 28.2583C28.906 28.285 28.8101 28.3384 28.7228 28.3774C28.6354 28.4144 28.5331 28.4719 28.4948 28.5027C28.4564 28.5336 28.3669 28.5808 28.2945 28.6096C28.2199 28.6383 28.1219 28.6938 28.075 28.7308C28.026 28.7678 27.9216 28.8273 27.8385 28.8623C27.7575 28.8993 27.6552 28.9547 27.6126 28.9876C27.57 29.0184 27.472 29.0739 27.3931 29.1088C27.3143 29.1437 27.2205 29.1951 27.1843 29.2239C27.1481 29.2526 27.0692 29.3019 27.0096 29.3307C26.9499 29.3594 26.8775 29.4026 26.8519 29.4272C26.7304 29.532 26.7368 29.4457 26.739 31.2886C26.739 32.2233 26.7454 33.002 26.7539 33.0204C26.7752 33.0759 27.0969 33.3019 27.2184 33.3471C27.2781 33.3718 27.3612 33.4149 27.4017 33.4457C27.4954 33.5135 27.5764 33.5567 27.7021 33.608C27.7554 33.6286 27.8342 33.6758 27.8726 33.7087C27.9131 33.7436 28.0111 33.797 28.0899 33.8278C28.1709 33.8587 28.2732 33.9162 28.3179 33.9552C28.3648 33.9922 28.4628 34.0477 28.5353 34.0764C28.6098 34.1052 28.7036 34.1545 28.7483 34.1874C28.791 34.2223 28.8911 34.2757 28.9699 34.3106C29.0488 34.3456 29.1468 34.401 29.1894 34.4318C29.232 34.4647 29.3279 34.5181 29.4046 34.553C29.4813 34.5859 29.5815 34.6414 29.6284 34.6784C29.7456 34.7688 29.8372 34.8016 29.9714 34.8016C30.1057 34.8016 30.1675 34.779 30.3124 34.6743C30.372 34.6311 30.4615 34.5839 30.5105 34.5654C30.5617 34.5489 30.6618 34.4935 30.7364 34.4442C30.8088 34.3928 30.9175 34.3332 30.975 34.3127C31.0326 34.2921 31.1327 34.2367 31.1966 34.1915C31.2606 34.1463 31.3607 34.0908 31.4225 34.0661C31.4822 34.0436 31.5845 33.9881 31.6463 33.9429C31.708 33.8997 31.8039 33.8484 31.8593 33.8278C31.9147 33.8093 32.0021 33.76 32.0575 33.721C32.1108 33.6799 32.2088 33.6244 32.277 33.5957C32.343 33.5669 32.4432 33.5135 32.4964 33.4745C32.5497 33.4375 32.6563 33.38 32.7308 33.3471C32.8054 33.3142 32.897 33.2649 32.9311 33.2362C32.9674 33.2095 33.0483 33.156 33.1144 33.1211C33.1804 33.0841 33.2465 33.043 33.2593 33.0266C33.2763 33.0061 33.2827 32.5418 33.2785 31.2742L33.2721 29.5485L33.2145 29.4765C33.1804 29.4334 33.1059 29.382 33.0334 29.3492C32.9652 29.3184 32.8736 29.2649 32.831 29.2321C32.7884 29.1992 32.6818 29.1417 32.5966 29.1047C32.5114 29.0657 32.4112 29.0102 32.3729 28.9794C32.3366 28.9506 32.2365 28.8951 32.1491 28.8561C32.0639 28.8191 31.9616 28.7637 31.9254 28.7328C31.8892 28.702 31.7933 28.6486 31.7123 28.6137C31.6335 28.5808 31.5333 28.5253 31.4907 28.4925C31.4481 28.4596 31.3479 28.4041 31.267 28.3692C31.186 28.3363 31.0965 28.285 31.0667 28.2583C31.0368 28.2316 30.9409 28.1781 30.8536 28.1391C30.7641 28.1001 30.6618 28.0446 30.6256 28.0138C30.5894 27.983 30.4935 27.9316 30.4146 27.8967C30.3337 27.8618 30.2293 27.8022 30.1802 27.7632C30.0567 27.6645 29.9373 27.6645 29.818 27.7632Z" fill="white"/>
</svg>
