<svg width="154" height="35" viewBox="0 0 154 35" fill="none" xmlns="http://www.w3.org/2000/svg">
<path d="M38.4216 17.4881V26.1481H40.3253H42.229V24.4108V22.6735H44.2959C46.3376 22.6735 46.6153 22.6664 47.0854 22.6118C48.4763 22.4442 49.8303 21.8974 50.9453 21.0544C52.2876 20.0367 53.2336 18.5639 53.5464 17.0118C53.5736 16.8707 53.6008 16.7526 53.6047 16.7491C53.6085 16.7455 53.6124 18.8585 53.6124 21.4442V26.1481H55.0499H56.4874V18.9872V11.8264H55.0499H53.6124L53.6105 13.3027C53.6085 14.1158 53.6008 14.7525 53.593 14.719C53.5833 14.6855 53.558 14.5655 53.5347 14.4544C53.3113 13.3609 52.748 12.2691 51.9341 11.359C51.6893 11.0874 51.126 10.5812 50.8151 10.3555C49.6749 9.53002 48.4433 9.05557 46.9592 8.86862C46.7494 8.84216 46.3201 8.83863 42.5748 8.83334L38.4216 8.82629V17.4881ZM46.4269 12.3026C47.3224 12.3855 48.1597 12.7559 48.7852 13.345C49.3854 13.9112 49.7526 14.6255 49.8458 15.4157C49.8885 15.7755 49.8478 16.2464 49.7448 16.615C49.6438 16.973 49.4379 17.3893 49.2048 17.7032C48.6939 18.3911 47.8722 18.9202 47.0097 19.1195C46.5396 19.2271 46.6445 19.2236 44.3425 19.2289L42.229 19.2359V15.7596V12.285H44.2279C45.4789 12.285 46.3026 12.2921 46.4269 12.3026Z" fill="white"/>
<path d="M87.9274 10.8669C87.1717 10.9463 86.6958 11.0715 86.078 11.3573C85.134 11.7929 84.3764 12.4737 83.8946 13.315C83.4925 14.0188 83.3332 14.6414 83.3332 15.5074V15.9007H82.6339H81.9346V17.197V18.4934H82.6339H83.3332V22.3207V26.1481H84.761H86.1888L86.1927 22.3243L86.1985 18.5022L87.9623 18.4969L89.7242 18.4934V17.197V15.9007H87.9526H86.1829L86.1946 15.525C86.2024 15.3204 86.2199 15.0947 86.2354 15.0259C86.3927 14.3151 86.9503 13.7471 87.6981 13.5373C87.9895 13.4561 88.108 13.4491 89.3513 13.4491H90.5207V12.1527V10.8564L89.2541 10.8581C88.5567 10.8599 87.9604 10.8652 87.9274 10.8669Z" fill="white"/>
<path d="M73.2922 13.8724V15.9183H72.5929H71.8936V17.2147V18.511H72.5909H73.2903L73.298 20.2519C73.3039 21.9309 73.3058 22.0033 73.3466 22.229C73.5253 23.2361 74.0012 24.0898 74.7783 24.7953C75.1842 25.1621 75.5864 25.4249 76.1089 25.6613C76.7538 25.9523 77.3113 26.0881 78.034 26.1287C78.2088 26.1393 78.8401 26.1481 79.4365 26.1481H80.5185V24.8517V23.5554H79.3685C78.7352 23.5554 78.1505 23.5465 78.0709 23.5377C77.7387 23.4989 77.3755 23.3737 77.0977 23.2026C76.7228 22.9698 76.41 22.5941 76.2643 22.2026C76.1497 21.8869 76.1478 21.8516 76.1516 20.1055L76.1575 18.5199L78.339 18.5146L80.5185 18.511V17.2147V15.9183H78.3331H76.1478V13.8724V11.8264H74.72H73.2922V13.8724Z" fill="white"/>
<path d="M63.7527 15.5318C62.0257 15.6694 60.4736 16.4966 59.5354 17.7788C59.0051 18.502 58.6884 19.3045 58.5621 20.2393C58.5233 20.5268 58.5291 21.4386 58.5719 21.7473C58.6437 22.2605 58.7758 22.7491 58.9468 23.1442C59.6577 24.7827 61.0933 25.8674 63.0145 26.2184C63.5817 26.3224 64.3413 26.356 64.8347 26.2978C65.6369 26.2025 66.5655 25.8621 67.3367 25.3753C67.529 25.2554 67.935 24.9679 68.102 24.8356C68.17 24.7827 68.2322 24.7421 68.24 24.7457C68.2477 24.7492 68.5022 25.0667 68.8052 25.4494L69.3569 26.1461L69.7027 26.1478H70.0465V21.033V15.9181H69.7027H69.3569L68.7975 16.5266L68.238 17.1368L68.1273 17.0469C67.292 16.3696 66.4295 15.9146 65.5456 15.6817C64.9706 15.5301 64.384 15.4824 63.7527 15.5318ZM64.755 18.1845C65.5728 18.3256 66.3712 18.8953 66.7908 19.6378C66.9346 19.8936 67.0375 20.1476 67.0977 20.4051C67.156 20.6467 67.1599 21.1882 67.1075 21.4298C67.0336 21.7579 66.8569 22.1618 66.6645 22.4422C66.2158 23.0913 65.4738 23.5675 64.7239 23.6892C64.4675 23.7315 64.0266 23.7262 63.7332 23.6803C62.4919 23.4846 61.6566 22.6662 61.4682 21.4598C61.4294 21.2076 61.4294 20.6626 61.4682 20.4086C61.6333 19.3574 62.2938 18.5919 63.2923 18.2903C63.7701 18.1475 64.3121 18.1069 64.755 18.1845Z" fill="white"/>
<path d="M95.9696 15.5297C94.6603 15.6373 93.4462 16.14 92.5079 16.9654C91.5464 17.812 90.9578 18.8879 90.7654 20.1507C90.7227 20.4347 90.7052 21.1102 90.7344 21.4242C90.8529 22.6905 91.422 23.8493 92.3583 24.7347C93.2383 25.5637 94.3786 26.0999 95.651 26.2798C95.9676 26.3256 96.7543 26.3344 97.1079 26.2992C97.8228 26.2251 98.4055 26.0646 99.0563 25.7647C100.42 25.1333 101.424 24.0574 101.923 22.6941C102.38 21.4506 102.318 19.8967 101.762 18.678C101.568 18.2529 101.23 17.7309 100.923 17.3816C100.739 17.1718 100.28 16.7608 100.061 16.6056C99.2408 16.0306 98.3239 15.6867 97.2633 15.5562C97.003 15.5244 96.2279 15.5085 95.9696 15.5297ZM96.7602 18.1577C97.7684 18.2494 98.5765 18.7679 99.0194 19.6057C99.2253 19.9955 99.3166 20.3394 99.336 20.8033C99.371 21.6799 99.0699 22.4295 98.4599 22.9815C97.9704 23.4242 97.3973 23.6606 96.6844 23.7135C96.0628 23.7594 95.48 23.62 94.9322 23.292C94.7049 23.1579 94.3145 22.8016 94.1571 22.5865C93.8483 22.1632 93.6773 21.7028 93.6307 21.1702C93.5686 20.4611 93.7628 19.7645 94.1766 19.2142C94.7419 18.4646 95.7228 18.0642 96.7602 18.1577Z" fill="white"/>
<path d="M147.595 15.5318C145.869 15.6694 144.316 16.4966 143.378 17.7788C142.848 18.502 142.531 19.3045 142.405 20.2393C142.366 20.5268 142.372 21.4386 142.415 21.7473C142.487 22.2605 142.619 22.7491 142.79 23.1442C143.501 24.7827 144.936 25.8674 146.857 26.2184C147.424 26.3224 148.184 26.356 148.677 26.2978C149.48 26.2025 150.408 25.8621 151.179 25.3753C151.372 25.2554 151.778 24.9679 151.945 24.8356C152.013 24.7827 152.075 24.7421 152.083 24.7457C152.091 24.7492 152.345 25.0667 152.648 25.4494L153.2 26.1461L153.546 26.1478H153.889V21.033V15.9181H153.546H153.2L152.64 16.5266L152.081 17.1368L151.97 17.0469C151.135 16.3696 150.272 15.9146 149.388 15.6817C148.813 15.5301 148.227 15.4824 147.595 15.5318ZM148.598 18.1845C149.416 18.3256 150.214 18.8953 150.634 19.6378C150.777 19.8936 150.88 20.1476 150.941 20.4051C150.999 20.6467 151.003 21.1882 150.95 21.4298C150.876 21.7579 150.7 22.1618 150.507 22.4422C150.059 23.0913 149.317 23.5675 148.567 23.6892C148.31 23.7315 147.869 23.7262 147.576 23.6803C146.335 23.4846 145.499 22.6662 145.311 21.4598C145.272 21.2076 145.272 20.6626 145.311 20.4086C145.476 19.3574 146.137 18.5919 147.135 18.2903C147.613 18.1475 148.155 18.1069 148.598 18.1845Z" fill="white"/>
<path d="M129.86 15.7508C129.411 15.8037 128.982 15.9201 128.546 16.1106C128.23 16.2481 128.02 16.3646 127.752 16.5497C127.622 16.6379 127.55 16.6767 127.534 16.6662C127.521 16.6573 127.344 16.481 127.138 16.2746L126.767 15.9007H126.427H126.089V21.0244V26.1481H127.517H128.945L128.949 22.7828L128.954 19.4194L128.999 19.2871C129.143 18.8655 129.492 18.5287 129.926 18.3946C130.052 18.3558 130.126 18.3452 130.318 18.3382C130.613 18.3294 130.784 18.3594 131.019 18.4669C131.334 18.6116 131.538 18.8021 131.688 19.0895C131.824 19.3506 131.82 19.2642 131.82 21.3419C131.82 22.3701 131.825 23.8728 131.833 24.6789L131.845 26.1481H133.271H134.695V22.8181C134.695 19.1883 134.689 19.3859 134.807 19.1319C134.967 18.7844 135.279 18.5181 135.67 18.3911C135.86 18.3311 136.237 18.3153 136.449 18.3611C136.886 18.4528 137.286 18.7615 137.459 19.1372C137.575 19.3894 137.57 19.206 137.57 22.8322V26.1481H138.997H140.425V22.8005C140.425 20.5676 140.417 19.3876 140.404 19.2589C140.278 18.0719 139.569 17.0048 138.473 16.354C138.228 16.2093 137.76 16.0047 137.478 15.9201C136.997 15.7737 136.505 15.712 135.967 15.7296C135.184 15.7561 134.566 15.9219 134.009 16.2605C133.735 16.4245 133.566 16.5674 133.29 16.8619L133.24 16.9148L133.178 16.8443C133.061 16.712 132.702 16.4034 132.542 16.3011C132.15 16.0453 131.618 15.8601 131.023 15.7684C130.761 15.7278 130.139 15.719 129.86 15.7508Z" fill="white"/>
<path d="M104.254 21.0244V26.1481H105.682H107.109V23.2855C107.109 21.5429 107.117 20.3665 107.129 20.2748C107.226 19.5076 107.793 18.8656 108.586 18.6257C108.934 18.5199 108.883 18.5234 110.418 18.5163L111.83 18.5093V17.2129V15.9183H110.534C109.176 15.9183 108.848 15.9307 108.454 15.9906C107.568 16.1247 106.7 16.4915 106.016 17.0189L105.886 17.1177L105.798 17.0083C105.75 16.9466 105.538 16.675 105.326 16.4034L104.94 15.9095L104.598 15.9042L104.254 15.9007V21.0244Z" fill="white"/>
<path d="M113.387 18.8137C113.387 20.5563 113.395 21.8279 113.406 21.9761C113.465 22.7327 113.638 23.3148 113.991 23.9427C114.702 25.2108 115.996 26.0415 117.635 26.2814C117.938 26.3255 118.649 26.3343 118.923 26.299C119.854 26.1756 120.837 25.7311 121.689 25.0485C121.822 24.9427 121.823 24.9409 121.855 24.978C121.872 24.9974 122.088 25.2672 122.332 25.5794L122.779 26.1456L123.125 26.1474H123.469V21.0237V15.9H122.031H120.594L120.59 18.9019L120.584 21.9055L120.532 22.0749C120.39 22.5405 120.166 22.8879 119.805 23.2019C119.339 23.6076 118.809 23.7857 118.226 23.7328C117.692 23.6852 117.262 23.5105 116.919 23.2001C116.615 22.9267 116.413 22.5705 116.297 22.1119L116.254 21.9408L116.248 18.9195L116.241 15.9H114.815H113.387V18.8137Z" fill="white"/>
<path d="M15.6871 0.00617981C15.6781 0.00941658 15.6748 0.0212803 15.6793 0.0363808C15.6871 0.0665798 15.6424 0.102173 15.5439 0.145317C15.507 0.161495 15.4566 0.190617 15.432 0.208954C15.4063 0.228367 15.3526 0.259645 15.3101 0.277983C15.2687 0.295238 15.2161 0.32436 15.1938 0.341618C15.1714 0.358875 15.1177 0.389076 15.0763 0.406332C15.0338 0.424669 14.9834 0.452711 14.9644 0.468891C14.9454 0.485069 14.894 0.513111 14.8503 0.532526C14.8078 0.550861 14.7564 0.579985 14.7373 0.595083C14.7183 0.611263 14.6702 0.638227 14.6322 0.655485C14.593 0.67382 14.5427 0.702942 14.5203 0.7202C14.4968 0.738535 14.4442 0.765499 14.404 0.781677C14.3637 0.796778 14.3111 0.824821 14.2887 0.842079C14.2653 0.860415 14.2104 0.890614 14.1679 0.910028C14.1243 0.929443 14.0728 0.957487 14.0538 0.973665C14.0348 0.988766 13.9822 1.01789 13.9364 1.03838C13.8916 1.05779 13.8379 1.08692 13.8189 1.10309C13.7999 1.11927 13.7495 1.14732 13.707 1.16565C13.6656 1.18291 13.6131 1.21203 13.5907 1.22929C13.5683 1.24655 13.5157 1.27459 13.4743 1.29292C13.433 1.31018 13.3793 1.34146 13.3558 1.36195C13.3312 1.38137 13.283 1.40833 13.2473 1.42127C13.2126 1.43422 13.1656 1.45902 13.1432 1.4752C13.122 1.49246 13.0638 1.5259 13.0146 1.54963C12.9653 1.57335 12.9172 1.6014 12.9083 1.61218C12.8993 1.62189 12.8524 1.64886 12.8031 1.67043C12.7539 1.692 12.698 1.72328 12.6778 1.73946C12.6588 1.75563 12.6085 1.78368 12.566 1.80201C12.5246 1.82035 12.4754 1.84731 12.4563 1.86241C12.4384 1.87751 12.3859 1.90556 12.34 1.92605C12.2941 1.94654 12.2382 1.97674 12.2169 1.99292C12.1946 2.01018 12.1386 2.04146 12.0928 2.06303C12.0469 2.08568 11.9988 2.11264 11.9865 2.12343C11.9742 2.13529 11.9306 2.15794 11.8914 2.17628C11.8511 2.19354 11.7986 2.22374 11.7739 2.24207C11.7493 2.26149 11.6934 2.29277 11.6509 2.31218C11.6073 2.33159 11.5569 2.35964 11.5379 2.37582C11.5178 2.39092 11.4708 2.41788 11.4316 2.43406C11.3925 2.45132 11.3455 2.4772 11.3265 2.4923C11.3086 2.5074 11.2504 2.53976 11.1978 2.56457C11.1452 2.58937 11.0927 2.61958 11.0804 2.63036C11.0681 2.64115 11.0233 2.66595 10.9797 2.68645C10.9372 2.70694 10.879 2.74038 10.851 2.76087C10.8231 2.78136 10.775 2.80725 10.7448 2.81803C10.7134 2.8299 10.6653 2.85471 10.6351 2.8752C10.606 2.89569 10.5512 2.92697 10.5121 2.94531C10.474 2.96364 10.4203 2.99384 10.3924 3.01326C10.3644 3.03159 10.3118 3.06071 10.2749 3.07689C10.238 3.09307 10.1888 3.12004 10.1664 3.13837C10.1429 3.15563 10.0926 3.18367 10.0545 3.20093C10.0154 3.21711 9.96839 3.24407 9.94826 3.26025C9.92924 3.27535 9.8789 3.30339 9.83639 3.32281C9.795 3.34114 9.74242 3.37027 9.72116 3.38644C9.69991 3.4037 9.64397 3.43498 9.59811 3.45655C9.55224 3.47705 9.49966 3.50725 9.48065 3.52234C9.46275 3.53745 9.41464 3.56441 9.37549 3.58167C9.33634 3.59785 9.28935 3.62481 9.26922 3.64099C9.2502 3.65609 9.19762 3.68521 9.15175 3.7057C9.10589 3.7262 9.04995 3.7564 9.02646 3.77473C9.00297 3.79199 8.95487 3.81895 8.91907 3.83405C8.88327 3.84916 8.83069 3.87828 8.80272 3.89877C8.77364 3.91926 8.72106 3.94838 8.68526 3.96348C8.64835 3.97858 8.59353 4.00986 8.56221 4.03359C8.53088 4.05624 8.5018 4.07566 8.49732 4.07566C8.47831 4.07566 8.37651 4.13066 8.33512 4.16194C8.31274 4.18028 8.26576 4.20509 8.2322 4.21695C8.19864 4.22882 8.14718 4.25794 8.11585 4.28059C8.08565 4.30324 8.03083 4.33451 7.99504 4.34962C7.95924 4.36472 7.91337 4.3906 7.89435 4.4057C7.87422 4.42188 7.82612 4.44884 7.78584 4.4661C7.74557 4.48336 7.6874 4.51679 7.65608 4.53944C7.62475 4.56317 7.57777 4.58906 7.55204 4.59877C7.52519 4.6074 7.47932 4.6322 7.45024 4.65269C7.42115 4.67319 7.36746 4.70339 7.33166 4.71849C7.29474 4.73467 7.24104 4.76487 7.20972 4.78644C7.17952 4.80909 7.12582 4.83821 7.09226 4.85223C7.0587 4.86625 7.00836 4.89322 6.98039 4.91263C6.95242 4.93097 6.89761 4.96225 6.85734 4.98166C6.81818 5.00108 6.76225 5.03343 6.7354 5.05285C6.70855 5.07334 6.66828 5.09491 6.64591 5.10138C6.62353 5.10785 6.57767 5.13158 6.54411 5.15531C6.51054 5.17796 6.44566 5.21463 6.3998 5.23513C6.35393 5.2567 6.29799 5.28798 6.27674 5.30416C6.25437 5.32034 6.20403 5.3473 6.16487 5.36348C6.12572 5.37966 6.07538 5.40662 6.053 5.4228C6.03063 5.44006 5.98029 5.4681 5.94002 5.48536C5.89974 5.50369 5.84717 5.53389 5.82255 5.55331C5.79794 5.57164 5.74537 5.60184 5.70509 5.6191C5.66482 5.63744 5.61336 5.66548 5.58987 5.68382C5.5675 5.70215 5.51939 5.72912 5.48359 5.74422C5.44892 5.75932 5.40193 5.7852 5.38068 5.80138C5.35942 5.81756 5.30125 5.851 5.25091 5.87473C5.20169 5.89845 5.1547 5.9265 5.14575 5.9362C5.1368 5.94591 5.08758 5.97288 5.03612 5.9966C4.98466 6.01925 4.92649 6.05053 4.90747 6.06671C4.88845 6.08289 4.837 6.11093 4.79337 6.13035C4.75086 6.14868 4.6994 6.1778 4.68038 6.19291C4.66024 6.20908 4.61102 6.23713 4.56851 6.25546C4.526 6.2738 4.47454 6.30076 4.45441 6.31479C4.43539 6.32989 4.38505 6.35685 4.34254 6.37519C4.30115 6.3946 4.24745 6.4248 4.22284 6.44421C4.19823 6.46363 4.14901 6.48951 4.11433 6.50246C4.07853 6.5154 4.02707 6.54452 3.99798 6.56717C3.9689 6.5909 3.91632 6.62002 3.88276 6.63297C3.84808 6.64591 3.7955 6.67503 3.76418 6.69768C3.73397 6.71925 3.67916 6.75053 3.64336 6.76563C3.60756 6.78073 3.55946 6.8077 3.53709 6.82495C3.51471 6.84221 3.46102 6.87133 3.41739 6.88967C3.37488 6.90908 3.32677 6.93605 3.31111 6.95007C3.29545 6.96409 3.24511 6.99213 3.19924 7.01262C3.15338 7.03312 3.09409 7.06655 3.06836 7.08813C3.04151 7.10862 2.99453 7.1345 2.96432 7.14421C2.933 7.15392 2.88489 7.17873 2.85805 7.19922C2.83008 7.21863 2.77415 7.25207 2.73164 7.27256C2.68913 7.29305 2.6399 7.32218 2.622 7.3362C2.60411 7.35022 2.55712 7.37611 2.51685 7.39228C2.47658 7.40954 2.42624 7.43758 2.40498 7.45484C2.38373 7.47318 2.33115 7.50338 2.2864 7.52279C2.24165 7.54221 2.18348 7.57456 2.15551 7.59506C2.12643 7.61555 2.07609 7.64467 2.04253 7.65977C2.00785 7.67487 1.96086 7.70184 1.93849 7.72017C1.915 7.73743 1.86801 7.76439 1.83221 7.77949C1.79754 7.79459 1.75279 7.82048 1.73153 7.83882C1.71028 7.85607 1.66441 7.88304 1.6275 7.89922C1.59058 7.91432 1.53576 7.94559 1.50444 7.96717C1.47424 7.98982 1.41942 8.02002 1.38362 8.03296C1.34894 8.04698 1.30084 8.07287 1.27735 8.0912C1.25497 8.10846 1.20463 8.13758 1.1666 8.15376C1.12856 8.17102 1.07934 8.19906 1.05809 8.2174C1.03683 8.23573 0.987609 8.26377 0.948456 8.28103C0.91042 8.29829 0.855605 8.32849 0.828756 8.34683C0.801908 8.36624 0.748211 8.39536 0.709057 8.41262C0.668785 8.4288 0.615088 8.46008 0.587121 8.47949C0.559154 8.49998 0.507695 8.52803 0.473015 8.54097C0.437218 8.55499 0.389114 8.5798 0.366741 8.59706C0.323112 8.62941 0.222431 8.68118 0.203413 8.68118C0.19782 8.68118 0.160903 8.70384 0.122868 8.7308C0.0803579 8.761 0.0467975 8.77718 0.0356106 8.77287C0.0266612 8.76963 0.0143557 8.77287 0.00876226 8.78041C-0.00130588 8.79552 -0.00354325 26.221 0.00652489 26.2577C0.0109996 26.275 0.0188304 26.2793 0.0389667 26.275C0.059103 26.2717 0.0814766 26.2836 0.125105 26.3181C0.157547 26.3451 0.212362 26.3774 0.245923 26.3904C0.279483 26.4044 0.33318 26.4335 0.363385 26.4562C0.394708 26.4777 0.447286 26.5068 0.483084 26.5198C0.517763 26.5338 0.565866 26.5597 0.589358 26.5791C0.636343 26.6179 0.683328 26.6438 0.728075 26.6535C0.743737 26.6579 0.790721 26.6848 0.833231 26.715C0.874622 26.7441 0.928319 26.7743 0.951812 26.7819C0.976423 26.7884 1.01558 26.8099 1.04019 26.8304C1.06368 26.8509 1.11961 26.8811 1.16324 26.8984C1.20687 26.9156 1.26392 26.9469 1.28965 26.9674C1.31538 26.9879 1.36349 27.0149 1.39705 27.0278C1.43061 27.0397 1.48319 27.0699 1.51339 27.0925C1.54248 27.1162 1.59617 27.1454 1.63085 27.1572C1.66441 27.1702 1.71028 27.195 1.73265 27.2133C1.75391 27.2317 1.80537 27.2619 1.84564 27.2791C1.88591 27.2964 1.93625 27.3244 1.95863 27.3417C1.981 27.3589 2.0291 27.3859 2.06602 27.4031C2.10294 27.4193 2.15551 27.4506 2.18236 27.4722C2.20921 27.4937 2.26067 27.5218 2.29535 27.5347C2.33115 27.5477 2.38373 27.5768 2.41281 27.6005C2.4419 27.6243 2.49336 27.6534 2.52692 27.6652C2.56048 27.6771 2.61194 27.7051 2.64214 27.7289C2.67235 27.7515 2.72045 27.7796 2.74953 27.7893C2.77862 27.8001 2.82784 27.826 2.85805 27.8486C2.88937 27.8702 2.94195 27.8993 2.97551 27.9133C3.00907 27.9263 3.06053 27.9565 3.08961 27.9791C3.1187 28.0028 3.1724 28.0309 3.20819 28.0427C3.24511 28.0546 3.29545 28.0816 3.32006 28.1021C3.34579 28.1226 3.39837 28.1538 3.43864 28.1711C3.47892 28.1894 3.52814 28.2164 3.54827 28.2337C3.56841 28.2509 3.61763 28.2779 3.6579 28.2941C3.69818 28.3102 3.75076 28.3404 3.77648 28.3598C3.80221 28.3803 3.85144 28.4073 3.88612 28.4192C3.91968 28.4321 3.97002 28.4591 3.99575 28.4796C4.05056 28.5249 4.08636 28.5432 4.1367 28.554C4.15684 28.5572 4.19935 28.5831 4.23067 28.609C4.26199 28.6349 4.31681 28.6662 4.35037 28.6791C4.38505 28.691 4.43315 28.7179 4.45888 28.7373C4.48461 28.7578 4.53383 28.7848 4.56963 28.7988C4.61326 28.815 4.65241 28.8409 4.68597 28.8743C4.77659 28.9671 4.84147 28.9347 4.82805 28.8042C4.81462 28.6791 4.84259 11.5599 4.85601 11.5125C4.87279 11.4531 4.89293 11.4348 4.96788 11.4089C5.00368 11.396 5.0529 11.369 5.07751 11.3485C5.10212 11.3291 5.15582 11.2978 5.19609 11.2795C5.23637 11.2622 5.29342 11.2309 5.3225 11.2115C5.35159 11.1921 5.39969 11.1652 5.4299 11.1522C5.45898 11.1403 5.50149 11.1145 5.52387 11.0961C5.54624 11.0767 5.58651 11.053 5.61448 11.0411C5.69055 11.0109 5.7297 10.9893 5.76103 10.9613C5.77669 10.9473 5.82703 10.9203 5.8729 10.8998C5.91988 10.8793 5.97246 10.8502 5.99148 10.834C6.01161 10.8189 6.05972 10.792 6.09999 10.7747C6.13914 10.7574 6.19396 10.7283 6.22081 10.7089C6.24765 10.6906 6.30247 10.6604 6.34274 10.6431C6.38301 10.6248 6.42776 10.5989 6.44342 10.5849C6.45908 10.5709 6.50943 10.5428 6.55529 10.5223C6.60116 10.5018 6.66045 10.4684 6.68506 10.4479C6.71079 10.4274 6.75554 10.4015 6.78574 10.3907C6.81594 10.3799 6.86517 10.3541 6.89537 10.3336C6.92558 10.312 6.98039 10.2818 7.01731 10.2645C7.05422 10.2473 7.10009 10.2214 7.11911 10.2063C7.13813 10.1901 7.18958 10.1621 7.23433 10.1416C7.27908 10.1222 7.33389 10.092 7.35739 10.0736C7.38088 10.0564 7.4301 10.0283 7.46702 10.0132C7.50393 9.99705 7.55539 9.96793 7.58112 9.94744C7.60685 9.92694 7.65719 9.89782 7.69299 9.88272C7.72879 9.86762 7.78025 9.8385 7.80822 9.81909C7.83618 9.79967 7.88429 9.77271 7.91449 9.75976C7.94581 9.74574 7.99615 9.71662 8.02636 9.69397C8.05768 9.6724 8.10914 9.64436 8.14158 9.63249C8.17403 9.61955 8.22772 9.59043 8.25904 9.56778C8.29149 9.54405 8.34295 9.51493 8.37539 9.50306C8.40783 9.4912 8.4537 9.46639 8.47831 9.44806C8.50292 9.42864 8.55661 9.39844 8.59912 9.3801C8.64052 9.36177 8.68974 9.33588 8.70764 9.32078C8.72554 9.30676 8.78147 9.2744 8.83069 9.25068C8.88103 9.22695 8.93585 9.19459 8.95375 9.18057C8.97165 9.16655 9.01751 9.14066 9.05667 9.1234C9.09582 9.10722 9.14616 9.0781 9.16965 9.05977C9.19315 9.04251 9.24237 9.01447 9.27928 8.99829C9.3162 8.98211 9.36542 8.95514 9.3878 8.93789C9.41017 8.92063 9.46275 8.89151 9.50526 8.87317C9.54665 8.85484 9.59923 8.82679 9.6216 8.80954C9.64286 8.79336 9.69879 8.76316 9.74466 8.74266C9.79052 8.72217 9.8431 8.69305 9.86324 8.67687C9.88225 8.66177 9.92812 8.63589 9.96392 8.62078C9.99972 8.60568 10.0545 8.57441 10.0847 8.55176C10.1161 8.52911 10.1686 8.49998 10.2022 8.48704C10.2358 8.4741 10.2816 8.45037 10.304 8.43311C10.3253 8.41693 10.3812 8.38458 10.4271 8.363C10.4718 8.34035 10.5277 8.30908 10.549 8.2929C10.5702 8.27672 10.6206 8.24975 10.6597 8.23358C10.6989 8.21632 10.7526 8.18504 10.7806 8.16239C10.8074 8.14082 10.8499 8.11709 10.8756 8.10846C10.9003 8.10091 10.9484 8.0761 10.9808 8.05237C11.0144 8.02972 11.0703 7.99845 11.1061 7.98335C11.1408 7.96824 11.19 7.9402 11.2146 7.92079C11.2392 7.90245 11.294 7.87117 11.3354 7.85284C11.3779 7.83342 11.4283 7.80538 11.4473 7.7892C11.4674 7.7741 11.5099 7.74929 11.5435 7.73527C11.5771 7.72125 11.6341 7.68889 11.6721 7.66301C11.7102 7.6382 11.7672 7.60692 11.7997 7.59398C11.8332 7.58104 11.8791 7.55623 11.9026 7.53789C11.9261 7.51956 11.9753 7.49259 12.0111 7.47641C12.0469 7.46131 12.0961 7.43219 12.1219 7.41386C12.1465 7.39444 12.199 7.36532 12.2393 7.34914C12.2785 7.33296 12.3299 7.306 12.3534 7.28874C12.3758 7.2704 12.4239 7.24344 12.4597 7.22834C12.4944 7.21216 12.5537 7.1798 12.5906 7.155C12.6275 7.13019 12.6801 7.10107 12.708 7.09136C12.7349 7.08058 12.7808 7.05577 12.8087 7.03635C12.8367 7.01694 12.8949 6.98458 12.9374 6.96301C12.981 6.94252 13.0336 6.91124 13.056 6.89506C13.0783 6.8778 13.122 6.85407 13.1544 6.84221C13.1868 6.83035 13.2383 6.8023 13.2707 6.77857C13.3032 6.75484 13.358 6.72464 13.3949 6.71062C13.4307 6.6966 13.4855 6.6664 13.518 6.64375C13.5493 6.6211 13.5996 6.59198 13.6287 6.57904C13.6589 6.56717 13.7081 6.53913 13.7372 6.51864C13.7663 6.49814 13.8178 6.4701 13.8513 6.45716C13.8838 6.44421 13.9296 6.41941 13.952 6.40215C13.9755 6.38597 14.0303 6.35469 14.0751 6.33312C14.1198 6.31263 14.1746 6.28135 14.197 6.26409C14.2194 6.24683 14.272 6.21879 14.3134 6.20045C14.3547 6.18212 14.404 6.15516 14.423 6.14005C14.442 6.12495 14.4979 6.0926 14.5472 6.06995C14.5975 6.04622 14.6478 6.0171 14.6601 6.00631C14.6725 5.99553 14.7172 5.9718 14.7586 5.95346C14.8011 5.93513 14.8559 5.90385 14.8794 5.88335C14.904 5.86394 14.9521 5.83698 14.9868 5.82403C15.0215 5.81109 15.0707 5.78412 15.0964 5.76471C15.121 5.74422 15.1759 5.71294 15.2184 5.6946C15.2598 5.67735 15.3135 5.64714 15.3369 5.62881C15.3604 5.61047 15.4085 5.58351 15.4443 5.56841C15.479 5.55331 15.5394 5.51987 15.5775 5.49291C15.6535 5.44114 15.7229 5.42172 15.7923 5.43467C15.8437 5.44329 15.8728 5.45732 15.9466 5.51017C15.978 5.53174 16.0249 5.5587 16.0529 5.56841C16.0809 5.5792 16.129 5.60508 16.1592 5.62665C16.1905 5.64822 16.2476 5.68058 16.2878 5.7C16.3281 5.71833 16.3762 5.74637 16.3941 5.76147C16.4131 5.7755 16.4623 5.80246 16.5037 5.8208C16.5462 5.83913 16.5955 5.86717 16.6145 5.88227C16.6335 5.89845 16.6939 5.93189 16.7476 5.95778C16.8013 5.98474 16.8483 6.01063 16.8528 6.0171C16.8572 6.02357 16.8964 6.04622 16.94 6.06671C16.9848 6.0872 17.0407 6.11956 17.0642 6.1379C17.0888 6.15623 17.1425 6.18536 17.185 6.20261C17.2275 6.21879 17.2835 6.24899 17.3092 6.26841C17.3349 6.2889 17.392 6.32018 17.4345 6.33959C17.4781 6.35901 17.5229 6.38381 17.5352 6.3946C17.5475 6.40646 17.6012 6.43559 17.6526 6.46039C17.7052 6.48412 17.7578 6.51324 17.7701 6.52511C17.7835 6.53589 17.8305 6.56286 17.8752 6.58335C17.92 6.60492 17.9759 6.6362 17.9983 6.65346C18.0207 6.67072 18.071 6.69768 18.109 6.7117C18.1471 6.7268 18.1985 6.75269 18.222 6.77102C18.2455 6.78936 18.2992 6.81956 18.3428 6.84005C18.3854 6.85947 18.4391 6.88967 18.4614 6.90585C18.4838 6.92202 18.5375 6.95222 18.5811 6.97272C18.6248 6.99213 18.6785 7.02341 18.7019 7.04067C18.7243 7.05792 18.7657 7.08058 18.7937 7.09136C18.8216 7.10107 18.8697 7.12696 18.9 7.14745C18.9313 7.16902 18.9917 7.20246 19.0342 7.22295C19.0778 7.24236 19.1248 7.2704 19.1405 7.28443C19.1561 7.29845 19.202 7.32541 19.2445 7.34375C19.2859 7.36208 19.353 7.39876 19.3933 7.42464C19.4336 7.45161 19.4727 7.47318 19.4817 7.47318C19.4906 7.47318 19.5309 7.49583 19.5723 7.52279C19.6148 7.55083 19.6786 7.58643 19.7166 7.60261C19.7535 7.61879 19.7994 7.64467 19.8195 7.66085C19.8385 7.67595 19.8889 7.70399 19.9314 7.72341C19.9728 7.74174 20.0276 7.77194 20.0522 7.79136C20.0768 7.80969 20.1316 7.84097 20.173 7.85931C20.2155 7.87872 20.2659 7.90677 20.2849 7.92187C20.305 7.93805 20.352 7.96501 20.3912 7.98119C20.4303 7.99845 20.4896 8.0308 20.5243 8.05453C20.5578 8.07826 20.6037 8.10307 20.6272 8.11062C20.6496 8.11709 20.6932 8.1419 20.7234 8.16455C20.7547 8.18612 20.8118 8.21955 20.8521 8.23681C20.8923 8.25407 20.9404 8.28103 20.9606 8.29721C20.9796 8.31231 21.0299 8.34035 21.0724 8.35977C21.1138 8.37811 21.1742 8.41154 21.2044 8.43311C21.2358 8.45576 21.2827 8.48165 21.3107 8.49136C21.3376 8.50214 21.3845 8.52695 21.4125 8.54744C21.4416 8.56793 21.4942 8.59706 21.53 8.61324C21.5669 8.62834 21.6195 8.65961 21.6486 8.68118C21.6776 8.70384 21.7302 8.73296 21.766 8.7459C21.8018 8.75992 21.851 8.78689 21.8756 8.80522C21.9003 8.82356 21.9495 8.85268 21.9864 8.86778C22.0222 8.88396 22.0748 8.91308 22.1039 8.93357C22.1318 8.95299 22.19 8.98534 22.2336 9.00368C22.2761 9.02309 22.3242 9.05006 22.3399 9.06408C22.3556 9.0781 22.4025 9.10507 22.4451 9.1234C22.4876 9.14174 22.5513 9.18165 22.5882 9.21077C22.6431 9.25391 22.6621 9.26362 22.6979 9.26362C22.7292 9.26362 22.7449 9.25822 22.7527 9.24312C22.7684 9.21616 22.7706 4.01525 22.7549 3.97643C22.7404 3.9376 22.6487 3.86857 22.5603 3.82974C22.5178 3.81033 22.4674 3.78228 22.4484 3.76718C22.4283 3.751 22.3802 3.72404 22.341 3.70678C22.3019 3.6906 22.2549 3.66364 22.2347 3.64746C22.2157 3.63236 22.1643 3.60324 22.1218 3.5849C22.0781 3.56549 22.0267 3.53745 22.0077 3.52127C21.9886 3.50509 21.9383 3.47705 21.8958 3.45871C21.8544 3.44145 21.8018 3.41233 21.7783 3.39507C21.7559 3.37782 21.7034 3.34869 21.6609 3.32928C21.6195 3.31094 21.5702 3.2829 21.5512 3.26888C21.5333 3.25486 21.4785 3.22358 21.4304 3.20093C21.3823 3.17828 21.3275 3.147 21.3074 3.13082C21.2872 3.11464 21.2414 3.08876 21.2044 3.07258C21.1664 3.0564 21.1026 3.02081 21.0601 2.99276C21.0187 2.9658 20.9785 2.94315 20.9695 2.94315C20.9606 2.94315 20.9214 2.92158 20.8811 2.89461C20.8409 2.86873 20.7749 2.83206 20.7335 2.81372C20.6932 2.79646 20.644 2.7695 20.625 2.75332C20.6059 2.73822 20.5545 2.70802 20.512 2.6886C20.4683 2.66811 20.4236 2.64223 20.4102 2.63144C20.3979 2.61958 20.3598 2.598 20.3263 2.58183C20.2301 2.5376 20.1999 2.52143 20.1641 2.4923C20.1462 2.4772 20.0981 2.45132 20.0589 2.43406C20.0198 2.41788 19.9694 2.38984 19.947 2.37258C19.9247 2.35532 19.8721 2.3262 19.8307 2.30894C19.7882 2.29061 19.7378 2.26257 19.7188 2.24639C19.6987 2.23021 19.6472 2.20109 19.6047 2.18275C19.5611 2.16334 19.5108 2.13529 19.4929 2.12127C19.4738 2.10617 19.4224 2.07597 19.3776 2.0544C19.3318 2.03283 19.2792 2.00263 19.2602 1.98753C19.24 1.97135 19.1919 1.94439 19.1528 1.92713C19.1136 1.90987 19.0577 1.88075 19.0297 1.86026C19.0018 1.84084 18.9492 1.81172 18.9134 1.79662C18.8776 1.78044 18.8317 1.75455 18.8127 1.73946C18.7926 1.72328 18.74 1.69415 18.6941 1.67366C18.6482 1.65317 18.5957 1.62513 18.5778 1.61003C18.5588 1.59493 18.5084 1.5658 18.4648 1.54531C18.4212 1.52374 18.3686 1.49462 18.3484 1.4806C18.3283 1.4655 18.2802 1.43961 18.2422 1.42235C18.2041 1.40618 18.1504 1.3749 18.1225 1.35548C18.0945 1.33499 18.043 1.30479 18.0061 1.28969C17.9703 1.27351 17.9177 1.24439 17.8887 1.22497C17.8607 1.20448 17.8081 1.17536 17.7734 1.16026C17.7376 1.14516 17.6895 1.11819 17.6672 1.09986C17.6437 1.0826 17.5944 1.05456 17.5575 1.03946C17.5217 1.02328 17.4725 0.996315 17.4501 0.979057C17.4266 0.9618 17.3741 0.931601 17.3316 0.913265C17.2902 0.894928 17.2365 0.865807 17.2141 0.848549C17.1917 0.831293 17.1391 0.802172 17.0966 0.783834C17.0552 0.765499 17.006 0.739613 16.9881 0.724514C16.9702 0.710491 16.9199 0.68137 16.8763 0.6598C16.8326 0.639305 16.7733 0.604792 16.7454 0.585377C16.7163 0.564884 16.6727 0.541155 16.648 0.533606C16.5988 0.516348 16.5563 0.492619 16.5071 0.453791C16.4892 0.439768 16.4433 0.414961 16.4042 0.397703C16.365 0.380447 16.3158 0.354561 16.2957 0.33946C16.2744 0.323282 16.2207 0.294161 16.1748 0.272589C16.129 0.251017 16.0798 0.222975 16.0641 0.208954C16.0484 0.194931 15.9981 0.16581 15.9522 0.144238C15.8415 0.0935459 15.8135 0.0708942 15.8202 0.0374584C15.8247 0.0169659 15.8202 0.00941658 15.8023 0.00510216C15.7744 -0.00244904 15.7061 -0.00136948 15.6871 0.00617981Z" fill="white"/>
<path d="M26.6649 6.15986C26.6503 6.18143 26.6492 7.22765 26.6582 14.8456C26.6637 19.6087 26.6637 23.5282 26.6582 23.5541C26.6458 23.6199 26.6156 23.6533 26.5429 23.6803C26.5082 23.6932 26.4579 23.7213 26.4322 23.7418C26.4053 23.7623 26.3539 23.7925 26.317 23.8086C26.28 23.8237 26.2308 23.8507 26.2084 23.869C26.1849 23.8863 26.1346 23.9154 26.0955 23.9316C26.0563 23.9488 26.006 23.978 25.9836 23.9974C25.9612 24.0157 25.9165 24.0416 25.884 24.0535C25.8516 24.0653 25.799 24.0934 25.7688 24.116C25.7375 24.1398 25.6815 24.171 25.6457 24.1872C25.6088 24.2023 25.5551 24.2314 25.5272 24.2519C25.4981 24.2724 25.4477 24.3005 25.4153 24.3145C25.3817 24.3285 25.3347 24.3555 25.3101 24.3749C25.2855 24.3943 25.2341 24.4234 25.1972 24.4396C25.1591 24.4558 25.1009 24.4892 25.0685 24.5129C25.0349 24.5367 24.9891 24.5615 24.9656 24.569C24.9432 24.5755 24.8951 24.6025 24.8593 24.6273C24.8246 24.6521 24.7665 24.6844 24.7307 24.6985C24.696 24.7114 24.6479 24.7373 24.6244 24.7556C24.602 24.7729 24.5506 24.802 24.5103 24.8203C24.47 24.8387 24.4174 24.8689 24.3928 24.8883C24.3682 24.9077 24.319 24.9336 24.2843 24.9465C24.2485 24.9595 24.1959 24.9886 24.1668 25.0123C24.1378 25.0361 24.0885 25.063 24.0595 25.0738C24.0292 25.0835 23.98 25.1105 23.9487 25.1342C23.9163 25.1569 23.8592 25.1892 23.8189 25.2065C23.7798 25.2237 23.7272 25.2539 23.7015 25.2744C23.6757 25.2938 23.6422 25.3143 23.6265 25.3186C23.5784 25.3327 23.5169 25.3661 23.4777 25.3995C23.4576 25.4168 23.4117 25.4405 23.3782 25.4535C23.3435 25.4653 23.2898 25.4955 23.2585 25.5193C23.2272 25.543 23.1712 25.5743 23.1343 25.5883C23.0974 25.6023 23.0459 25.6304 23.0202 25.6508C22.9933 25.6713 22.9441 25.6994 22.9106 25.7134C22.877 25.7263 22.8278 25.7544 22.8009 25.7738C22.7752 25.7943 22.7226 25.8234 22.6846 25.8385C22.6466 25.8525 22.5951 25.8817 22.5705 25.9011C22.5448 25.9205 22.4911 25.9518 22.4497 25.969C22.4083 25.9874 22.3546 26.0176 22.3322 26.0359C22.3087 26.0542 22.255 26.0844 22.2125 26.1017C22.17 26.1189 22.1219 26.1448 22.1062 26.1589C22.0906 26.174 22.0425 26.2009 21.9988 26.2203C21.9563 26.2387 21.9015 26.2699 21.8758 26.2894C21.8512 26.3088 21.8187 26.3282 21.8031 26.3325C21.7516 26.3476 21.6744 26.3897 21.6476 26.4177C21.633 26.4328 21.586 26.4576 21.5447 26.4738C21.5021 26.4889 21.444 26.5202 21.416 26.5428C21.3869 26.5655 21.3411 26.5924 21.312 26.6032C21.284 26.6129 21.2314 26.6421 21.1967 26.6669C21.1621 26.6917 21.1072 26.7219 21.0759 26.7327C21.0435 26.7434 20.9987 26.7683 20.9752 26.7877C20.9518 26.8071 20.9003 26.8373 20.8611 26.8545C20.8209 26.8718 20.7705 26.9009 20.7482 26.9193C20.7269 26.9387 20.6766 26.9656 20.6374 26.9807C20.5982 26.9958 20.5423 27.0271 20.511 27.0498C20.4808 27.0724 20.426 27.1037 20.3891 27.1188C20.3533 27.1339 20.3074 27.1609 20.2884 27.177C20.2682 27.1943 20.2224 27.2191 20.1855 27.2331C20.1497 27.2461 20.096 27.2763 20.068 27.2989C20.04 27.3216 19.9852 27.3518 19.9483 27.3669C19.9103 27.3809 19.8577 27.41 19.8308 27.4316C19.804 27.4521 19.7536 27.4801 19.719 27.4931C19.6843 27.506 19.6362 27.5319 19.6138 27.5513C19.5903 27.5707 19.5366 27.602 19.4952 27.6203C19.4527 27.6376 19.4001 27.6678 19.3766 27.6861C19.3532 27.7034 19.3017 27.7325 19.2625 27.7487C19.2234 27.7659 19.1697 27.7972 19.1451 27.8177C19.1193 27.8382 19.0746 27.8641 19.0444 27.8738C19.0142 27.8846 18.9639 27.9126 18.9325 27.9353C18.9012 27.959 18.8442 27.9892 18.8072 28.0043C18.7692 28.0194 18.7133 28.0496 18.6831 28.0712C18.6529 28.0938 18.6025 28.1208 18.5734 28.1305C18.5432 28.1413 18.4985 28.1661 18.4716 28.1877C18.4459 28.2092 18.3933 28.2394 18.3553 28.2545C18.3161 28.2686 18.2624 28.2988 18.2345 28.3214C18.2065 28.343 18.155 28.3732 18.1192 28.3872C18.0835 28.4001 18.032 28.4293 18.0051 28.4508C17.9772 28.4735 17.9291 28.4994 17.8977 28.5102C17.8675 28.5209 17.8127 28.5501 17.778 28.5749C17.7434 28.6008 17.6908 28.6288 17.6617 28.6396C17.6326 28.6504 17.5845 28.6773 17.5554 28.7011C17.5252 28.7248 17.4738 28.7539 17.4391 28.7658C17.4044 28.7787 17.3518 28.8068 17.3239 28.8294C17.2948 28.8531 17.2433 28.8812 17.2098 28.8941C17.1751 28.906 17.1236 28.9351 17.0957 28.9578C17.0666 28.9804 17.0129 29.0106 16.9771 29.0236C16.9402 29.0376 16.8943 29.0624 16.8753 29.0796C16.8551 29.0958 16.807 29.1239 16.7679 29.1411C16.7287 29.1584 16.6683 29.1918 16.6348 29.2166C16.6012 29.2414 16.5542 29.2662 16.5285 29.2727C16.5039 29.2792 16.4535 29.3061 16.4177 29.3331C16.3808 29.3601 16.326 29.3924 16.2947 29.4043C16.2634 29.4162 16.213 29.4442 16.1817 29.4669C16.1515 29.4884 16.0978 29.5175 16.0642 29.5316C16.0307 29.5456 15.977 29.5769 15.9445 29.6028C15.8785 29.6545 15.8282 29.6707 15.7398 29.6707C15.6716 29.6707 15.581 29.6362 15.544 29.5952C15.5205 29.5693 15.4255 29.5197 15.4008 29.5197C15.393 29.5197 15.3572 29.4981 15.3225 29.4722C15.2879 29.4464 15.2342 29.4162 15.2028 29.4054C15.1726 29.3946 15.1201 29.3655 15.0887 29.3396C15.0563 29.3137 15.0026 29.2846 14.9702 29.2749C14.9377 29.2652 14.8918 29.2414 14.8695 29.2231C14.8135 29.1778 14.78 29.1584 14.7308 29.1433C14.7084 29.1357 14.6648 29.112 14.6357 29.0883C14.6055 29.0656 14.5507 29.0354 14.5115 29.0203C14.4735 29.0052 14.4209 28.9761 14.3952 28.9556C14.3683 28.934 14.3191 28.9071 14.2866 28.8941C14.2531 28.8812 14.196 28.8499 14.1602 28.824C14.1244 28.7981 14.0707 28.769 14.0405 28.7593C14.0103 28.7496 13.979 28.7345 13.9712 28.7259C13.9477 28.6989 13.8705 28.6515 13.8157 28.631C13.7877 28.6202 13.7452 28.5954 13.7195 28.576C13.6949 28.5565 13.6434 28.5274 13.6054 28.5123C13.5673 28.4983 13.5148 28.4681 13.489 28.4465C13.4633 28.426 13.4118 28.398 13.376 28.385C13.3391 28.3721 13.2888 28.3451 13.263 28.3246C13.2384 28.3041 13.1825 28.2718 13.1389 28.2524C13.0964 28.234 13.0449 28.2049 13.0259 28.1898C13.0058 28.1736 12.9565 28.1467 12.9151 28.1283C12.8737 28.11 12.82 28.0809 12.7977 28.0636C12.7742 28.0453 12.725 28.0183 12.6892 28.0032C12.6534 27.9881 12.603 27.9579 12.5762 27.9374C12.5504 27.9169 12.4979 27.8889 12.461 27.8749C12.424 27.8609 12.3748 27.8339 12.3524 27.8145C12.3301 27.7951 12.2797 27.7659 12.2395 27.7487C12.2003 27.7303 12.15 27.7023 12.1276 27.6861C12.1052 27.6689 12.0538 27.6397 12.0124 27.6225C11.971 27.6042 11.9195 27.575 11.8983 27.5567C11.877 27.5384 11.8278 27.5114 11.7886 27.4963C11.7495 27.4812 11.6969 27.451 11.67 27.4305C11.6443 27.41 11.5917 27.3809 11.5537 27.3658C11.5145 27.3507 11.4664 27.3237 11.4452 27.3054C11.4228 27.2881 11.368 27.2568 11.3221 27.2364C11.2763 27.2159 11.2237 27.1867 11.2047 27.1716C11.1857 27.1565 11.1387 27.1296 11.0995 27.1134C11.0604 27.0961 11.0078 27.0659 10.9821 27.0454C10.9563 27.026 10.906 26.9991 10.8713 26.9861C10.8355 26.9743 10.7796 26.943 10.7471 26.9171C10.7158 26.8923 10.6632 26.8621 10.633 26.8513C10.6017 26.8394 10.557 26.8146 10.5323 26.7952C10.5077 26.7769 10.4529 26.7456 10.4093 26.7273C10.3668 26.7079 10.3187 26.6809 10.303 26.6669C10.2874 26.6528 10.2404 26.6259 10.1967 26.6075C10.1542 26.5892 10.0983 26.5579 10.0726 26.5374C10.0468 26.5169 9.99649 26.49 9.9607 26.477C9.92378 26.4641 9.87344 26.435 9.84659 26.4134C9.82086 26.3908 9.77052 26.3616 9.73472 26.3476C9.70004 26.3347 9.65082 26.3077 9.62509 26.2883C9.59936 26.2689 9.55014 26.2408 9.51546 26.2257C9.47966 26.2106 9.42485 26.1783 9.39464 26.1545C9.36332 26.1308 9.32417 26.1082 9.3085 26.1038C9.26376 26.0941 9.21677 26.0693 9.16419 26.0283C9.13847 26.0079 9.08701 25.9798 9.04897 25.9658C9.01205 25.9518 8.95724 25.9183 8.92592 25.8914C8.86774 25.8407 8.78832 25.8094 8.76818 25.8288C8.76259 25.8342 8.75364 25.8558 8.75028 25.8752C8.74581 25.8957 8.74469 27.081 8.74805 28.5091L8.75364 31.1063L8.7995 31.1484C8.82523 31.171 8.87446 31.1991 8.91249 31.2131C8.94941 31.226 9.0031 31.2551 9.03107 31.2767C9.05904 31.2994 9.11162 31.3296 9.14741 31.3425C9.18321 31.3565 9.23467 31.3867 9.26264 31.4083C9.29061 31.4309 9.34207 31.459 9.37674 31.4719C9.41254 31.4849 9.46512 31.514 9.49421 31.5377C9.52329 31.5604 9.5714 31.5873 9.60048 31.597C9.62957 31.6057 9.67767 31.6326 9.70564 31.6553C9.73472 31.6779 9.78842 31.7071 9.82645 31.7211C9.86337 31.734 9.91707 31.7631 9.94392 31.7858C9.97077 31.8095 10.0233 31.8387 10.0591 31.8516C10.0961 31.8645 10.1498 31.8937 10.1777 31.9163C10.2068 31.939 10.2594 31.9681 10.2941 31.9799C10.3287 31.9929 10.3791 32.0199 10.4037 32.0403C10.4283 32.0608 10.4753 32.0878 10.5077 32.0997C10.5402 32.1115 10.5916 32.1396 10.623 32.1633C10.6543 32.187 10.7113 32.2172 10.7494 32.2323C10.7874 32.2464 10.84 32.2766 10.8679 32.3003C10.897 32.3251 10.9429 32.3499 10.9798 32.3618C11.0145 32.3715 11.0637 32.3974 11.0894 32.4178C11.1152 32.4394 11.1689 32.4707 11.2069 32.4869C11.2461 32.5041 11.2986 32.5343 11.3233 32.5548C11.3479 32.5753 11.3948 32.6001 11.4284 32.6109C11.4631 32.6206 11.5112 32.6476 11.5436 32.6745C11.575 32.7004 11.6264 32.7296 11.6589 32.7393C11.6913 32.75 11.745 32.7792 11.7774 32.8051C11.8099 32.8299 11.8625 32.859 11.8949 32.8698C11.9273 32.8795 11.9754 32.9064 12.0034 32.9291C12.0314 32.9517 12.0817 32.9798 12.1153 32.9927C12.1488 33.0057 12.2025 33.0348 12.2327 33.0574C12.2641 33.0801 12.3155 33.1081 12.3468 33.12C12.3793 33.1319 12.4319 33.161 12.4632 33.1858C12.4945 33.2095 12.5482 33.2376 12.5818 33.2484C12.6176 33.2591 12.6646 33.285 12.6925 33.3088C12.7194 33.3314 12.7719 33.3627 12.8111 33.3767C12.8491 33.3918 12.9006 33.4209 12.9252 33.4414C12.9498 33.4619 12.999 33.4889 13.0348 33.5007C13.0695 33.5137 13.1187 33.5406 13.1433 33.5611C13.1691 33.5816 13.2194 33.6097 13.2575 33.6248C13.2944 33.6399 13.3503 33.6701 13.3805 33.6938C13.4107 33.7165 13.4633 33.7456 13.498 33.7574C13.5326 33.7704 13.5841 33.7995 13.6121 33.8222C13.6412 33.8448 13.6937 33.8739 13.7295 33.8879C13.7653 33.902 13.8168 33.93 13.8436 33.9516C13.8705 33.9732 13.9175 33.999 13.9477 34.0088C13.9779 34.0195 14.0282 34.0476 14.0595 34.0713C14.0909 34.095 14.1446 34.1242 14.1781 34.136C14.2128 34.1468 14.2654 34.1759 14.2945 34.1997C14.3236 34.2245 14.3784 34.2536 14.4142 34.2655C14.4522 34.2784 14.4981 34.3032 14.5204 34.3237C14.5417 34.3442 14.592 34.3733 14.6312 34.3895C14.6715 34.4057 14.724 34.4348 14.7498 34.4542C14.7744 34.4747 14.8236 34.5006 14.8583 34.5135C14.8941 34.5265 14.9444 34.5534 14.9702 34.5739C15.025 34.6192 15.0608 34.6376 15.1111 34.6483C15.1312 34.6516 15.1738 34.6775 15.2051 34.7034C15.2364 34.7292 15.2901 34.7605 15.3237 34.7724C15.3572 34.7842 15.4064 34.8112 15.4322 34.8328C15.4579 34.8533 15.5116 34.8824 15.5508 34.8975C15.5888 34.9126 15.6414 34.9417 15.666 34.9622C15.7286 35.014 15.7734 35.0129 15.8427 34.9568C15.8718 34.9342 15.921 34.9061 15.9524 34.8953C15.9848 34.8846 16.0351 34.8544 16.0665 34.8295C16.0967 34.8037 16.1291 34.7832 16.1381 34.7832C16.1638 34.7832 16.2455 34.74 16.2924 34.7001C16.3171 34.6807 16.364 34.6559 16.3965 34.6462C16.4289 34.6365 16.4815 34.6074 16.5139 34.5815C16.5464 34.5556 16.5967 34.5275 16.6269 34.5178C16.656 34.5081 16.7052 34.4822 16.7354 34.4585C16.7656 34.4359 16.8182 34.4067 16.8507 34.3949C16.8842 34.383 16.939 34.3517 16.9748 34.3259C17.0095 34.2989 17.0621 34.2698 17.0912 34.2611C17.1203 34.2514 17.1706 34.2234 17.203 34.1975C17.2355 34.1716 17.2881 34.1425 17.3205 34.1328C17.353 34.1231 17.4011 34.0972 17.4257 34.0767C17.4514 34.0562 17.5062 34.0239 17.5487 34.0055C17.5901 33.9883 17.6405 33.9591 17.6584 33.9419C17.6774 33.9246 17.721 33.9009 17.7557 33.8879C17.7904 33.875 17.8485 33.8437 17.8843 33.8168C17.919 33.7898 17.9615 33.7661 17.9772 33.7618C18.0208 33.752 18.0846 33.7186 18.126 33.683C18.1461 33.6658 18.192 33.642 18.2266 33.6291C18.2613 33.6161 18.3128 33.5881 18.3419 33.5644C18.3698 33.5417 18.4224 33.5126 18.4571 33.5007C18.4918 33.4889 18.541 33.4619 18.5656 33.4414C18.5902 33.4209 18.6417 33.3918 18.6797 33.3778C18.7177 33.3627 18.7714 33.3325 18.7983 33.3109C18.8251 33.2904 18.8777 33.2613 18.9146 33.2473C18.9515 33.2333 19.0064 33.202 19.0388 33.1782C19.0701 33.1545 19.1205 33.1265 19.1496 33.1178C19.1798 33.1081 19.2256 33.0823 19.2502 33.0618C19.276 33.0413 19.3285 33.0111 19.3666 32.996C19.4046 32.9819 19.4583 32.9507 19.4852 32.9269C19.5131 32.9043 19.5411 32.8849 19.5478 32.8849C19.5758 32.8849 19.6843 32.8277 19.7246 32.7932C19.748 32.7727 19.7738 32.7554 19.7816 32.7554C19.8085 32.7554 19.9091 32.7037 19.9483 32.6702C19.9695 32.6519 20.0244 32.6228 20.0691 32.6055C20.1139 32.5872 20.1642 32.5613 20.1799 32.5462C20.1955 32.5311 20.2425 32.5052 20.2828 32.488C20.3231 32.4707 20.3745 32.4405 20.3958 32.4222C20.417 32.4038 20.4718 32.3747 20.5166 32.3574C20.5613 32.3391 20.6139 32.31 20.6329 32.2927C20.6531 32.2744 20.7 32.2474 20.7381 32.2334C20.7761 32.2194 20.8298 32.1892 20.8567 32.1676C20.8846 32.146 20.9339 32.118 20.9663 32.1061C20.9987 32.0943 21.0513 32.0662 21.0815 32.0436C21.1128 32.0209 21.1654 31.9918 21.199 31.9789C21.2325 31.9659 21.2818 31.9379 21.3086 31.9174C21.3355 31.8969 21.388 31.8678 21.4272 31.8527C21.4663 31.8387 21.5189 31.8095 21.5447 31.789C21.5693 31.7675 21.6207 31.7394 21.6588 31.7254C21.6968 31.7103 21.7538 31.679 21.7863 31.6553C21.8187 31.6316 21.8668 31.6046 21.8948 31.596C21.9216 31.5863 21.9675 31.5604 21.9966 31.5366C22.0257 31.514 22.0783 31.4849 22.1141 31.4719C22.1487 31.459 22.2002 31.4309 22.2282 31.4083C22.2561 31.3856 22.3042 31.3587 22.3344 31.3479C22.3658 31.3371 22.4183 31.3069 22.453 31.2821C22.4877 31.2562 22.5436 31.2249 22.5783 31.2131C22.6119 31.2012 22.6589 31.1753 22.6835 31.157C22.707 31.1387 22.7584 31.1095 22.7987 31.0923C22.8379 31.0739 22.8904 31.0437 22.9162 31.0243C22.9408 31.0038 22.9911 30.9779 23.0269 30.965C23.0627 30.951 23.1119 30.924 23.1354 30.9035C23.1589 30.883 23.2148 30.8518 23.2585 30.8345C23.3021 30.8172 23.358 30.787 23.3826 30.7655C23.4084 30.745 23.4531 30.7202 23.4822 30.7115C23.5124 30.7018 23.565 30.6727 23.5997 30.6468C23.6344 30.6209 23.6858 30.5918 23.7149 30.5821C23.744 30.5735 23.791 30.5465 23.8212 30.5228C23.8503 30.4991 23.904 30.4699 23.9409 30.457C23.9778 30.444 24.0292 30.4149 24.0572 30.3912C24.0841 30.3685 24.1355 30.3394 24.1702 30.3286C24.2049 30.3168 24.2597 30.2887 24.291 30.265C24.3223 30.2424 24.3772 30.2111 24.4141 30.1949C24.4499 30.1798 24.4957 30.1528 24.517 30.1356C24.5371 30.1183 24.5841 30.0924 24.6221 30.0795C24.6591 30.0665 24.7116 30.0374 24.7396 30.0137C24.7665 29.99 24.8202 29.9598 24.8571 29.9457C24.894 29.9317 24.9454 29.9026 24.9734 29.881C25.0003 29.8605 25.0528 29.8314 25.0909 29.8163C25.1278 29.8023 25.1804 29.7743 25.2061 29.7538C25.233 29.7333 25.2833 29.7041 25.3202 29.688C25.356 29.6729 25.4019 29.6459 25.422 29.6286C25.4421 29.6114 25.4835 29.5887 25.5126 29.578C25.5719 29.5575 25.6189 29.5305 25.6636 29.4906C25.6793 29.4776 25.7229 29.4539 25.7621 29.4388C25.8012 29.4248 25.8538 29.3957 25.8807 29.3752C25.9064 29.3536 25.9567 29.3266 25.9903 29.3148C26.025 29.3018 26.0776 29.2738 26.1078 29.2501C26.138 29.2274 26.1894 29.1983 26.2241 29.1853C26.2577 29.1735 26.3046 29.1476 26.3293 29.1271C26.3539 29.1066 26.4064 29.0764 26.4456 29.0592C26.4859 29.0408 26.5385 29.0106 26.5642 28.9901C26.5888 28.9696 26.6391 28.9437 26.6738 28.9319C26.7096 28.92 26.7577 28.8941 26.7812 28.8758C26.8047 28.8564 26.8573 28.8251 26.8987 28.8078C26.9401 28.7906 26.9938 28.7593 27.0172 28.7388C27.0419 28.7194 27.0922 28.6914 27.1291 28.6784C27.1672 28.6655 27.2164 28.6385 27.241 28.6169C27.2645 28.5964 27.3103 28.5695 27.3428 28.5576C27.3752 28.5458 27.4289 28.5166 27.4614 28.4929C27.4938 28.4692 27.5475 28.44 27.5788 28.4282C27.6113 28.4152 27.665 28.385 27.6985 28.3602C27.7321 28.3354 27.7724 28.3106 27.788 28.3063C27.835 28.2923 27.9178 28.2491 27.9334 28.2297C27.9424 28.22 27.986 28.1952 28.0319 28.1758C28.0766 28.1564 28.1348 28.1229 28.1617 28.1014C28.1885 28.0809 28.2344 28.055 28.2646 28.0453C28.2948 28.0367 28.3462 28.0097 28.3787 27.986C28.4111 27.9633 28.4704 27.9299 28.5107 27.9126C28.5498 27.8954 28.6013 27.8662 28.6248 27.8479C28.6472 27.8296 28.6942 27.8026 28.7288 27.7897C28.7635 27.7756 28.8139 27.7476 28.8418 27.726C28.8687 27.7055 28.9179 27.6775 28.9515 27.6656C28.985 27.6538 29.0365 27.6246 29.0667 27.6009C29.0958 27.5772 29.145 27.5502 29.1752 27.5405C29.2065 27.5308 29.2568 27.5028 29.2882 27.479C29.3195 27.4553 29.3754 27.424 29.4123 27.4089C29.4493 27.3949 29.5041 27.3636 29.5354 27.341C29.5656 27.3172 29.5969 27.2978 29.6036 27.2978C29.626 27.2978 29.7267 27.2428 29.7714 27.2062C29.7949 27.1867 29.8363 27.1652 29.8654 27.1576C29.8934 27.1501 29.9448 27.1231 29.9795 27.0972C30.0142 27.0724 30.0724 27.039 30.107 27.0239C30.1428 27.0088 30.1921 26.9818 30.2156 26.9635C30.2391 26.9451 30.2927 26.9149 30.3353 26.8966C30.3767 26.8783 30.427 26.8513 30.4449 26.8362C30.4639 26.8211 30.5098 26.7952 30.5478 26.779C30.5858 26.7629 30.6429 26.7294 30.6742 26.7057C30.7067 26.6809 30.738 26.6615 30.7447 26.6615C30.7715 26.6615 30.8711 26.6097 30.917 26.572C30.9438 26.5515 30.9897 26.5256 31.0199 26.5159C31.0512 26.5062 31.0948 26.4835 31.1183 26.4652C31.1418 26.4468 31.1978 26.4166 31.2425 26.3961C31.2873 26.3767 31.3499 26.339 31.3823 26.3131C31.4293 26.2743 31.445 26.2667 31.4651 26.2743C31.4875 26.2818 31.4909 26.2786 31.4965 26.2484C31.4998 26.229 31.5009 22.2922 31.4998 17.4989L31.4965 8.78404L31.4707 8.78619C31.4439 8.78943 31.4126 8.77325 31.3454 8.72256C31.3242 8.70638 31.2783 8.68157 31.2436 8.66647C31.2101 8.65245 31.1664 8.62764 31.1474 8.61254C31.1273 8.59636 31.0781 8.56832 31.0356 8.55106C30.9942 8.53273 30.9371 8.50145 30.9091 8.48203C30.8812 8.46262 30.823 8.42919 30.7794 8.40869C30.7346 8.3882 30.6798 8.35692 30.6563 8.33966C30.6317 8.32133 30.5892 8.2976 30.559 8.28789C30.5299 8.27711 30.4796 8.25014 30.4471 8.22641C30.4158 8.20268 30.3588 8.17033 30.3218 8.15415C30.2849 8.13797 30.2312 8.10777 30.2033 8.08728C30.1753 8.06678 30.1283 8.0409 30.0981 8.03011C30.0668 8.01933 30.0209 7.99344 29.9952 7.97295C29.9694 7.95353 29.9158 7.92225 29.8755 7.905C29.8341 7.88774 29.7826 7.85862 29.7591 7.84136C29.7368 7.8241 29.6875 7.79606 29.6506 7.77988C29.6137 7.7637 29.5589 7.73242 29.5276 7.70977C29.4974 7.6882 29.4493 7.66124 29.4213 7.65045C29.3933 7.64075 29.3452 7.61378 29.3128 7.59113C29.2815 7.56848 29.2266 7.5372 29.192 7.5221C29.1573 7.50808 29.1092 7.48112 29.0857 7.46278C29.0622 7.44444 29.0085 7.41532 28.966 7.39591C28.9246 7.37757 28.8754 7.35061 28.8575 7.33659C28.8396 7.32149 28.7892 7.29344 28.7456 7.27187C28.702 7.25138 28.6449 7.21794 28.6192 7.19853C28.5924 7.17911 28.5454 7.1543 28.5152 7.14352C28.485 7.13273 28.4313 7.10361 28.3966 7.0788C28.3619 7.054 28.3104 7.02488 28.2825 7.01517C28.2534 7.00438 28.2053 6.9785 28.174 6.95585C28.1438 6.93427 28.0834 6.90084 28.0397 6.88143C27.9972 6.86201 27.9491 6.83505 27.9334 6.82102C27.9178 6.807 27.8708 6.78004 27.8283 6.76278C27.7858 6.74445 27.7332 6.71532 27.7108 6.69807C27.6885 6.68081 27.6359 6.65169 27.5945 6.63443C27.552 6.61609 27.5016 6.58805 27.4826 6.57187C27.4625 6.55569 27.4099 6.52657 27.364 6.50608C27.3182 6.48559 27.2656 6.45754 27.2477 6.44244C27.2287 6.42734 27.1783 6.39822 27.1347 6.37665C27.0911 6.35508 27.0374 6.32488 27.0161 6.3087C26.9949 6.29252 26.9468 6.26664 26.911 6.25046C26.8741 6.23536 26.8226 6.203 26.7969 6.17927C26.7398 6.12858 26.6906 6.12103 26.6649 6.15986Z" fill="white"/>
<path d="M15.677 8.2686C15.6882 8.27183 15.696 8.2837 15.696 8.2988C15.696 8.32792 15.6456 8.36783 15.5528 8.40989C15.5159 8.42715 15.4622 8.45735 15.432 8.47892C15.4018 8.49941 15.3548 8.5253 15.3268 8.53501C15.3 8.54579 15.253 8.5706 15.225 8.59109C15.1959 8.61159 15.1434 8.64071 15.1076 8.65689C15.0706 8.67199 15.0169 8.70326 14.9856 8.72484C14.9554 8.74641 14.9017 8.77553 14.8682 8.78955C14.8346 8.80357 14.782 8.8327 14.7507 8.85427C14.7205 8.87584 14.6668 8.90496 14.6332 8.91898C14.5997 8.933 14.5516 8.96105 14.5258 8.98046C14.5001 8.9988 14.4509 9.02684 14.4151 9.04194C14.3804 9.05704 14.3267 9.08724 14.2965 9.10881C14.2663 9.13038 14.2148 9.15735 14.1824 9.16921C14.15 9.18108 14.0996 9.20912 14.0683 9.23069C14.0381 9.25334 13.9822 9.28462 13.9452 9.3008C13.9083 9.31698 13.8591 9.34502 13.8367 9.36228C13.8132 9.37954 13.7607 9.40866 13.7204 9.42591C13.679 9.44425 13.6275 9.47229 13.6052 9.48955C13.5828 9.50681 13.5313 9.53485 13.4899 9.55319C13.4486 9.57152 13.396 9.60064 13.3725 9.61898C13.349 9.63624 13.3054 9.66212 13.274 9.67507C13.2438 9.68801 13.1935 9.71497 13.1622 9.73654C13.132 9.75704 13.0716 9.79047 13.0279 9.80881C12.9843 9.82822 12.9328 9.85627 12.9138 9.87245C12.8948 9.88754 12.8489 9.91343 12.8131 9.92853C12.7773 9.94363 12.7225 9.97491 12.6912 9.99864C12.6599 10.0213 12.614 10.0472 12.5883 10.0558C12.5637 10.0644 12.5055 10.0957 12.4608 10.1248C12.416 10.154 12.3601 10.1842 12.3366 10.1917C12.3131 10.1982 12.2717 10.2208 12.2437 10.2413C12.2158 10.2618 12.1576 10.2952 12.1151 10.3157C12.0726 10.3352 12.0189 10.3664 11.9954 10.3837C11.973 10.4009 11.9193 10.4301 11.8779 10.4484C11.8354 10.4678 11.7851 10.4948 11.7672 10.5099C11.7482 10.5261 11.6989 10.553 11.6587 10.5703C11.6184 10.5875 11.5658 10.6167 11.5434 10.6339C11.5211 10.6523 11.4651 10.6825 11.4204 10.7019C11.3756 10.7224 11.3242 10.7504 11.3052 10.7655C11.2873 10.7806 11.2369 10.8076 11.1955 10.8259C11.153 10.8442 11.1004 10.8744 11.0769 10.8917C11.0546 10.909 11.0076 10.9359 10.9729 10.9499C10.9382 10.965 10.8823 10.9963 10.8499 11.0201C10.8174 11.0427 10.7659 11.0707 10.7369 11.0805C10.7067 11.0912 10.6597 11.1171 10.6317 11.1376C10.6037 11.1581 10.5467 11.1905 10.5064 11.2077C10.4661 11.225 10.4203 11.2509 10.4046 11.2649C10.389 11.2789 10.3375 11.308 10.2905 11.3285C10.2435 11.3501 10.1898 11.3792 10.1719 11.3943C10.1529 11.4094 10.1003 11.4385 10.0556 11.459C10.0108 11.4784 9.95043 11.5119 9.92134 11.5335C9.89226 11.555 9.86541 11.5723 9.86205 11.5723C9.84415 11.5723 9.74124 11.6284 9.70096 11.6586C9.67859 11.6769 9.63161 11.7017 9.59804 11.7136C9.56448 11.7254 9.51862 11.7503 9.49513 11.7686C9.47163 11.7858 9.41458 11.8171 9.36871 11.8376C9.32397 11.8581 9.26915 11.8883 9.25013 11.9056C9.23 11.9228 9.17854 11.9509 9.13715 11.9692C9.09464 11.9875 9.04206 12.0167 9.01969 12.0339C8.99731 12.0512 8.94362 12.0814 8.90222 12.0986C8.85971 12.117 8.80937 12.145 8.79036 12.1612C8.77134 12.1774 8.71988 12.2054 8.67625 12.2248C8.63374 12.2432 8.58228 12.2723 8.56214 12.2885C8.54313 12.3036 8.49055 12.3327 8.44468 12.3532C8.39994 12.3726 8.34736 12.4017 8.32946 12.4157C8.31044 12.4308 8.26122 12.4578 8.21983 12.4761C8.17732 12.4945 8.12474 12.5247 8.10125 12.543C8.07775 12.5603 8.0263 12.5894 7.98714 12.6056C7.94799 12.6228 7.89988 12.6498 7.87975 12.666C7.86073 12.6811 7.80815 12.7102 7.76229 12.7307C7.71754 12.7501 7.66496 12.7792 7.64594 12.7954C7.62693 12.8105 7.57994 12.8375 7.54191 12.8547C7.50387 12.872 7.46584 12.8914 7.45689 12.8989C7.44794 12.9065 7.4278 12.9097 7.41326 12.9054C7.38082 12.8979 7.37298 12.913 7.37298 12.9777C7.37298 13.0618 7.31705 13.0553 8.07999 13.0586C8.55431 13.0607 8.77581 13.065 8.79707 13.0737C8.85971 13.0974 8.85971 13.0985 8.86083 13.6626C8.86195 14.2148 8.86083 14.2288 8.80825 14.2536C8.79707 14.259 8.47489 14.2655 8.09118 14.2687C7.48821 14.273 7.39312 14.2763 7.38417 14.2903C7.36963 14.3108 7.3741 22.1262 7.38865 22.1391C7.39424 22.1434 7.40095 22.1424 7.40319 22.1348C7.4099 22.1186 7.43787 22.1283 7.47367 22.1596C7.48933 22.1726 7.52736 22.193 7.5598 22.2049C7.59113 22.2168 7.63923 22.2427 7.66608 22.2642C7.69293 22.2847 7.74662 22.3149 7.78578 22.33C7.82493 22.3451 7.87863 22.3742 7.90436 22.3947C7.93009 22.4163 7.98043 22.4433 8.01399 22.4551C8.04867 22.4681 8.10125 22.4972 8.13033 22.5209C8.15942 22.5436 8.20752 22.5706 8.23773 22.5803C8.26681 22.59 8.31492 22.6148 8.344 22.6363C8.37197 22.6568 8.42902 22.6892 8.46818 22.7065C8.50845 22.7237 8.56214 22.755 8.58787 22.7744C8.6136 22.7949 8.66506 22.8229 8.7031 22.838C8.74002 22.8521 8.79259 22.8801 8.81832 22.9006C8.84517 22.9222 8.89327 22.9481 8.92572 22.9599C8.95816 22.9718 9.01185 23.002 9.04542 23.0268C9.07786 23.0516 9.13155 23.0807 9.16288 23.0915C9.1942 23.1023 9.24678 23.1314 9.2781 23.1541C9.31054 23.1778 9.36088 23.2048 9.39109 23.2155C9.42017 23.2263 9.46828 23.2544 9.49624 23.277C9.52533 23.2997 9.57903 23.3299 9.61818 23.3439C9.65622 23.3579 9.70991 23.3881 9.73788 23.4097C9.76585 23.4313 9.81507 23.4593 9.84751 23.4712C9.87995 23.483 9.93253 23.5122 9.96497 23.5359C9.9963 23.5585 10.05 23.5887 10.0824 23.6006C10.1149 23.6125 10.163 23.6383 10.1898 23.6599C10.2156 23.6804 10.267 23.7085 10.3039 23.7225C10.3408 23.7365 10.3923 23.7656 10.418 23.7861C10.4438 23.8077 10.4952 23.8357 10.531 23.8487C10.5668 23.8616 10.6205 23.8907 10.6485 23.9134C10.6776 23.936 10.7279 23.9652 10.7615 23.977C10.795 23.9889 10.8521 24.0202 10.8879 24.046C10.9237 24.0719 10.9718 24.0989 10.9942 24.1054C11.0177 24.1129 11.0624 24.1377 11.0937 24.1604C11.125 24.1841 11.1821 24.2143 11.219 24.2283C11.2571 24.2434 11.3119 24.2736 11.341 24.2974C11.37 24.3211 11.4237 24.3502 11.4607 24.3631C11.4964 24.3761 11.5468 24.4031 11.5714 24.4235C11.596 24.444 11.6441 24.471 11.6788 24.4829C11.7124 24.4958 11.7694 24.5271 11.8052 24.553C11.841 24.5789 11.8891 24.6058 11.9115 24.6134C11.935 24.6199 11.9831 24.6468 12.0189 24.6727C12.0536 24.6975 12.1117 24.7288 12.1464 24.7417C12.1811 24.7536 12.2325 24.7827 12.2605 24.8054C12.2885 24.828 12.3377 24.855 12.3679 24.8658C12.3992 24.8766 12.4518 24.9057 12.4854 24.9305C12.5189 24.9553 12.5715 24.9833 12.6006 24.993C12.6308 25.0027 12.6845 25.0329 12.7214 25.0588C12.7583 25.0858 12.8087 25.1138 12.8322 25.1203C12.8556 25.1279 12.9004 25.1527 12.9317 25.1775C12.963 25.2023 13.019 25.2336 13.0559 25.2465C13.0939 25.2594 13.1476 25.2886 13.1767 25.3112C13.2058 25.3339 13.255 25.3619 13.2852 25.3727C13.3165 25.3824 13.3691 25.4115 13.4027 25.4374C13.4362 25.4622 13.4888 25.4903 13.5179 25.5C13.547 25.5097 13.5973 25.5366 13.6287 25.5615C13.66 25.5852 13.7103 25.6132 13.7405 25.624C13.7718 25.6337 13.8211 25.6628 13.8502 25.6866C13.8826 25.7125 13.9341 25.7405 13.9721 25.7534C14.0101 25.7653 14.0638 25.7944 14.0929 25.8182C14.1231 25.8408 14.1723 25.8688 14.2025 25.8796C14.2339 25.8904 14.282 25.9174 14.3111 25.9411C14.3401 25.9638 14.3916 25.9918 14.4252 26.0037C14.4576 26.0145 14.5147 26.0447 14.5505 26.0716C14.5874 26.0975 14.6411 26.1277 14.6713 26.1374C14.7004 26.146 14.7462 26.173 14.772 26.1957C14.801 26.2215 14.8458 26.2463 14.8883 26.2604C14.9274 26.2722 14.9811 26.3014 15.0102 26.3262C15.0404 26.3499 15.0897 26.3779 15.121 26.3898C15.1523 26.4006 15.2038 26.4308 15.2362 26.4545C15.2686 26.4793 15.3179 26.5052 15.3436 26.5117C15.3704 26.5181 15.4118 26.5397 15.4353 26.5581C15.4812 26.5958 15.5092 26.612 15.6065 26.6551C15.64 26.6702 15.6848 26.6929 15.7038 26.7058C15.7452 26.7306 15.7698 26.7274 15.8168 26.6886C15.8347 26.6745 15.8727 26.6541 15.9018 26.6422C15.932 26.6314 15.9868 26.6001 16.0238 26.5742C16.0618 26.5473 16.1144 26.5192 16.139 26.5128C16.1647 26.5052 16.2151 26.4782 16.2497 26.4513C16.2855 26.4254 16.3392 26.3952 16.3705 26.3855C16.4019 26.3758 16.4533 26.3467 16.4858 26.3218C16.5182 26.296 16.5697 26.2679 16.601 26.2571C16.6323 26.2474 16.6815 26.2205 16.7095 26.1978C16.7386 26.1752 16.7912 26.146 16.8259 26.1342C16.8617 26.1212 16.9153 26.0921 16.9444 26.0684C16.9746 26.0447 17.0216 26.0177 17.0507 26.0091C17.0798 25.9994 17.1313 25.9702 17.1659 25.9443C17.2006 25.9185 17.2543 25.8893 17.2845 25.8796C17.3158 25.8699 17.3662 25.843 17.3964 25.8192C17.4266 25.7966 17.4814 25.7664 17.5161 25.7545C17.5519 25.7416 17.6045 25.7125 17.6324 25.6898C17.6615 25.6672 17.7107 25.6391 17.7421 25.6272C17.7745 25.6154 17.8271 25.5863 17.8595 25.5625C17.892 25.5377 17.9434 25.5097 17.9736 25.5C18.0038 25.4903 18.0564 25.4622 18.09 25.4374C18.1235 25.4115 18.1761 25.3824 18.2063 25.3716C18.2354 25.3619 18.288 25.3317 18.3226 25.3058C18.3562 25.2799 18.4021 25.2551 18.4222 25.2497C18.4703 25.2368 18.5475 25.1937 18.5755 25.1635C18.5867 25.1516 18.6213 25.1333 18.6538 25.1235C18.7131 25.1052 18.7578 25.0793 18.8059 25.0373C18.8216 25.0243 18.8619 25.0027 18.8954 24.9909C18.929 24.979 18.9804 24.9499 19.0095 24.9262C19.0397 24.9035 19.0934 24.8744 19.1303 24.8615C19.1706 24.8485 19.2187 24.8226 19.25 24.7967C19.278 24.7719 19.3071 24.7525 19.3138 24.7525C19.3384 24.7525 19.4402 24.7007 19.4782 24.6695C19.4995 24.6511 19.5465 24.6252 19.5834 24.6101C19.6203 24.5961 19.6785 24.5648 19.7121 24.54C19.7456 24.5163 19.7982 24.4893 19.8273 24.4796C19.8564 24.4699 19.9011 24.4451 19.9268 24.4246C19.9526 24.4031 20.0029 24.375 20.0387 24.3621C20.0745 24.348 20.1304 24.3168 20.1629 24.2909C20.1942 24.2661 20.2255 24.2456 20.2322 24.2456C20.2557 24.2456 20.3654 24.1895 20.4 24.1604C20.4202 24.1431 20.4616 24.1205 20.4907 24.1108C20.5209 24.1 20.5779 24.0676 20.6182 24.0407C20.6585 24.0126 20.711 23.9835 20.7356 23.9759C20.7603 23.9684 20.8061 23.9436 20.8374 23.9209C20.8688 23.8972 20.9269 23.8659 20.965 23.8508C21.0041 23.8357 21.0567 23.8066 21.0813 23.7872C21.1071 23.7678 21.1619 23.7365 21.2033 23.7192C21.2446 23.7009 21.2995 23.6685 21.3241 23.6491C21.3487 23.6286 21.3901 23.606 21.4169 23.5984C21.4438 23.592 21.4908 23.5672 21.5221 23.5445C21.5858 23.4971 21.6284 23.4755 21.6709 23.4658C21.6865 23.4615 21.7257 23.4388 21.757 23.4151C21.7883 23.3903 21.8454 23.359 21.8823 23.3439C21.9203 23.3288 21.9763 23.2986 22.0065 23.2749C22.0367 23.2522 22.0859 23.2252 22.1172 23.2155C22.1474 23.2058 22.1966 23.1789 22.2257 23.1551C22.2559 23.1314 22.304 23.1044 22.3331 23.0937C22.3622 23.084 22.4159 23.0548 22.4506 23.0289C22.4853 23.0041 22.5423 22.9729 22.5759 22.961C22.6094 22.9491 22.6587 22.9222 22.6855 22.9006C22.7112 22.8801 22.7638 22.8521 22.8007 22.838C22.8388 22.8229 22.8902 22.7949 22.916 22.7744C22.9417 22.755 22.9965 22.7237 23.0368 22.7054C23.0782 22.687 23.1319 22.6579 23.1554 22.6396C23.1789 22.6202 23.2258 22.5954 23.2594 22.5835C23.293 22.5716 23.3455 22.5425 23.3757 22.5199C23.4071 22.4972 23.4585 22.4681 23.4921 22.4551C23.5256 22.4433 23.5771 22.4131 23.6073 22.3904C23.6375 22.3678 23.6879 22.3408 23.7203 22.3311C23.7952 22.3074 23.9877 22.1974 23.9821 22.1812C23.9787 22.1726 23.8042 22.1682 23.3332 22.1639L22.6877 22.1585L22.6575 22.1283L22.6262 22.0992L22.6229 21.561C22.6217 21.2277 22.624 21.0131 22.6307 20.9958C22.6374 20.9807 22.6553 20.9592 22.6732 20.9484C22.7012 20.93 22.7549 20.9279 23.3757 20.9214C23.7449 20.9182 24.0604 20.9139 24.0783 20.9117C24.1006 20.9106 24.1085 20.9041 24.1085 20.8869C24.1074 20.8739 24.1107 19.0921 24.1152 16.9263C24.1197 14.7595 24.1197 12.9701 24.1152 12.9486C24.1096 12.9194 24.1018 12.9097 24.085 12.9097C24.0548 12.9097 23.8601 12.8191 23.84 12.7954C23.831 12.7857 23.7829 12.7587 23.7337 12.7372C23.6845 12.7156 23.6286 12.6843 23.6084 12.6681C23.5894 12.6519 23.5413 12.625 23.5021 12.6088C23.463 12.5915 23.4093 12.5613 23.3825 12.543C23.3545 12.5236 23.3041 12.4955 23.2706 12.4804C23.2359 12.4653 23.1833 12.4351 23.152 12.4136C23.1218 12.3909 23.067 12.3607 23.0312 12.3456C22.9954 12.3294 22.9462 12.3025 22.9227 12.2841C22.8992 12.2658 22.8533 12.241 22.8198 12.2281C22.7873 12.2151 22.7347 12.1871 22.7045 12.1644C22.6732 12.1418 22.6173 12.1105 22.5815 12.0943C22.5446 12.0792 22.492 12.0501 22.464 12.0307C22.436 12.0113 22.3846 11.9821 22.3488 11.967C22.313 11.9519 22.2638 11.925 22.2403 11.9066C22.2168 11.8883 22.1642 11.8592 22.1251 11.8419C22.0859 11.8247 22.0378 11.7977 22.0188 11.7826C21.9998 11.7675 21.9483 11.7395 21.9024 11.719C21.8577 11.6996 21.8051 11.6704 21.7861 11.6553C21.7536 11.6284 21.6474 11.5723 21.6306 11.5723C21.6272 11.5723 21.5926 11.5518 21.5545 11.5259C21.5165 11.5 21.4628 11.4698 21.4348 11.459C21.4069 11.4482 21.3655 11.4256 21.342 11.4083C21.3196 11.3911 21.2637 11.3598 21.2189 11.3382C21.1753 11.3167 21.1205 11.2865 21.0981 11.2692C21.0768 11.253 21.0209 11.2228 20.975 11.2023C20.9292 11.1818 20.8766 11.1527 20.8576 11.1376C20.8374 11.1214 20.7905 11.0945 20.7513 11.0783C20.7122 11.061 20.6641 11.0341 20.6439 11.0179C20.6249 11.0028 20.5723 10.9737 20.5265 10.9532C20.4817 10.9338 20.4291 10.9046 20.4112 10.8906C20.3922 10.8755 20.3408 10.8464 20.2971 10.8248C20.2524 10.8033 20.1964 10.772 20.1741 10.7536C20.1506 10.7364 20.1047 10.7116 20.0712 10.6986C20.0387 10.6868 19.9805 10.6555 19.9425 10.6296C19.9056 10.6048 19.8564 10.5768 19.8351 10.5692C19.8139 10.5617 19.7691 10.5358 19.7367 10.5131C19.7042 10.4894 19.6449 10.457 19.6035 10.4387C19.5633 10.4214 19.5152 10.3945 19.4961 10.3794C19.4782 10.3643 19.429 10.3373 19.3888 10.3201C19.3485 10.3028 19.2959 10.2737 19.2735 10.2553C19.25 10.2381 19.1975 10.209 19.1572 10.1906C19.1158 10.1734 19.0587 10.1421 19.0297 10.1216C19.0006 10.1011 18.9525 10.0741 18.9223 10.0623C18.8921 10.0493 18.8428 10.0213 18.8115 9.99864C18.7813 9.97599 18.7276 9.94687 18.6941 9.93392C18.6605 9.9199 18.6079 9.89078 18.5766 9.86921C18.5464 9.84764 18.4927 9.81744 18.4591 9.80342C18.4256 9.78832 18.3752 9.76027 18.3473 9.74086C18.3193 9.72037 18.2622 9.68801 18.2186 9.66751C18.1761 9.64702 18.1202 9.61682 18.0956 9.59957C18.0709 9.58123 18.0284 9.55966 18.0005 9.54887C17.9725 9.53917 17.9289 9.51436 17.9031 9.49386C17.8774 9.47445 17.8226 9.44317 17.7812 9.42591C17.7409 9.40758 17.6917 9.38061 17.6716 9.36551C17.6526 9.34933 17.6 9.32021 17.5552 9.3008C17.5094 9.28031 17.4568 9.25118 17.4378 9.23608C17.4176 9.21991 17.3662 9.19078 17.3237 9.17245C17.28 9.15303 17.2286 9.12499 17.2096 9.10881C17.1905 9.09263 17.1402 9.06459 17.0977 9.04625C17.0563 9.02792 17.0071 9.00203 16.9892 8.98693C16.9713 8.97291 16.9165 8.94055 16.8661 8.91682C16.8169 8.8931 16.7587 8.85966 16.7375 8.84348C16.7151 8.82622 16.6692 8.80249 16.6357 8.78847C16.6021 8.77553 16.5495 8.74641 16.5182 8.72484C16.488 8.70326 16.4332 8.67307 16.3974 8.65689C16.3616 8.64071 16.3157 8.61482 16.2967 8.59972C16.2766 8.58354 16.224 8.55442 16.1793 8.53393C16.1345 8.51451 16.0786 8.48431 16.0562 8.46706C16.0338 8.4498 15.9824 8.4196 15.9421 8.40126C15.9018 8.38293 15.8582 8.3592 15.8436 8.34733C15.8112 8.32145 15.8034 8.28585 15.828 8.27183C15.8414 8.26428 15.819 8.26213 15.7519 8.26213C15.6993 8.2632 15.6658 8.26536 15.677 8.2686ZM15.8951 11.6931C15.9141 11.7071 15.9499 11.733 15.9757 11.7524C16.0014 11.7718 16.0484 11.7945 16.0808 11.8031C16.1155 11.8128 16.1602 11.8365 16.1893 11.8613C16.2162 11.884 16.2676 11.9142 16.3034 11.9282C16.3392 11.9422 16.3884 11.9692 16.4131 11.9886C16.4377 12.008 16.4858 12.0339 16.5205 12.0469C16.554 12.0587 16.6055 12.0878 16.6323 12.1116C16.6636 12.1375 16.7106 12.1623 16.7554 12.1774C16.8024 12.1925 16.8471 12.2162 16.8818 12.2464C16.9176 12.2777 16.9579 12.2992 16.9992 12.31C17.035 12.3208 17.0787 12.3435 17.1033 12.364C17.148 12.4028 17.195 12.4287 17.2409 12.4384C17.2577 12.4427 17.2946 12.4653 17.3248 12.4891C17.3561 12.5139 17.4098 12.5419 17.449 12.5549C17.4881 12.5667 17.5396 12.5937 17.5642 12.6131C17.5888 12.6336 17.638 12.6595 17.6738 12.6724C17.7644 12.7037 17.789 12.7177 17.8081 12.7458C17.8282 12.776 17.8897 12.8073 17.9479 12.817C17.9759 12.8224 18.0105 12.8418 18.0497 12.8763C18.0888 12.9108 18.1258 12.9324 18.1593 12.9399C18.1873 12.9475 18.2365 12.9723 18.269 12.9971C18.3003 13.0208 18.3495 13.051 18.3775 13.0629C18.4054 13.0747 18.4457 13.0996 18.4681 13.119C18.5184 13.1621 18.5453 13.1761 18.6146 13.1966C18.6437 13.2042 18.6829 13.2257 18.7008 13.2441C18.7388 13.2829 18.7959 13.3142 18.8484 13.325C18.8697 13.3293 18.9133 13.3541 18.9469 13.38C18.9804 13.4059 19.0341 13.4371 19.0666 13.449C19.0979 13.4609 19.1516 13.4889 19.1829 13.5126C19.2154 13.5364 19.2668 13.5633 19.2959 13.572C19.3261 13.5817 19.3764 13.6108 19.4078 13.6378C19.4447 13.668 19.4883 13.6906 19.5275 13.7025C19.5677 13.7133 19.608 13.7359 19.6438 13.7661C19.6807 13.7985 19.7199 13.82 19.7624 13.8308C19.7982 13.8416 19.8418 13.8643 19.8664 13.8848C19.8888 13.9042 19.9347 13.9333 19.966 13.9495C19.9984 13.9646 20.0342 13.9905 20.0443 14.0066C20.0633 14.0347 20.0644 14.1598 20.0678 16.4022C20.07 18.7642 20.07 18.7686 20.0477 18.8042C20.0354 18.8236 20.0186 18.8419 20.0107 18.8451C20.004 18.8484 19.9638 18.8743 19.9235 18.9034C19.8832 18.9325 19.8295 18.9627 19.8038 18.9703C19.7792 18.9789 19.7322 19.0048 19.6997 19.0285C19.6662 19.0522 19.6091 19.0835 19.5733 19.0986C19.5364 19.1126 19.485 19.1407 19.4592 19.1612C19.4335 19.1817 19.3809 19.2108 19.3418 19.2259C19.3037 19.241 19.2512 19.2701 19.2265 19.2895C19.2008 19.3089 19.1527 19.3359 19.1192 19.3488C19.0856 19.3618 19.033 19.3909 19.0017 19.4136C18.9715 19.4362 18.9156 19.4675 18.8786 19.4837C18.8417 19.4988 18.7936 19.5257 18.7712 19.543C18.7489 19.5592 18.6974 19.5883 18.656 19.6066C18.6146 19.625 18.5643 19.6519 18.5453 19.6681C18.5262 19.6843 18.4748 19.7123 18.4312 19.7317C18.3887 19.7511 18.3405 19.7803 18.3249 19.7964C18.3092 19.8126 18.2667 19.8396 18.2298 19.8558C18.1929 19.8719 18.1381 19.9043 18.1101 19.9291C18.081 19.9528 18.0329 19.9798 18.0027 19.9895C17.9725 19.9992 17.9278 20.024 17.9043 20.0434C17.8506 20.0866 17.8237 20.1017 17.7566 20.12C17.723 20.1297 17.6872 20.1513 17.6593 20.1793C17.6257 20.2117 17.5966 20.2279 17.5418 20.2441C17.487 20.2602 17.4579 20.2764 17.4243 20.3088C17.3964 20.3368 17.3606 20.3584 17.3281 20.367C17.2588 20.3875 17.2174 20.4091 17.1849 20.4425C17.1704 20.4576 17.1245 20.4824 17.0831 20.4975C17.0418 20.5126 16.9959 20.5374 16.9813 20.5525C16.95 20.586 16.893 20.6151 16.8314 20.6313C16.8035 20.6377 16.7688 20.6604 16.742 20.6863C16.7084 20.7186 16.6793 20.7348 16.6245 20.751C16.5697 20.7672 16.5406 20.7833 16.507 20.8157C16.4779 20.8448 16.4421 20.8653 16.3963 20.8804C16.356 20.8934 16.3023 20.9214 16.2676 20.9494C16.2341 20.9764 16.186 21.0023 16.1602 21.0088C16.1312 21.0152 16.0875 21.04 16.0528 21.0692C16.0148 21.1004 15.9712 21.1253 15.9343 21.135C15.9029 21.1436 15.8649 21.1598 15.8504 21.1706C15.7698 21.231 15.7284 21.2331 15.6613 21.177C15.6434 21.163 15.602 21.1447 15.5696 21.135C15.536 21.1253 15.4823 21.0972 15.4454 21.0692C15.4096 21.0433 15.3615 21.0163 15.3391 21.0098C15.3011 21.0001 15.2306 20.9581 15.2161 20.9354C15.2071 20.9225 15.1255 20.8847 15.0863 20.8761C15.0684 20.8718 15.0304 20.847 15.0013 20.8211C14.9677 20.7909 14.9286 20.7682 14.8928 20.7585C14.8189 20.737 14.801 20.7273 14.7541 20.682C14.7294 20.6582 14.6936 20.6388 14.6523 20.627C14.6153 20.6162 14.5672 20.5924 14.5359 20.5666C14.5068 20.5428 14.4554 20.5137 14.4218 20.5018C14.3882 20.49 14.3413 20.463 14.3178 20.4425C14.2741 20.4048 14.2574 20.3961 14.1365 20.3519C14.0717 20.3271 14.0705 20.3271 14.0549 20.3476C14.0415 20.3638 14.0392 20.3918 14.0448 20.4813C14.0482 20.5439 14.0515 20.9257 14.0526 21.3302C14.0538 22.0431 14.0526 22.0658 14.0314 22.1143C13.9989 22.1844 13.924 22.2513 13.8502 22.275C13.8166 22.2869 13.7607 22.316 13.726 22.3419C13.6913 22.3667 13.651 22.3915 13.6365 22.3958C13.5895 22.4098 13.5213 22.4465 13.4754 22.4821C13.4508 22.5004 13.4072 22.5253 13.377 22.535C13.3479 22.5457 13.2953 22.5749 13.2595 22.5997C13.2248 22.6256 13.1722 22.6536 13.1443 22.6622C13.1163 22.6719 13.0626 22.7011 13.0268 22.7269C12.991 22.7539 12.9362 22.7841 12.9049 22.7949C12.8747 22.8057 12.8254 22.8326 12.7975 22.8553C12.7695 22.8779 12.7192 22.906 12.6845 22.9189C12.6509 22.9308 12.5939 22.9621 12.5581 22.989C12.5234 23.016 12.4865 23.0376 12.4775 23.0376C12.454 23.0376 12.397 23.0678 12.3343 23.1131C12.3041 23.1357 12.2538 23.1627 12.2225 23.1724C12.1923 23.1821 12.143 23.2091 12.114 23.2328C12.086 23.2554 12.0334 23.2846 11.9965 23.2975C11.9607 23.3105 11.9081 23.3396 11.879 23.3622C11.8511 23.3849 11.7996 23.414 11.7649 23.4259C11.7291 23.4388 11.681 23.469 11.6508 23.4971C11.6027 23.5402 11.5927 23.5445 11.5412 23.5445C11.4707 23.5445 11.4383 23.5251 11.4237 23.4733C11.417 23.4485 11.417 21.8015 11.4237 18.7362C11.4338 14.78 11.4383 14.0336 11.4506 14.0088C11.4595 13.9926 11.4897 13.97 11.5199 13.9559C11.549 13.943 11.5949 13.9128 11.6229 13.8902C11.6497 13.8675 11.6922 13.8427 11.7179 13.8362C11.784 13.819 11.8242 13.7974 11.8779 13.7499C11.9048 13.7262 11.935 13.7079 11.945 13.7079C11.9786 13.7068 12.0614 13.6658 12.105 13.6281C12.1274 13.6086 12.171 13.5838 12.2012 13.573C12.2314 13.5623 12.284 13.5342 12.3176 13.5094C12.3511 13.4857 12.3981 13.4598 12.4227 13.4522C12.4865 13.4307 12.5089 13.4177 12.548 13.3821C12.5681 13.3649 12.6174 13.3379 12.6588 13.3239C12.7057 13.3077 12.755 13.2797 12.7874 13.2516C12.8232 13.2204 12.859 13.2009 12.8982 13.1912C12.9362 13.1826 12.9753 13.1621 13.0089 13.133C13.038 13.1093 13.0839 13.0801 13.1118 13.0683C13.1398 13.0564 13.1823 13.0316 13.2069 13.0122C13.2573 12.9734 13.3042 12.9486 13.349 12.9378C13.3658 12.9345 13.4072 12.9076 13.4418 12.8774C13.4922 12.8364 13.519 12.8224 13.5682 12.8116C13.6175 12.8019 13.6421 12.7889 13.6868 12.7479C13.7282 12.7102 13.7618 12.6918 13.8076 12.6789C13.8434 12.6692 13.8893 12.6476 13.9083 12.6314C13.9598 12.5894 13.9945 12.571 14.0482 12.5559C14.0739 12.5484 14.1209 12.5236 14.1544 12.4999C14.1869 12.4761 14.2406 12.447 14.273 12.4351C14.3066 12.4233 14.3603 12.392 14.3938 12.3661C14.4274 12.3392 14.471 12.3143 14.49 12.3111C14.5437 12.2992 14.5885 12.2755 14.6399 12.2302C14.6657 12.2076 14.7026 12.186 14.7238 12.1817C14.7764 12.1709 14.8223 12.1472 14.8704 12.1051C14.8928 12.0857 14.9375 12.0609 14.9688 12.0501C15.0002 12.0393 15.055 12.0102 15.0897 11.9843C15.1243 11.9595 15.1657 11.9358 15.1814 11.9315C15.2273 11.9207 15.2731 11.8948 15.3246 11.8516C15.3559 11.8258 15.3928 11.8063 15.4297 11.7977C15.4689 11.7891 15.5025 11.7718 15.5338 11.7438C15.6076 11.678 15.6333 11.6694 15.753 11.6694C15.847 11.6694 15.8649 11.6726 15.8951 11.6931Z" fill="white"/>
<path d="M15.6545 14.5755C15.6299 14.596 15.5762 14.6273 15.5348 14.6457C15.4923 14.6629 15.4397 14.692 15.4174 14.7093C15.395 14.7265 15.3413 14.7567 15.2977 14.7751C15.2551 14.7945 15.207 14.8215 15.1914 14.8355C15.1757 14.8495 15.1254 14.8775 15.0795 14.898C15.0336 14.9175 14.98 14.9477 14.9598 14.9638C14.9397 14.98 14.8927 15.0048 14.8547 15.0199C14.8155 15.035 14.764 15.0641 14.7394 15.0836C14.7137 15.103 14.6589 15.1342 14.6153 15.1526C14.5728 15.172 14.5191 15.2011 14.4967 15.2184C14.4743 15.2346 14.4228 15.2637 14.3815 15.282C14.3401 15.3003 14.2908 15.3273 14.2718 15.3424C14.2528 15.3575 14.2114 15.3834 14.1801 15.3985C14.1488 15.4136 14.1107 15.4363 14.0973 15.4492C14.0335 15.5042 14.0369 15.4589 14.038 16.4264C14.038 16.9171 14.0414 17.3259 14.0459 17.3356C14.057 17.3647 14.226 17.4834 14.2897 17.5071C14.321 17.5201 14.3647 17.5427 14.3859 17.5589C14.4352 17.5945 14.4777 17.6171 14.5437 17.6441C14.5716 17.6549 14.613 17.6797 14.6332 17.6969C14.6544 17.7153 14.7059 17.7433 14.7473 17.7595C14.7898 17.7757 14.8435 17.8059 14.867 17.8264C14.8916 17.8458 14.943 17.8749 14.9811 17.89C15.0202 17.9051 15.0694 17.931 15.0929 17.9483C15.1153 17.9666 15.1679 17.9946 15.2093 18.013C15.2507 18.0313 15.3021 18.0604 15.3245 18.0766C15.3469 18.0939 15.3972 18.1219 15.4375 18.1402C15.4778 18.1575 15.5303 18.1866 15.555 18.206C15.6165 18.2535 15.6646 18.2708 15.7351 18.2708C15.8055 18.2708 15.838 18.2589 15.9141 18.2039C15.9454 18.1812 15.9924 18.1564 16.0181 18.1467C16.0449 18.1381 16.0975 18.109 16.1367 18.0831C16.1747 18.0561 16.2318 18.0248 16.262 18.0141C16.2922 18.0033 16.3447 17.9741 16.3783 17.9504C16.4119 17.9267 16.4644 17.8976 16.4969 17.8846C16.5282 17.8728 16.5819 17.8436 16.6143 17.8199C16.6468 17.7973 16.6971 17.7703 16.7262 17.7595C16.7553 17.7498 16.8012 17.7239 16.8303 17.7034C16.8582 17.6818 16.9097 17.6527 16.9455 17.6376C16.9802 17.6225 17.0327 17.5945 17.0607 17.574C17.0887 17.5546 17.1446 17.5244 17.1838 17.5071C17.2229 17.4899 17.271 17.464 17.2889 17.4489C17.3079 17.4349 17.3504 17.4068 17.3851 17.3885C17.4198 17.3691 17.4545 17.3475 17.4612 17.3389C17.4701 17.3281 17.4735 17.0843 17.4713 16.4188L17.4679 15.5128L17.4377 15.4751C17.4198 15.4524 17.3806 15.4255 17.3426 15.4082C17.3068 15.392 17.2587 15.364 17.2363 15.3467C17.214 15.3295 17.158 15.2993 17.1133 15.2799C17.0685 15.2594 17.016 15.2302 16.9958 15.2141C16.9768 15.199 16.9242 15.1698 16.8784 15.1493C16.8336 15.1299 16.7799 15.1008 16.7609 15.0846C16.7419 15.0685 16.6915 15.0404 16.649 15.0221C16.6076 15.0048 16.5551 14.9757 16.5327 14.9584C16.5103 14.9412 16.4577 14.9121 16.4152 14.8937C16.3727 14.8765 16.3257 14.8495 16.3101 14.8355C16.2944 14.8215 16.2441 14.7934 16.1982 14.7729C16.1512 14.7524 16.0975 14.7233 16.0785 14.7071C16.0595 14.691 16.0091 14.664 15.9677 14.6457C15.9252 14.6273 15.8704 14.596 15.8447 14.5755C15.7798 14.5238 15.7172 14.5238 15.6545 14.5755Z" fill="white"/>
<line x1="34.9688" y1="8.42188" x2="34.9688" y2="27.1249" stroke="white"/>
</svg>
