<svg width="36" height="140" viewBox="0 0 36 140" fill="none" xmlns="http://www.w3.org/2000/svg">
<path d="M17.8992 139.646H27.7964V137.558V135.47H25.8109H23.8254V133.203C23.8254 130.964 23.8174 130.659 23.7549 130.143C23.5634 128.618 22.9385 127.133 21.975 125.91C20.8119 124.437 19.1288 123.4 17.355 123.057C17.1937 123.027 17.0586 122.997 17.0546 122.993C17.0506 122.989 19.4654 122.984 22.4205 122.984H27.7964V121.408V119.831H19.6126H11.4287V121.408V122.984L13.1159 122.986C14.0451 122.989 14.7728 122.997 14.7345 123.006C14.6962 123.016 14.5592 123.044 14.4322 123.07C13.1824 123.315 11.9347 123.932 10.8946 124.825C10.5842 125.094 10.0056 125.712 9.74763 126.052C8.80427 127.303 8.26204 128.654 8.04837 130.282C8.01814 130.512 8.0141 130.983 8.00806 135.09L8 139.646H17.8992ZM11.973 130.865C12.0677 129.883 12.491 128.965 13.1643 128.279C13.8113 127.621 14.6277 127.218 15.5307 127.116C15.9419 127.069 16.4801 127.113 16.9014 127.226C17.3106 127.337 17.7863 127.563 18.1451 127.819C18.9312 128.379 19.536 129.28 19.7637 130.226C19.8867 130.742 19.8827 130.627 19.8887 133.152L19.8968 135.47H15.9238H11.9528V133.277C11.9528 131.905 11.9609 131.002 11.973 130.865Z" fill="white"/>
<path d="M10.3322 85.3471C10.4229 86.1759 10.566 86.6979 10.8926 87.3754C11.3904 88.4109 12.1685 89.2419 13.13 89.7703C13.9343 90.2113 14.6458 90.386 15.6355 90.386H16.0851V91.153V91.92H17.5666H19.0482V91.153V90.386H23.4223H27.7964V88.82V87.254L23.4263 87.2497L19.0582 87.2433L19.0522 85.3088L19.0482 83.3763H17.5666H16.0851V85.3194V87.2604L15.6557 87.2476C15.4219 87.2391 15.1639 87.2199 15.0853 87.2029C14.2729 87.0303 13.6239 86.4188 13.384 85.5985C13.2913 85.2789 13.2832 85.149 13.2832 83.7854V82.5027H11.8016H10.3201L10.3221 83.8919C10.3241 84.6568 10.3302 85.3109 10.3322 85.3471Z" fill="white"/>
<path d="M13.767 101.399H16.1052V102.166V102.933H17.5868H19.0683V102.168V101.401L21.0578 101.393C22.9768 101.387 23.0594 101.384 23.3175 101.34C24.4684 101.144 25.444 100.622 26.2503 99.7694C26.6696 99.3241 26.9699 98.8831 27.24 98.3099C27.5726 97.6026 27.7279 96.9911 27.7742 96.1985C27.7863 96.0067 27.7964 95.3143 27.7964 94.6602V93.4734H26.3148H24.8333V94.7347C24.8333 95.4293 24.8232 96.0706 24.8131 96.158C24.7688 96.5223 24.6257 96.9208 24.4301 97.2254C24.1641 97.6366 23.7347 97.9797 23.2872 98.1395C22.9264 98.2652 22.8861 98.2673 20.8905 98.263L19.0784 98.2567L19.0723 95.864L19.0683 93.4734H17.5868H16.1052V95.8704V98.2673H13.767H11.4287V99.8333V101.399H13.767Z" fill="white"/>
<path d="M15.6636 111.863C15.8208 113.757 16.7662 115.459 18.2316 116.488C19.058 117.07 19.9752 117.417 21.0435 117.556C21.3721 117.598 22.4142 117.592 22.767 117.545C23.3535 117.466 23.9119 117.321 24.3634 117.134C26.236 116.354 27.4757 114.779 27.8768 112.672C27.9957 112.05 28.034 111.217 27.9675 110.676C27.8587 109.796 27.4696 108.777 26.9133 107.932C26.7762 107.721 26.4477 107.275 26.2965 107.092C26.236 107.018 26.1897 106.949 26.1937 106.941C26.1977 106.932 26.5605 106.653 26.998 106.321L27.7942 105.716L27.7962 105.337V104.959H21.9506H16.105V105.337V105.716L16.8004 106.329L17.4979 106.943L17.3951 107.064C16.621 107.981 16.101 108.927 15.8349 109.896C15.6615 110.527 15.6071 111.17 15.6636 111.863ZM18.6952 110.763C18.8565 109.866 19.5075 108.991 20.3562 108.53C20.6484 108.373 20.9387 108.26 21.233 108.194C21.5091 108.13 22.128 108.125 22.4041 108.183C22.7791 108.264 23.2407 108.458 23.5612 108.669C24.3029 109.161 24.8472 109.975 24.9863 110.797C25.0346 111.079 25.0286 111.562 24.9762 111.884C24.7524 113.245 23.8171 114.162 22.4384 114.368C22.1501 114.411 21.5273 114.411 21.237 114.368C20.0357 114.187 19.1608 113.463 18.8161 112.368C18.6529 111.843 18.6065 111.249 18.6952 110.763Z" fill="white"/>
<path d="M15.6613 76.5271C15.7842 77.9632 16.3587 79.2948 17.3021 80.3239C18.2696 81.3785 19.4992 82.0241 20.9425 82.235C21.267 82.2819 22.039 82.3011 22.3978 82.2691C23.8451 82.1392 25.1694 81.5149 26.1813 80.4879C27.1287 79.5228 27.7415 78.2721 27.9471 76.8765C27.9995 76.5293 28.0096 75.6664 27.9693 75.2786C27.8846 74.4945 27.7012 73.8553 27.3585 73.1416C26.6369 71.6459 25.4073 70.5444 23.8492 69.9968C22.4281 69.4961 20.6522 69.5643 19.2594 70.1736C18.7736 70.3867 18.1769 70.7574 17.7778 71.0941C17.5379 71.2965 17.0683 71.7993 16.8909 72.0401C16.2338 72.9392 15.8407 73.9448 15.6915 75.1081C15.6552 75.3936 15.6371 76.2438 15.6613 76.5271ZM18.6647 75.66C18.7695 74.5542 19.3622 73.6678 20.3196 73.1821C20.7651 72.9562 21.1582 72.8561 21.6883 72.8348C22.6901 72.7964 23.5468 73.1267 24.1777 73.7957C24.6837 74.3326 24.9538 74.9611 25.0142 75.7431C25.0666 76.4249 24.9074 77.064 24.5325 77.6649C24.3793 77.9142 23.9721 78.3424 23.7262 78.515C23.2424 78.8538 22.7163 79.0412 22.1076 79.0924C21.2972 79.1606 20.501 78.9475 19.8721 78.4937C19.0155 77.8737 18.5579 76.7977 18.6647 75.66Z" fill="white"/>
<path d="M15.6636 19.9032C15.8208 21.7973 16.7662 23.4997 18.2316 24.5288C19.058 25.1104 19.9752 25.4577 21.0435 25.5962C21.3721 25.6388 22.4142 25.6324 22.767 25.5856C23.3535 25.5067 23.9119 25.3619 24.3634 25.1744C26.236 24.3946 27.4757 22.82 27.8768 20.7128C27.9957 20.0907 28.034 19.2576 27.9675 18.7165C27.8587 17.8365 27.4696 16.8181 26.9133 15.9722C26.7762 15.7613 26.4477 15.316 26.2965 15.1328C26.236 15.0582 26.1897 14.99 26.1937 14.9815C26.1977 14.973 26.5605 14.6939 26.998 14.3615L27.7942 13.7564L27.7962 13.3771V13H21.9506H16.105V13.3771V13.7564L16.8004 14.37L17.4979 14.9836L17.3951 15.1051C16.621 16.0212 16.101 16.9672 15.8349 17.9367C15.6615 18.5673 15.6071 19.2108 15.6636 19.9032ZM18.6952 18.8038C18.8565 17.9068 19.5075 17.0311 20.3562 16.5709C20.6484 16.4133 20.9387 16.3003 21.233 16.2343C21.5091 16.1704 22.128 16.1661 22.4041 16.2236C22.7791 16.3046 23.2407 16.4985 23.5612 16.7094C24.3029 17.2016 24.8472 18.0155 24.9863 18.8379C25.0346 19.1191 25.0286 19.6028 24.9762 19.9245C24.7524 21.286 23.8171 22.2021 22.4384 22.4088C22.1501 22.4514 21.5273 22.4514 21.237 22.4088C20.0357 22.2277 19.1608 21.5033 18.8161 20.4082C18.6529 19.884 18.6065 19.2896 18.6952 18.8038Z" fill="white"/>
<path d="M15.9137 39.3558C15.9742 39.848 16.1072 40.3188 16.3249 40.7961C16.4821 41.1434 16.6152 41.3735 16.8268 41.6675C16.9276 41.8103 16.972 41.8891 16.9599 41.9062C16.9498 41.9211 16.7482 42.115 16.5124 42.3408L16.085 42.7477V43.1206V43.4913H21.9407H27.7964V41.9253V40.3593L23.9504 40.3551L20.1064 40.3487L19.9552 40.2997C19.4735 40.142 19.0885 39.7585 18.9353 39.2834C18.8909 39.1449 18.8788 39.0639 18.8708 38.853C18.8607 38.5291 18.895 38.3416 19.0179 38.0838C19.1832 37.7387 19.4009 37.515 19.7295 37.3509C20.0278 37.2018 19.929 37.206 22.3035 37.206C23.4787 37.206 25.1961 37.1996 26.1173 37.1911L27.7964 37.1783V35.6145V34.0527H23.9907C19.8424 34.0527 20.0681 34.0591 19.7778 33.9291C19.3808 33.7544 19.0764 33.4114 18.9312 32.9831C18.8627 32.7743 18.8446 32.361 18.897 32.1288C19.0018 31.6494 19.3545 31.2105 19.7839 31.0208C20.0721 30.893 19.8625 30.8994 24.0068 30.8994H27.7964V29.3334V27.7674H23.9705C21.4186 27.7674 20.0701 27.7759 19.923 27.7908C18.5664 27.9293 17.3469 28.707 16.6031 29.9087C16.4378 30.1771 16.204 30.6906 16.1072 30.9995C15.9399 31.5279 15.8694 32.067 15.8895 32.6572C15.9198 33.5158 16.1092 34.1933 16.4963 34.8048C16.6837 35.1052 16.847 35.2906 17.1836 35.5931L17.2441 35.6485L17.1635 35.7167C17.0123 35.8446 16.6595 36.2387 16.5426 36.4134C16.2503 36.8438 16.0387 37.4276 15.9339 38.0796C15.8875 38.3672 15.8774 39.049 15.9137 39.3558Z" fill="white"/>
<path d="M21.9407 67.4402H27.7964V65.8742V64.3082H24.5249C22.5333 64.3082 21.1889 64.2997 21.084 64.2869C20.2072 64.1803 19.4735 63.5582 19.1993 62.6889C19.0784 62.3075 19.0824 62.3629 19.0744 60.6797L19.0663 59.1308H17.5848H16.1052V60.5519C16.1052 62.0412 16.1193 62.4013 16.1879 62.8338C16.3411 63.8054 16.7603 64.7577 17.363 65.5077L17.4759 65.6505L17.3509 65.7463C17.2804 65.7996 16.97 66.0318 16.6595 66.2641L16.0951 66.6881L16.0891 67.0631L16.0851 67.4402H21.9407Z" fill="white"/>
<path d="M19.4144 57.4233C21.406 57.4233 22.8593 57.4148 23.0286 57.402C23.8934 57.3381 24.5585 57.1485 25.2761 56.7607C26.7254 55.9809 27.6748 54.5619 27.949 52.7637C27.9994 52.4313 28.0095 51.6515 27.9691 51.3511C27.828 50.3305 27.3201 49.2524 26.54 48.3171C26.4191 48.1722 26.417 48.1701 26.4594 48.136C26.4815 48.1168 26.7899 47.8803 27.1467 47.6119L27.7938 47.1218L27.7958 46.7426V46.3654H21.9401H16.0844V47.9421V49.5188L19.5152 49.523L22.948 49.5294L23.1415 49.5869C23.6736 49.7425 24.0707 49.9875 24.4295 50.3838C24.8932 50.8951 25.0967 51.4768 25.0363 52.116C24.9818 52.7019 24.7823 53.1728 24.4275 53.5499C24.1151 53.8823 23.7079 54.1038 23.1838 54.2317L22.9883 54.2786L19.5354 54.2849L16.0844 54.2935V55.8573V57.4233H19.4144Z" fill="white"/>
<path d="M8.984 6.808C8.984 5.832 9.2 4.96 9.632 4.192C10.064 3.408 10.672 2.8 11.456 2.368C12.224 1.936 13.104 1.72 14.096 1.72C15.072 1.72 15.944 1.936 16.712 2.368C17.48 2.8 18.088 3.408 18.536 4.192C18.968 4.96 19.184 5.832 19.184 6.808C19.184 7.784 18.968 8.664 18.536 9.448C18.088 10.216 17.48 10.824 16.712 11.272C15.944 11.704 15.072 11.92 14.096 11.92C13.104 11.92 12.224 11.704 11.456 11.272C10.672 10.824 10.064 10.216 9.632 9.448C9.2 8.664 8.984 7.784 8.984 6.808ZM17.96 6.808C17.96 5.656 17.608 4.736 16.904 4.048C16.184 3.344 15.248 2.992 14.096 2.992C12.928 2.992 11.992 3.344 11.288 4.048C10.568 4.736 10.208 5.656 10.208 6.808C10.208 7.96 10.568 8.88 11.288 9.568C11.992 10.256 12.928 10.6 14.096 10.6C15.264 10.6 16.2 10.256 16.904 9.568C17.608 8.88 17.96 7.96 17.96 6.808ZM13.136 4.552C13.488 4.552 13.792 4.64 14.048 4.816C14.304 4.976 14.496 5.208 14.624 5.512L16.592 4.264V6.136L14.792 7.168V7.312H16.592V8.92H11.456V6.4C11.456 5.84 11.616 5.392 11.936 5.056C12.24 4.72 12.64 4.552 13.136 4.552ZM13.592 7.336V6.568C13.592 6.456 13.56 6.36 13.496 6.28C13.432 6.2 13.336 6.16 13.208 6.16C12.968 6.16 12.848 6.296 12.848 6.568V7.336H13.592Z" fill="white"/>
</svg>
