<svg width="171" height="42" viewBox="0 0 171 42" fill="none" xmlns="http://www.w3.org/2000/svg">
<g filter="url(#filter0_d)">
<path d="M-6.10352e-05 13.2677V26.5327H2.79844H5.59695V23.8716V21.2105H8.63533C11.6366 21.2105 12.0449 21.1997 12.736 21.116C14.7806 20.8593 16.771 20.0218 18.4101 18.7304C20.3833 17.1716 21.774 14.9157 22.2338 12.5383C22.2738 12.3222 22.3137 12.1411 22.3194 12.1357C22.3252 12.1303 22.3309 15.3669 22.3309 19.3275V26.5327H24.444H26.5572V15.5641V4.59549H24.444H22.3309L22.328 6.85676C22.3252 8.10221 22.3137 9.07749 22.3023 9.02616C22.288 8.97483 22.2509 8.79112 22.2166 8.62092C21.8883 6.94591 21.0601 5.2736 19.8636 3.87956C19.5038 3.46351 18.6757 2.68814 18.2188 2.34233C16.5425 1.07797 14.7321 0.351234 12.5504 0.0648613C12.242 0.0243378 11.6109 0.0189342 6.10525 0.010828L-6.10352e-05 2.28882e-05V13.2677ZM11.7679 5.32493C13.0844 5.45191 14.3152 6.01925 15.2347 6.92159C16.117 7.78882 16.6568 8.88298 16.7938 10.0933C16.8567 10.6444 16.7967 11.3658 16.6453 11.9304C16.4968 12.4788 16.1941 13.1164 15.8515 13.5973C15.1004 14.651 13.8925 15.4614 12.6246 15.7667C11.9336 15.9315 12.0878 15.9261 8.70386 15.9342L5.59695 15.945V10.6201V5.29792H8.53538C10.3744 5.29792 11.5852 5.30872 11.7679 5.32493Z" fill="white"/>
<path d="M72.7753 3.1258C71.6644 3.24738 70.9648 3.43919 70.0567 3.87685C68.6689 4.54416 67.5552 5.58698 66.847 6.87566C66.2559 7.95361 66.0217 8.90729 66.0217 10.2338V10.8363H64.9937H63.9657V12.8219V14.8076H64.9937H66.0217V20.6702V26.5327H68.1206H70.2195L70.2252 20.6756L70.2338 14.8212L72.8267 14.813L75.4167 14.8076V12.8219V10.8363H72.8124H70.2109L70.2281 10.2608C70.2395 9.94741 70.2652 9.60161 70.288 9.49624C70.5193 8.40749 71.3389 7.53756 72.4383 7.21607C72.8667 7.09179 73.0408 7.08099 74.8684 7.08099H76.5875V5.09529V3.10959L74.7257 3.11229C73.7005 3.115 72.8238 3.1231 72.7753 3.1258Z" fill="white"/>
<path d="M51.2608 7.72938V10.8633H50.2328H49.2048V12.849V14.8347H50.23H51.258L51.2694 17.5012C51.278 20.0731 51.2808 20.1839 51.3408 20.5297C51.6035 22.0723 52.3031 23.3799 53.4454 24.4606C54.0422 25.0225 54.6333 25.425 55.4015 25.7871C56.3496 26.2328 57.1691 26.4409 58.2314 26.503C58.4884 26.5192 59.4165 26.5327 60.2932 26.5327H61.8837V24.547V22.5613H60.1932C59.2623 22.5613 58.4027 22.5478 58.2857 22.5343C57.7974 22.4749 57.2634 22.2831 56.855 22.021C56.3039 21.6644 55.8441 21.0889 55.6299 20.4892C55.4615 20.0056 55.4586 19.9515 55.4643 17.2769L55.4729 14.8482L58.6797 14.8401L61.8837 14.8347V12.849V10.8633H58.6712H55.4586V7.72938V4.59549H53.3597H51.2608V7.72938Z" fill="white"/>
<path d="M37.2372 10.2716C34.6986 10.4823 32.4169 11.7494 31.0377 13.7135C30.2581 14.8212 29.7926 16.0504 29.607 17.4823C29.5499 17.9226 29.5585 19.3194 29.6213 19.7922C29.7269 20.5783 29.9211 21.3267 30.1724 21.9319C31.2176 24.4417 33.3279 26.1032 36.1521 26.6408C36.9859 26.8002 38.1025 26.8515 38.8278 26.7624C40.0071 26.6165 41.3721 26.0951 42.5058 25.3494C42.7885 25.1657 43.3853 24.7253 43.6309 24.5227C43.7309 24.4417 43.8223 24.3795 43.8337 24.3849C43.8451 24.3903 44.2192 24.8766 44.6647 25.4629L45.4757 26.53L45.984 26.5327H46.4894V18.698V10.8633H45.984H45.4757L44.6532 11.7953L43.8308 12.7301L43.668 12.5923C42.4401 11.5549 41.1722 10.8579 39.8729 10.5013C39.0277 10.2689 38.1653 10.196 37.2372 10.2716ZM38.7107 14.3349C39.9129 14.551 41.0866 15.4236 41.7034 16.561C41.9147 16.9528 42.066 17.3418 42.1546 17.7362C42.2402 18.1064 42.246 18.9358 42.1689 19.3059C42.0603 19.8084 41.8005 20.4271 41.5178 20.8566C40.8581 21.8508 39.7673 22.5803 38.665 22.7667C38.2881 22.8315 37.6398 22.8234 37.2086 22.7532C35.3839 22.4533 34.156 21.1997 33.879 19.3518C33.8219 18.9655 33.8219 18.1307 33.879 17.7416C34.1217 16.1315 35.0926 14.959 36.5604 14.497C37.2629 14.2781 38.0596 14.216 38.7107 14.3349Z" fill="white"/>
<path d="M84.5965 10.2683C82.6718 10.4331 80.8871 11.2031 79.5078 12.4674C78.0943 13.7642 77.229 15.4122 76.9463 17.3466C76.8835 17.7815 76.8578 18.8163 76.9006 19.2972C77.0748 21.2369 77.9115 23.0119 79.2879 24.3681C80.5815 25.6379 82.2577 26.4592 84.1282 26.7347C84.5936 26.805 85.7502 26.8185 86.2699 26.7645C87.3208 26.651 88.1774 26.4051 89.1341 25.9459C91.1387 24.9787 92.6151 23.3307 93.349 21.2423C94.02 19.3377 93.9287 16.9575 93.1119 15.0907C92.8264 14.4396 92.3295 13.6399 91.8783 13.105C91.607 12.7835 90.9331 12.154 90.6104 11.9163C89.4054 11.0356 88.0575 10.5087 86.4983 10.3088C86.1157 10.2602 84.9763 10.2359 84.5965 10.2683ZM85.7587 14.2937C87.2408 14.4342 88.4287 15.2285 89.0798 16.5118C89.3825 17.1088 89.5167 17.6357 89.5453 18.3462C89.5967 19.6889 89.1541 20.8371 88.2574 21.6827C87.5378 22.3608 86.6954 22.7228 85.6474 22.8039C84.7336 22.8741 83.8769 22.6607 83.0716 22.1582C82.7375 21.9529 82.1635 21.4071 81.9322 21.0775C81.4782 20.4291 81.2269 19.724 81.1583 18.9081C81.067 17.8221 81.3525 16.7549 81.9608 15.912C82.7917 14.7638 84.2338 14.1505 85.7587 14.2937Z" fill="white"/>
<path d="M160.488 10.2716C157.95 10.4823 155.668 11.7494 154.289 13.7135C153.509 14.8212 153.044 16.0504 152.858 17.4823C152.801 17.9226 152.81 19.3194 152.872 19.7922C152.978 20.5783 153.172 21.3267 153.424 21.9319C154.469 24.4417 156.579 26.1032 159.403 26.6408C160.237 26.8002 161.354 26.8515 162.079 26.7624C163.258 26.6165 164.623 26.0951 165.757 25.3494C166.04 25.1657 166.637 24.7253 166.882 24.5227C166.982 24.4417 167.073 24.3795 167.085 24.3849C167.096 24.3903 167.47 24.8766 167.916 25.4629L168.727 26.53L169.235 26.5327H169.741V18.698V10.8633H169.235H168.727L167.904 11.7953L167.082 12.7301L166.919 12.5923C165.691 11.5549 164.423 10.8579 163.124 10.5013C162.279 10.2689 161.416 10.196 160.488 10.2716ZM161.962 14.3349C163.164 14.551 164.338 15.4236 164.955 16.561C165.166 16.9528 165.317 17.3418 165.406 17.7362C165.491 18.1064 165.497 18.9358 165.42 19.3059C165.312 19.8084 165.052 20.4271 164.769 20.8566C164.109 21.8508 163.018 22.5803 161.916 22.7667C161.539 22.8315 160.891 22.8234 160.46 22.7532C158.635 22.4533 157.407 21.1997 157.13 19.3518C157.073 18.9655 157.073 18.1307 157.13 17.7416C157.373 16.1315 158.344 14.959 159.812 14.497C160.514 14.2781 161.311 14.216 161.962 14.3349Z" fill="white"/>
<path d="M134.416 10.6066C133.757 10.6877 133.126 10.866 132.486 11.1577C132.021 11.3685 131.712 11.5468 131.318 11.8304C131.127 11.9655 131.021 12.025 130.998 12.0088C130.978 11.9952 130.718 11.7251 130.416 11.409L129.87 10.8362H129.371H128.874V18.6845V26.5327H130.973H133.071L133.077 21.378L133.086 16.226L133.151 16.0234C133.363 15.3777 133.877 14.8617 134.514 14.6564C134.699 14.5969 134.808 14.5807 135.09 14.5699C135.524 14.5564 135.776 14.6023 136.121 14.7671C136.584 14.9887 136.884 15.2804 137.104 15.7208C137.304 16.1206 137.298 15.9883 137.298 19.1708C137.298 20.7458 137.306 23.0476 137.318 24.2823L137.335 26.5327H139.431H141.524V21.432C141.524 15.8721 141.516 16.1747 141.69 15.7856C141.924 15.2534 142.384 14.8455 142.958 14.6509C143.237 14.5591 143.791 14.5348 144.103 14.605C144.745 14.7455 145.334 15.2183 145.588 15.7937C145.759 16.1801 145.75 15.8991 145.75 21.4537V26.5327H147.849H149.948V21.405C149.948 17.9848 149.937 16.1774 149.917 15.9802C149.731 14.162 148.689 12.5275 147.078 11.5306C146.718 11.309 146.03 10.9956 145.616 10.866C144.908 10.6417 144.186 10.5472 143.395 10.5742C142.244 10.6147 141.336 10.8687 140.516 11.3874C140.113 11.6386 139.865 11.8575 139.459 12.3086L139.385 12.3897L139.294 12.2816C139.123 12.079 138.594 11.6062 138.36 11.4495C137.783 11.0578 137.001 10.7741 136.127 10.6336C135.741 10.5715 134.828 10.558 134.416 10.6066Z" fill="white"/>
<path d="M96.7755 18.6845V26.5327H98.8744H100.973V22.148C100.973 19.4788 100.985 17.6768 101.002 17.5363C101.145 16.3611 101.978 15.3777 103.144 15.0103C103.655 14.8482 103.58 14.8536 105.836 14.8428L107.912 14.832V12.8463V10.8633H106.008C104.012 10.8633 103.529 10.8822 102.949 10.974C101.647 11.1794 100.371 11.7413 99.3656 12.5491L99.1742 12.7004L99.0457 12.5329C98.9743 12.4383 98.6631 12.0223 98.3518 11.6062L97.7835 10.8498L97.281 10.8417L96.7755 10.8363V18.6845Z" fill="white"/>
<path d="M110.201 15.2986C110.201 17.9678 110.212 19.9156 110.229 20.1426C110.315 21.3016 110.569 22.1931 111.089 23.1549C112.134 25.0974 114.036 26.3698 116.446 26.7373C116.892 26.8048 117.937 26.8183 118.339 26.7643C119.707 26.5752 121.152 25.8943 122.406 24.8488C122.6 24.6867 122.603 24.684 122.649 24.7407C122.674 24.7705 122.991 25.1838 123.351 25.662L124.008 26.5292L124.516 26.5319H125.022V18.6837V10.8355H122.908H120.795L120.79 15.4336L120.781 20.0345L120.704 20.2939C120.495 21.0071 120.167 21.5393 119.636 22.0202C118.95 22.6416 118.171 22.9144 117.314 22.8334C116.529 22.7605 115.898 22.493 115.392 22.0175C114.947 21.5988 114.65 21.053 114.479 20.3506L114.416 20.0885L114.407 15.4606L114.396 10.8355H112.3H110.201V15.2986Z" fill="white"/>
<path d="M156.116 29.4527C155.556 29.5419 155.165 29.9985 155.256 30.4632C155.293 30.6496 155.347 30.7495 155.496 30.9008C155.642 31.0494 155.879 31.1656 156.127 31.2088C156.595 31.2926 157.121 31.0548 157.321 30.6739C157.418 30.4821 157.415 30.1633 157.309 29.9769C157.098 29.5932 156.604 29.3771 156.116 29.4527Z" fill="white"/>
<path d="M14.3639 30.7198V31.7734H13.9641H13.5644V32.4488V33.1242H13.9613H14.3611L14.3696 34.1022C14.3811 35.2099 14.3868 35.2342 14.6067 35.6502C14.8951 36.1905 15.3634 36.5877 16.0345 36.8497C16.4485 37.0145 16.6827 37.0443 17.5851 37.0605L18.3904 37.074V36.4121V35.7529L17.6707 35.7394C17.0197 35.7259 16.9311 35.7205 16.7655 35.6664C16.4257 35.5557 16.203 35.3801 16.0459 35.0964C15.9774 34.9748 15.9774 34.964 15.9688 34.0482L15.9602 33.1242H17.1767H18.3904V32.4488V31.7734H17.1767H15.9631V30.7198V29.6661H15.1635H14.3639V30.7198Z" fill="white"/>
<path d="M105.546 30.7198V31.7734H105.146H104.747V32.4488V33.1242H105.144H105.543L105.552 34.1022C105.563 35.2099 105.569 35.2342 105.789 35.6502C106.077 36.1905 106.546 36.5877 107.217 36.8497C107.631 37.0145 107.865 37.0443 108.767 37.0605L109.573 37.074V36.4121V35.7529L108.853 35.7394C108.202 35.7259 108.113 35.7205 107.948 35.6664C107.608 35.5557 107.385 35.3801 107.228 35.0964C107.16 34.9748 107.16 34.964 107.151 34.0482L107.143 33.1242H108.359H109.573V32.4488V31.7734H108.359H107.145V30.7198V29.6661H106.346H105.546V30.7198Z" fill="white"/>
<path d="M20.105 30.0045C19.788 30.0883 19.4939 30.3503 19.4168 30.6205C19.294 31.0501 19.631 31.5255 20.1279 31.6255C20.2078 31.6417 20.2192 31.6525 20.2021 31.7012C20.1678 31.8092 20.0536 32.0037 19.9651 32.1091C19.9165 32.1685 19.8794 32.2253 19.8823 32.2388C19.888 32.2496 20.025 32.3387 20.1907 32.4333L20.4877 32.6062L20.5648 32.5549C20.7218 32.4495 20.9788 32.155 21.0959 31.947C21.2701 31.6336 21.3643 31.3094 21.3815 30.9447C21.3986 30.6556 21.3957 30.634 21.3215 30.4935C21.1187 30.1018 20.5733 29.883 20.105 30.0045Z" fill="white"/>
<path d="M123.136 30.4201V30.874L122.859 30.8902C122.048 30.9307 121.391 31.3846 121.148 32.0708C121.071 32.2897 121.08 32.703 121.163 32.9354C121.24 33.1407 121.305 33.2541 121.457 33.4298L121.568 33.5567L121.442 33.7134C121.2 34.0052 121.097 34.2808 121.097 34.6374C121.097 35.4776 121.808 36.1368 122.827 36.2367L123.136 36.2692V36.669V37.0688H123.664H124.192V36.6636V36.2584H124.849H125.506V35.7342V35.2074L124.172 35.1993L122.836 35.1912L122.682 35.1102C122.436 34.9805 122.328 34.7698 122.376 34.5131C122.405 34.3834 122.622 34.1754 122.782 34.1295C122.862 34.1079 123.156 34.0971 123.718 34.0971H124.535V33.5702V33.0434H123.756C123.207 33.0434 122.933 33.0326 122.833 33.0083C122.351 32.8894 122.202 32.3545 122.579 32.0816C122.776 31.9385 122.793 31.9385 124.201 31.9358H125.506V31.4089V30.8821H124.864H124.221V30.4228V29.9636H123.678H123.136V30.4201Z" fill="white"/>
<path d="M0.686462 33.5297V37.0688H3.64203H6.5976V36.3664V35.664H4.48444H2.37128V32.8273V29.9906H1.52887H0.686462V33.5297Z" fill="white"/>
<path d="M33.1849 33.5297V37.0688H36.1405H39.096V36.3664V35.664H36.9829H34.8697V32.8273V29.9906H34.0273H33.1849V33.5297Z" fill="white"/>
<path d="M73.6207 33.5297V37.0688H74.4631H75.3056V33.5297V29.9906H74.4631H73.6207V33.5297Z" fill="white"/>
<path d="M130.935 33.5297V37.0688H131.778H132.62V33.5297V29.9906H131.778H130.935V33.5297Z" fill="white"/>
<path d="M150.846 31.5876C150.286 31.6362 149.555 31.9253 149.067 32.29L148.915 32.4034L148.598 32.0874L148.282 31.7713L148.09 31.774H147.896V35.4212V39.0684H148.696H149.495V37.8796C149.495 37.2258 149.501 36.6909 149.507 36.6909C149.509 36.6909 149.649 36.7504 149.812 36.8233C150.366 37.0665 150.712 37.1502 151.189 37.1502C152.742 37.1502 153.981 36.2884 154.287 34.9943C154.361 34.6782 154.353 33.9434 154.27 33.6516C154.193 33.3787 153.967 32.9465 153.784 32.7195C153.156 31.9334 151.994 31.4876 150.846 31.5876ZM151.483 32.9492C152.048 33.0518 152.482 33.3895 152.671 33.8704C152.719 34.0001 152.731 34.0893 152.731 34.354C152.731 34.7133 152.685 34.8835 152.519 35.1267C152.408 35.2942 152.145 35.5211 151.96 35.6184C151.628 35.7859 151.091 35.8453 150.697 35.7589C150.28 35.6643 149.872 35.3725 149.695 35.0429C149.564 34.7998 149.524 34.6377 149.524 34.354C149.524 34.2189 149.541 34.0487 149.564 33.9758C149.775 33.2193 150.589 32.7871 151.483 32.9492Z" fill="white"/>
<path d="M9.64402 31.6278C8.16766 31.8791 7.1682 32.8868 7.08824 34.2052C7.00828 35.5749 7.92494 36.688 9.44413 37.0608C9.82107 37.1527 10.4779 37.1743 10.8919 37.1122C11.3545 37.0392 11.8657 36.8528 12.2198 36.6286C12.4425 36.4881 12.7252 36.2611 12.8309 36.1396L12.9308 36.0234L12.3483 35.5344L11.7686 35.0481L11.6601 35.1967C11.3574 35.6155 10.7092 35.8721 10.1209 35.8127C10.0181 35.8046 9.93529 35.7857 9.93529 35.7749C9.93529 35.764 10.6092 35.0751 11.4345 34.2457C12.2598 33.4136 12.9337 32.7247 12.9337 32.7112C12.9337 32.668 12.5253 32.3006 12.334 32.1736C11.9399 31.9115 11.4145 31.7062 10.9148 31.6251C10.6092 31.5738 9.94386 31.5765 9.64402 31.6278ZM10.6463 32.9516C10.6949 32.9625 10.7349 32.9787 10.7349 32.9922C10.7349 33.0192 8.91584 35.0508 8.88157 35.0643C8.81303 35.0859 8.70738 34.6699 8.70738 34.3808C8.70738 33.6946 9.16713 33.1381 9.86676 32.9787C10.0438 32.9381 10.4921 32.9219 10.6463 32.9516Z" fill="white"/>
<path d="M42.1141 31.6278C40.6377 31.8791 39.6383 32.8868 39.5583 34.2052C39.4783 35.5749 40.395 36.688 41.9142 37.0608C42.2911 37.1527 42.9479 37.1743 43.362 37.1122C43.8246 37.0392 44.3358 36.8528 44.6899 36.6286C44.9126 36.4881 45.1953 36.2611 45.301 36.1396L45.4009 36.0234L44.8184 35.5344L44.2387 35.0481L44.1302 35.1967C43.8275 35.6155 43.1792 35.8721 42.591 35.8127C42.4882 35.8046 42.4054 35.7857 42.4054 35.7749C42.4054 35.764 43.0793 35.0751 43.9046 34.2457C44.7298 33.4136 45.4038 32.7247 45.4038 32.7112C45.4038 32.668 44.9954 32.3006 44.8041 32.1736C44.41 31.9115 43.8846 31.7062 43.3848 31.6251C43.0793 31.5738 42.4139 31.5765 42.1141 31.6278ZM43.1164 32.9516C43.165 32.9625 43.2049 32.9787 43.2049 32.9922C43.2049 33.0192 41.3859 35.0508 41.3516 35.0643C41.2831 35.0859 41.1774 34.6699 41.1774 34.3808C41.1774 33.6946 41.6372 33.1381 42.3368 32.9787C42.5139 32.9381 42.9622 32.9219 43.1164 32.9516Z" fill="white"/>
<path d="M48.6769 31.6264C46.9606 31.9209 45.9041 33.2717 46.1611 34.8522C46.341 35.9814 47.1891 36.7892 48.4884 37.0702C48.8453 37.1486 49.5136 37.1675 49.8391 37.1107C50.3246 37.0243 50.7586 36.8487 51.2298 36.5515C51.3783 36.4569 51.5153 36.3705 51.5353 36.357C51.5553 36.3435 51.681 36.465 51.8866 36.7028L52.2036 37.0675H52.3892H52.5719V34.4199V31.7723H52.3892H52.2064L51.8866 32.0884C51.6496 32.3234 51.5582 32.3991 51.5296 32.3775C50.7929 31.8912 50.4245 31.7237 49.8648 31.621C49.5964 31.5724 48.9767 31.5751 48.6769 31.6264ZM49.7306 32.9745C50.3645 33.1312 50.8557 33.6337 50.9442 34.2119C51.0413 34.8387 50.5559 35.506 49.8305 35.7464C49.5564 35.8383 49.0766 35.8329 48.7682 35.7383C48.12 35.5357 47.7459 35.0386 47.7459 34.3821C47.7459 34.1011 47.7888 33.9228 47.9087 33.6905C48.0915 33.3365 48.4427 33.0772 48.8768 32.9772C49.1052 32.9259 49.5221 32.9232 49.7306 32.9745Z" fill="white"/>
<path d="M86.2444 31.6224C85.5676 31.744 84.9393 32.0493 84.4939 32.4734C84.1483 32.803 83.9113 33.1786 83.7628 33.6297C83.6914 33.8513 83.6857 33.8999 83.6857 34.3673C83.6857 34.8347 83.6914 34.8833 83.7628 35.1048C84.0541 35.9937 84.7766 36.6718 85.776 36.9879C86.4528 37.2013 87.2867 37.2067 87.9663 36.9987C88.6088 36.8014 89.1542 36.4448 89.5226 35.9829C89.9709 35.4209 90.1537 34.8158 90.0909 34.1079C90.0309 33.4298 89.7396 32.8598 89.2113 32.3897C88.8173 32.0385 88.3861 31.825 87.7835 31.6738C87.5494 31.6143 87.4352 31.6035 86.9811 31.5954C86.6156 31.59 86.39 31.5981 86.2444 31.6224ZM87.2724 32.9651C87.5322 33.0165 87.8692 33.1867 88.0577 33.365C88.743 34.0134 88.6031 35.1264 87.7778 35.5911C86.8612 36.1044 85.6532 35.71 85.3506 34.8022C85.2735 34.5699 85.2677 34.2025 85.3363 33.9755C85.4905 33.4757 85.8846 33.1191 86.4385 32.9786C86.627 32.93 87.0611 32.9246 87.2724 32.9651Z" fill="white"/>
<path d="M99.8204 31.6264C98.1042 31.9209 97.0476 33.2717 97.3046 34.8522C97.4845 35.9814 98.3326 36.7892 99.6319 37.0702C99.9889 37.1486 100.657 37.1675 100.983 37.1107C101.468 37.0243 101.902 36.8487 102.373 36.5515C102.522 36.4569 102.659 36.3705 102.679 36.357C102.699 36.3435 102.825 36.465 103.03 36.7028L103.347 37.0675H103.533H103.715V34.4199V31.7723H103.533H103.35L103.03 32.0884C102.793 32.3234 102.702 32.3991 102.673 32.3775C101.936 31.8912 101.568 31.7237 101.008 31.621C100.74 31.5724 100.12 31.5751 99.8204 31.6264ZM100.874 32.9745C101.508 33.1312 101.999 33.6337 102.088 34.2119C102.185 34.8387 101.699 35.506 100.974 35.7464C100.7 35.8383 100.22 35.8329 99.9118 35.7383C99.2635 35.5357 98.8895 35.0386 98.8895 34.3821C98.8895 34.1011 98.9323 33.9228 99.0522 33.6905C99.235 33.3365 99.5862 33.0772 100.02 32.9772C100.249 32.9259 100.666 32.9232 100.874 32.9745Z" fill="white"/>
<path d="M112.99 31.6278C111.514 31.8791 110.514 32.8868 110.434 34.2052C110.354 35.5749 111.271 36.688 112.79 37.0608C113.167 37.1527 113.824 37.1743 114.238 37.1122C114.7 37.0392 115.212 36.8528 115.566 36.6286C115.788 36.4881 116.071 36.2611 116.177 36.1396L116.277 36.0234L115.694 35.5344L115.115 35.0481L115.006 35.1967C114.703 35.6155 114.055 35.8721 113.467 35.8127C113.364 35.8046 113.281 35.7857 113.281 35.7749C113.281 35.764 113.955 35.0751 114.78 34.2457C115.606 33.4136 116.28 32.7247 116.28 32.7112C116.28 32.668 115.871 32.3006 115.68 32.1736C115.286 31.9115 114.76 31.7062 114.261 31.6251C113.955 31.5738 113.29 31.5765 112.99 31.6278ZM113.992 32.9516C114.041 32.9625 114.081 32.9787 114.081 32.9922C114.081 33.0192 112.262 35.0508 112.227 35.0643C112.159 35.0859 112.053 34.6699 112.053 34.3808C112.053 33.6946 112.513 33.1381 113.213 32.9787C113.39 32.9381 113.838 32.9219 113.992 32.9516Z" fill="white"/>
<path d="M165.99 31.6278C164.514 31.8791 163.514 32.8868 163.434 34.2052C163.354 35.5749 164.271 36.688 165.79 37.0608C166.167 37.1527 166.824 37.1743 167.238 37.1122C167.701 37.0392 168.212 36.8528 168.566 36.6286C168.789 36.4881 169.071 36.2611 169.177 36.1396L169.277 36.0234L168.694 35.5344L168.115 35.0481L168.006 35.1967C167.704 35.6155 167.055 35.8721 166.467 35.8127C166.364 35.8046 166.281 35.7857 166.281 35.7749C166.281 35.764 166.955 35.0751 167.781 34.2457C168.606 33.4136 169.28 32.7247 169.28 32.7112C169.28 32.668 168.872 32.3006 168.68 32.1736C168.286 31.9115 167.761 31.7062 167.261 31.6251C166.955 31.5738 166.29 31.5765 165.99 31.6278ZM166.993 32.9516C167.041 32.9625 167.081 32.9787 167.081 32.9922C167.081 33.0192 165.262 35.0508 165.228 35.0643C165.159 35.0859 165.054 34.6699 165.054 34.3808C165.054 33.6946 165.513 33.1381 166.213 32.9787C166.39 32.9381 166.838 32.9219 166.993 32.9516Z" fill="white"/>
<path d="M61.7556 31.6953C61.3073 31.7493 60.7847 31.9357 60.4334 32.1681L60.2421 32.2951L59.9851 32.033L59.7252 31.7736H59.5339H59.3426V34.4212V37.0688H60.1422H60.9389L60.9474 35.4263L60.956 33.7864L61.0531 33.6162C61.2273 33.3136 61.5614 33.1001 61.9555 33.038C62.4781 32.9543 63.0463 33.2109 63.2719 33.6297L63.3547 33.7864L63.3719 35.1912C63.3833 35.9639 63.3918 36.7014 63.3947 36.8311L63.3976 37.0688H64.1829H64.971L64.9596 35.3317C64.951 33.6513 64.951 33.5918 64.891 33.4352C64.7968 33.1785 64.7426 33.0704 64.6026 32.8678C64.0258 32.0222 62.9064 31.5602 61.7556 31.6953Z" fill="white"/>
<path d="M79.3727 31.6953C78.9244 31.7493 78.4018 31.9357 78.0506 32.1681L77.8592 32.2951L77.6022 32.033L77.3424 31.7736H77.151H76.9597V34.4212V37.0688H77.7593H78.556L78.5646 35.4263L78.5731 33.7864L78.6702 33.6162C78.8444 33.3136 79.1785 33.1001 79.5726 33.038C80.0952 32.9543 80.6634 33.2109 80.889 33.6297L80.9719 33.7864L80.989 35.1912C81.0004 35.9639 81.009 36.7014 81.0118 36.8311L81.0147 37.0688H81.8H82.5881L82.5767 35.3317C82.5681 33.6513 82.5681 33.5918 82.5082 33.4352C82.4139 33.1785 82.3597 33.0704 82.2198 32.8678C81.6429 32.0222 80.5235 31.5602 79.3727 31.6953Z" fill="white"/>
<path d="M136.687 31.6953C136.239 31.7493 135.716 31.9357 135.365 32.1681L135.174 32.2951L134.917 32.033L134.657 31.7736H134.466H134.274V34.4212V37.0688H135.074H135.871L135.879 35.4263L135.888 33.7864L135.985 33.6162C136.159 33.3136 136.493 33.1001 136.887 33.038C137.41 32.9543 137.978 33.2109 138.204 33.6297L138.287 33.7864L138.304 35.1912C138.315 35.9639 138.324 36.7014 138.326 36.8311L138.329 37.0688H139.115H139.903L139.891 35.3317C139.883 33.6513 139.883 33.5918 139.823 33.4352C139.729 33.1785 139.674 33.0704 139.534 32.8678C138.958 32.0222 137.838 31.5602 136.687 31.6953Z" fill="white"/>
<path d="M24.3115 31.8004C23.5262 31.8787 22.8522 32.3731 22.6381 33.0296C22.3811 33.8104 22.8722 34.6722 23.7546 34.9964C24.123 35.1315 24.3029 35.1477 25.4137 35.1504C26.3218 35.1504 26.4389 35.1558 26.5274 35.1991C26.7244 35.2909 26.6959 35.5395 26.4732 35.6691L26.3704 35.7313L24.4657 35.7394L22.5581 35.7475V36.4094V37.0713L24.5799 37.0632C26.4275 37.0524 26.6131 37.047 26.7844 37.0037C27.4983 36.8119 28.0095 36.3662 28.1951 35.7745C28.2522 35.5935 28.2551 35.2153 28.2008 35.0262C28.0609 34.5291 27.6325 34.1319 27.0186 33.932L26.7416 33.8428L25.5993 33.8266C24.5199 33.8131 24.4514 33.8104 24.3571 33.7591C24.2286 33.6888 24.1458 33.5321 24.1687 33.4106C24.1887 33.3106 24.3029 33.1863 24.4085 33.1485C24.4457 33.135 25.2338 33.1242 26.159 33.1242H27.841V32.4488V31.7734L26.179 31.7761C25.2624 31.7788 24.4228 31.7896 24.3115 31.8004Z" fill="white"/>
<path d="M54.0527 34.4212V37.0688H54.8522H55.649L55.6575 35.4803L55.6661 33.8944L55.7489 33.7377C55.8431 33.5648 56.0687 33.3487 56.2458 33.2622C56.4971 33.1407 56.6427 33.1245 57.4994 33.1245H58.3075L58.3018 32.4545L58.2932 31.7871L57.4366 31.7898C56.5228 31.7898 56.3286 31.8088 55.9231 31.9276C55.6518 32.0087 55.292 32.1735 55.0978 32.3086L54.9608 32.4031L54.9122 32.3464C54.8865 32.3167 54.7694 32.1735 54.6523 32.033L54.4382 31.7763L54.2469 31.7736H54.0527V34.4212Z" fill="white"/>
<path d="M90.8892 32.6841C91.1176 33.1866 91.6602 34.3753 92.0942 35.3263L92.8824 37.0553L93.682 37.0634L94.4844 37.0688L94.5187 36.9959C94.6157 36.796 96.8917 31.8007 96.8917 31.7871C96.8917 31.779 96.4805 31.7736 95.9807 31.7736C95.2783 31.7736 95.0669 31.7817 95.0555 31.8061C94.4872 33.1812 93.7134 35.0345 93.6962 35.048C93.6877 35.0588 93.3707 34.3294 92.9909 33.427L92.3055 31.7871L91.3889 31.779L90.4722 31.7736L90.8892 32.6841Z" fill="white"/>
<path d="M142.85 31.8004C142.065 31.8787 141.391 32.3731 141.177 33.0296C140.92 33.8104 141.411 34.6722 142.293 34.9964C142.662 35.1315 142.841 35.1477 143.952 35.1504C144.86 35.1504 144.977 35.1558 145.066 35.1991C145.263 35.2909 145.234 35.5395 145.012 35.6691L144.909 35.7313L143.004 35.7394L141.097 35.7475V36.4094V37.0713L143.118 37.0632C144.966 37.0524 145.152 37.047 145.323 37.0037C146.037 36.8119 146.548 36.3662 146.734 35.7745C146.791 35.5935 146.794 35.2153 146.739 35.0262C146.599 34.5291 146.171 34.1319 145.557 33.932L145.28 33.8428L144.138 33.8266C143.058 33.8131 142.99 33.8104 142.896 33.7591C142.767 33.6888 142.684 33.5321 142.707 33.4106C142.727 33.3106 142.841 33.1863 142.947 33.1485C142.984 33.135 143.772 33.1242 144.698 33.1242H146.38V32.4488V31.7734L144.718 31.7761C143.801 31.7788 142.961 31.7896 142.85 31.8004Z" fill="white"/>
<path d="M155.517 34.4212V37.0688H156.316H157.116V34.4212V31.7736H156.316H155.517V34.4212Z" fill="white"/>
<path d="M158.631 34.4212V37.0688H159.431H160.227L160.236 35.4803L160.244 33.8944L160.327 33.7377C160.421 33.5648 160.647 33.3487 160.824 33.2622C161.075 33.1407 161.221 33.1245 162.078 33.1245H162.886L162.88 32.4545L162.872 31.7871L162.015 31.7898C161.101 31.7898 160.907 31.8088 160.501 31.9276C160.23 32.0087 159.87 32.1735 159.676 32.3086L159.539 32.4031L159.491 32.3464C159.465 32.3167 159.348 32.1735 159.231 32.033L159.016 31.7763L158.825 31.7736H158.631V34.4212Z" fill="white"/>
<path d="M67.0259 35.7701C66.786 35.8404 66.5519 36.0106 66.4348 36.197C66.3463 36.3402 66.3148 36.6049 66.3662 36.7778C66.4434 37.0345 66.7004 37.2641 67.0173 37.3587C67.1487 37.3965 67.1658 37.41 67.1515 37.4586C67.1144 37.5721 66.9945 37.772 66.9117 37.8612C66.866 37.9125 66.826 37.9665 66.826 37.9773C66.826 38.0017 67.3828 38.3394 67.4228 38.3394C67.4742 38.3394 67.717 38.134 67.8226 38.0017C68.091 37.6639 68.251 37.283 68.3109 36.8237C68.3538 36.5077 68.3195 36.3239 68.191 36.1375C68.0882 35.9916 67.8654 35.8404 67.6684 35.7836C67.5228 35.7431 67.1487 35.735 67.0259 35.7701Z" fill="white"/>
</g>
<defs>
<filter id="filter0_d" x="-6.10352e-05" y="0" width="170.741" height="41.0684" filterUnits="userSpaceOnUse" color-interpolation-filters="sRGB">
<feFlood flood-opacity="0" result="BackgroundImageFix"/>
<feColorMatrix in="SourceAlpha" type="matrix" values="0 0 0 0 0 0 0 0 0 0 0 0 0 0 0 0 0 0 127 0"/>
<feOffset dx="1" dy="2"/>
<feColorMatrix type="matrix" values="0 0 0 0 0.760784 0 0 0 0 0.0627451 0 0 0 0 0.894118 0 0 0 0.1 0"/>
<feBlend mode="normal" in2="BackgroundImageFix" result="effect1_dropShadow"/>
<feBlend mode="normal" in="SourceGraphic" in2="effect1_dropShadow" result="shape"/>
</filter>
</defs>
</svg>
