<svg width="252" height="250" viewBox="0 0 252 250" fill="none" xmlns="http://www.w3.org/2000/svg">
<path d="M128.402 219.42V232.768H132.445L131.662 218.439L128.402 219.42Z" fill="#AAABB0"/>
<path d="M67.6703 216.727V230.075H71.7173L70.9345 215.746L67.6703 216.727Z" fill="#AAABB0"/>
<path d="M138.316 197.133C138.316 195.779 137.148 194.682 135.707 194.682C134.266 194.682 133.098 195.779 133.098 197.133V215.992C133.098 217.346 134.266 218.443 135.707 218.443C137.148 218.443 138.316 217.346 138.316 215.992V197.133Z" fill="#AAABB0"/>
<path d="M71.3887 191.864C71.3887 190.51 70.2208 189.413 68.7801 189.413C67.3394 189.413 66.1715 190.51 66.1715 191.864V215.988C66.1715 217.342 67.3394 218.439 68.7801 218.439C70.2208 218.439 71.3887 217.342 71.3887 215.988V191.864Z" fill="#AAABB0"/>
<path d="M144.973 52.4921C144.973 52.4921 150.19 50.4088 150.973 52.4921C151.756 54.5753 152.147 72.5789 152.147 72.5789H147.188L144.973 52.4921Z" fill="#AAABB0"/>
<path d="M87.8306 52.4921C87.8306 52.4921 82.6095 50.4088 81.8267 52.4921C81.044 54.5753 80.6526 72.5789 80.6526 72.5789H85.6114L87.8306 52.4921Z" fill="#AAABB0"/>
<path d="M88.6094 34.6101L87.8267 49.5525H91.3491V34.2427L88.6094 34.6101Z" fill="#AAABB0"/>
<path d="M85.6115 72.5789L86.6565 51.0222C86.6565 51.0222 86.2651 46.2458 98.6564 47.7154C111.048 49.1851 147.321 52.1245 147.321 52.1245V72.5789H85.6115Z" fill="#061A40"/>
<path d="M135.188 186.11L133.231 219.053C133.231 219.053 104.527 233.996 69.694 219.788L72.8251 185.129L135.188 186.11Z" fill="#061A40"/>
<path d="M107.92 56.4087L108.57 77.7188H149.016L146.668 49.5527L107.92 56.4087Z" fill="#061A40"/>
<path d="M112.03 172.023H73.9326V217.337H112.03V172.023Z" fill="#05286C"/>
<path d="M98.0067 190.519C98.0067 190.519 103.486 186.477 104.398 187.701C105.31 188.924 101.142 194.193 99.443 193.58C97.7444 192.966 98.0067 190.519 98.0067 190.519Z" fill="#FFB9B9"/>
<path d="M250.083 71.3513H0V188.925H250.083V71.3513Z" fill="#504F60"/>
<path d="M85.7408 33.7538C85.7408 33.7538 83.7839 16.6066 85.7408 14.527C87.6977 12.4474 120.574 -7.27544 150.973 15.8717C150.973 15.8717 153.842 15.9966 153.321 22.1178C153.014 25.9919 153.035 29.8828 153.384 33.7538C153.384 33.7538 87.9599 38.1628 85.7408 33.7538Z" fill="#061A40"/>
<path opacity="0.1" d="M85.7408 33.7538C85.7408 33.7538 83.7839 16.6066 85.7408 14.527C87.6977 12.4474 120.574 -7.27544 150.973 15.8717C150.973 15.8717 153.842 15.9966 153.321 22.1178C153.014 25.9919 153.035 29.8828 153.384 33.7538C153.384 33.7538 87.9599 38.1628 85.7408 33.7538Z" fill="black"/>
<path d="M85.7408 35.9584C85.7408 35.9584 83.7839 18.811 85.7408 16.7314C87.6977 14.6518 120.574 -5.07119 150.973 18.0762C150.973 18.0762 153.842 18.2011 153.321 24.3223C153.014 28.1964 153.035 32.0873 153.384 35.9584C153.384 35.9584 87.9599 40.3674 85.7408 35.9584Z" fill="#061A40"/>
<path d="M154.495 28.1213C154.495 28.1213 156.581 35.4696 155.932 36.6931C155.282 37.9166 155.399 41.3483 155.399 41.3483C155.399 41.3483 155.54 43.5527 154.495 43.7952C153.45 44.0377 152.538 44.1627 153.384 44.8975C154.229 45.6323 153.384 46.7346 153.384 46.7346C153.384 46.7346 152.926 48.4504 153.384 49.5526C153.842 50.6549 150.707 51.1141 150.973 52.4919C151.239 53.8697 152.116 57.757 150.973 57.8819C149.83 58.0068 151.364 62.7795 150.335 62.7795C149.305 62.7795 148.574 71.3513 148.574 71.3513C148.574 71.3513 141.333 65.5976 136.507 67.1885C136.507 67.1885 136.899 62.4121 138.464 60.6963C140.03 58.9805 139.556 54.5752 139.556 54.5752L147.321 32.6516L154.495 28.1213Z" fill="#05286C"/>
<path d="M115.748 129.447C114.053 131.207 112.226 121.809 112.226 121.809C112.226 121.809 107.4 128.055 104.269 123.892C102.101 121.008 103.811 112.836 105.052 108.093C105.607 105.984 106.077 104.551 106.077 104.551L113.122 103.449C113.122 103.449 113.145 104.889 113.302 106.638C113.513 109 113.971 111.932 114.946 112.634C116.664 113.85 117.447 127.673 115.748 129.447Z" fill="#CB818D"/>
<path opacity="0.1" d="M112.097 19.4246C112.097 19.4246 99.8307 19.3033 96.8326 25.4245C93.8346 31.5457 93.7016 33.6326 92.5274 34.6099C91.3533 35.5873 105.31 40.7348 105.31 40.7348L105.964 61.7988C105.964 61.7988 108.703 59.1938 113.138 60.3732C117.572 61.5527 123.185 60.3732 123.185 60.3732C123.185 60.3732 122.922 59.9287 126.578 60.3732C130.233 60.8178 141.842 55.0641 141.842 55.0641C141.842 55.0641 142.034 45.8492 141.775 43.8872C141.517 41.9252 150.057 27.5078 150.057 27.5078C150.057 27.5078 156.711 21.5078 149.799 19.4246C149.799 19.4246 147.353 15.9635 141.059 15.9966C134.766 16.0296 112.097 19.4246 112.097 19.4246Z" fill="black"/>
<path d="M112.097 19.0571C112.097 19.0571 99.8307 18.9359 96.8326 25.057C93.8346 31.1782 93.7016 33.2651 92.5274 34.2424C91.3533 35.2197 105.31 40.3672 105.31 40.3672L105.964 61.4312C105.964 61.4312 108.703 58.8262 113.138 60.0056C117.572 61.185 123.185 60.0056 123.185 60.0056C123.185 60.0056 122.922 59.561 126.578 60.0056C130.233 60.4502 141.842 54.6964 141.842 54.6964C141.842 54.6964 146.405 47.7155 146.147 45.7572C145.889 43.7989 155.278 28.9773 155.278 28.9773C155.278 28.9773 156.715 21.1404 149.799 19.0571C149.799 19.0571 147.353 15.5961 141.059 15.6291C134.766 15.6622 112.097 19.0571 112.097 19.0571Z" fill="#05286C"/>
<path opacity="0.1" d="M113.333 106.626C110.644 105.84 106.425 107.574 105.083 108.096C105.639 105.987 106.108 104.555 106.108 104.555L113.153 103.453C113.153 103.453 113.165 104.893 113.333 106.626Z" fill="black"/>
<path d="M96.308 34.2427H92.5273C92.5273 34.2427 91.7445 41.7159 92.5273 43.9204C93.3101 46.1249 93.7014 45.8052 93.4392 47.4365C93.177 49.0679 95.267 51.5663 95.267 51.5663C95.267 51.5663 95.5253 57.7242 96.8325 60.0168C98.1397 62.3095 95.3961 72.5898 95.3961 72.5898C96.1444 74.3644 97.2515 75.9864 98.6564 77.3661C100.876 79.4457 102.05 87.1614 101.396 90.1007C100.742 93.0401 103.224 94.1423 103.224 94.1423C103.224 94.1423 104.269 107.862 104.66 107.862C105.052 107.862 112.617 104.187 114.965 107.369L113.138 94.7559L113.271 70.3853C113.271 70.3853 110.789 67.321 112.097 64.6279C113.404 61.9347 111.052 55.5638 111.052 55.5638L107.658 41.3595L96.308 34.2427Z" fill="#05286C"/>
<path d="M72.8251 227.871C72.8251 227.871 67.3457 226.768 67.2165 227.871C67.0874 228.973 60.6921 240.241 68.6529 243.548C76.6137 246.855 97.8737 253.957 132.449 244.772C132.449 244.772 134.664 245.507 134.143 240.976C133.623 236.446 133.623 231.423 133.623 231.423C133.623 231.423 128.402 230.075 124.488 230.567C120.574 231.06 86.5235 237.548 72.8251 227.871Z" fill="#061A40"/>
<path opacity="0.1" d="M72.8251 227.871C72.8251 227.871 67.3457 226.768 67.2165 227.871C67.0874 228.973 60.6921 240.241 68.6529 243.548C76.6137 246.855 97.8737 253.957 132.449 244.772C132.449 244.772 134.664 245.507 134.143 240.976C133.623 236.446 133.623 231.423 133.623 231.423C133.623 231.423 128.402 230.075 124.488 230.567C120.574 231.06 86.5235 237.548 72.8251 227.871Z" fill="black"/>
<path d="M72.8251 226.401C72.8251 226.401 67.3457 225.299 67.2165 226.401C67.0874 227.503 60.6921 238.772 68.6529 242.078C76.6137 245.385 97.8737 252.487 132.449 243.302C132.449 243.302 134.664 244.037 134.143 239.507C133.623 234.976 133.623 229.954 133.623 229.954C133.623 229.954 128.402 228.605 124.488 229.098C120.574 229.59 86.5235 236.079 72.8251 226.401Z" fill="#061A40"/>
<path d="M104.778 38.6443C104.441 40.4409 103.678 42.1678 103.56 43.9865C103.443 45.8052 104.191 47.8737 105.979 48.5865C106.478 48.7265 106.962 48.911 107.423 49.1376C108.112 49.5748 108.394 50.3978 108.539 51.1694C108.731 52.1656 108.777 53.1817 108.676 54.1896C108.578 55.2036 108.347 56.2949 108.879 57.1803C109.815 58.7492 112.253 58.5177 114.108 58.0768L113.47 62.7173C113.419 63.0847 113.388 63.4998 113.674 63.7497C113.809 63.839 113.962 63.9019 114.123 63.9347C114.284 63.9675 114.451 63.9696 114.613 63.9408C116.226 63.8452 117.885 63.6358 119.267 62.8385C120.648 62.0412 121.678 60.5569 121.415 59.0615C121.11 57.3273 119.2 55.9495 119.459 54.2079C119.658 52.8595 121.063 52.0034 121.987 50.9673C123.658 49.0715 123.748 46.1909 122.437 44.0452C121.126 41.8995 118.594 40.5695 115.987 40.327C114.543 40.1911 113.04 40.3564 111.682 39.8861C111.209 39.7234 110.783 39.4603 110.437 39.1174C110.091 38.7745 109.833 38.3611 109.686 37.9094" fill="#061A40"/>
<path d="M59.2597 202.03L60.6256 199.238C60.6256 199.238 67.9993 192.79 69.694 192.338C71.3887 191.886 78.3045 189.917 79.3495 189.917C80.3945 189.917 99.4432 188.936 99.4432 188.936L101.658 193.837L77.7527 198.764L69.694 204.275L59.2597 202.03Z" fill="#061A40"/>
<path d="M116.695 126.831L115.447 135.851L114.965 139.323L109.357 140.058C109.357 140.058 108.75 138.838 107.893 136.964C105.29 131.277 100.39 119.549 103.232 117.524C107.008 114.828 107.928 123.771 107.928 123.771L112.233 121.809L116.695 126.831Z" fill="#FFB9B9"/>
<path d="M115.76 143.611H87.4355V183.781H115.76V143.611Z" fill="white"/>
<path opacity="0.1" d="M115.76 143.611H87.4355V183.781H115.76V143.611Z" fill="black"/>
<path d="M128.49 145.786L100.47 141.897L94.212 181.635L122.232 185.524L128.49 145.786Z" fill="white"/>
<path d="M117.53 147.688L103.108 145.687L99.8869 166.139L114.309 168.141L117.53 147.688Z" fill="#0065FF"/>
<path d="M115.814 174.385L98.3408 171.959L97.6414 176.4L115.115 178.825L115.814 174.385Z" fill="#0065FF"/>
<path opacity="0.1" d="M123.185 42.2632C132.226 42.2632 139.556 35.3822 139.556 26.8942C139.556 18.4061 132.226 11.5251 123.185 11.5251C114.143 11.5251 106.813 18.4061 106.813 26.8942C106.813 35.3822 114.143 42.2632 123.185 42.2632Z" fill="black"/>
<path d="M123.185 41.8958C132.226 41.8958 139.556 35.0148 139.556 26.5267C139.556 18.0387 132.226 11.1577 123.185 11.1577C114.143 11.1577 106.813 18.0387 106.813 26.5267C106.813 35.0148 114.143 41.8958 123.185 41.8958Z" fill="#CB818D"/>
<path d="M109.686 37.9164C109.574 37.5206 109.614 37.1006 109.799 36.7297C110.421 35.5135 112.194 35.407 113.631 35.4694C117.008 35.6164 120.715 35.6348 123.357 33.6324C124.452 32.8094 125.677 30.7408 127.27 31.134C128.687 31.483 129.278 33.287 130.754 33.6875C131.822 33.9777 132.93 33.5148 134.018 33.3201C135.583 33.0298 137.188 33.2723 138.777 33.2833C140.366 33.2944 142.092 33.0114 143.176 31.9202C144.64 30.4506 144.401 28.1542 144.272 26.1408C144.112 23.54 144.3 20.9305 144.832 18.3737C145.364 15.8312 146.182 12.9874 144.687 10.8087C143.262 8.73276 140.311 8.16327 138.296 6.57237C136.409 5.10272 135.411 2.7476 133.419 1.38449C130.91 -0.331327 127.501 -0.0851603 124.417 0.212445L117.725 0.88114C115.999 1.05382 114.202 1.24855 112.781 2.21485C110.218 3.95639 109.866 7.57541 107.439 9.48229C106.359 10.3273 104.977 10.7462 103.744 11.3781C102.511 12.0101 101.322 13.0095 101.181 14.3174C101.063 15.4197 101.697 16.4374 102.007 17.4992C102.738 20.0344 101.596 22.643 100.864 25.1966C100.132 27.7501 99.9909 30.8511 102.116 32.5448C102.547 32.8902 103.048 33.1547 103.466 33.5148C104.903 34.7456 105.098 36.8215 104.766 38.6145" fill="#061A40"/>
<path d="M124.519 45.7239C124.735 45.7239 124.91 45.3127 124.91 44.8055C124.91 44.2984 124.735 43.8872 124.519 43.8872C124.303 43.8872 124.128 44.2984 124.128 44.8055C124.128 45.3127 124.303 45.7239 124.519 45.7239Z" fill="#061A40"/>
<path d="M124.519 49.5535C124.735 49.5535 124.91 49.142 124.91 48.6345C124.91 48.127 124.735 47.7156 124.519 47.7156C124.303 47.7156 124.128 48.127 124.128 48.6345C124.128 49.142 124.303 49.5535 124.519 49.5535Z" fill="#061A40"/>
<path d="M115.838 129.422C116.257 128.97 116.535 127.809 116.695 126.276L112.03 120.817C112.03 120.817 114.007 131.402 115.838 129.422Z" fill="#CB818D"/>
<path opacity="0.1" d="M121.098 219.666C121.098 219.666 113.443 230.777 89.5253 229.587C66.9933 228.484 55.9953 218.075 56.5198 214.401C57.0443 210.727 55.0834 201.784 59.9092 199.212C62.7076 197.724 66.3905 198.606 68.9893 199.612C69.8872 199.955 70.87 200.051 71.8239 199.891C72.7777 199.73 73.6636 199.319 74.3787 198.705C76.7544 196.695 81.1849 194.432 88.1789 196.214C89.0789 196.439 90.0282 196.423 90.9186 196.166C93.8305 195.332 100.762 193.884 105.791 197.099C106.586 197.614 107.52 197.905 108.485 197.94C109.45 197.974 110.405 197.75 111.239 197.294L111.31 197.254C113.658 195.905 124.617 208.644 124.617 208.644C124.617 208.644 125.141 218.443 121.098 219.666Z" fill="black"/>
<path d="M121.098 220.034C121.098 220.034 113.443 231.144 89.5253 229.954C66.9933 228.852 55.9953 218.443 56.5198 214.769C57.0443 211.094 55.0834 202.152 59.9092 199.58C62.7076 198.092 66.3905 198.973 68.9893 199.98C69.8872 200.322 70.87 200.419 71.8239 200.258C72.7777 200.098 73.6636 199.687 74.3787 199.073C76.7544 197.063 81.1849 194.8 88.1789 196.582C89.0789 196.807 90.0282 196.79 90.9186 196.534C93.8305 195.7 100.762 194.252 105.791 197.467C106.586 197.981 107.52 198.273 108.485 198.307C109.45 198.342 110.405 198.118 111.239 197.662L111.31 197.621C113.658 196.273 124.617 209.011 124.617 209.011C124.617 209.011 125.141 218.81 121.098 220.034Z" fill="#061A40"/>
<path opacity="0.1" d="M89.5253 224.384C98.137 224.384 105.118 217.83 105.118 209.746C105.118 201.662 98.137 195.108 89.5253 195.108C80.9137 195.108 73.9326 201.662 73.9326 209.746C73.9326 217.83 80.9137 224.384 89.5253 224.384Z" fill="black"/>
<path d="M89.5253 224.751C98.137 224.751 105.118 218.198 105.118 210.114C105.118 202.029 98.137 195.476 89.5253 195.476C80.9137 195.476 73.9326 202.029 73.9326 210.114C73.9326 218.198 80.9137 224.751 89.5253 224.751Z" fill="#FFB9B9"/>
<path d="M85.0558 197.46C83.4198 197.875 81.8073 198.669 81.0089 199.973C80.5275 200.759 80.3592 201.703 79.6625 202.357C78.6762 203.287 77.0128 203.305 75.6782 203.827C74.3436 204.349 73.463 206.186 74.7702 206.766C73.4082 206.833 72.3984 208.012 72.2301 209.184C72.0618 210.356 72.5354 211.524 72.9933 212.641C74.4884 216.257 76.097 220.03 79.3925 222.602C84.7623 226.798 92.8561 226.603 100.069 226.158C100.659 226.177 101.243 226.05 101.764 225.791C102.547 225.306 102.645 224.376 102.774 223.561C103.318 220.078 105.33 216.914 106.645 213.589C107.96 210.264 108.5 206.359 106.285 203.416C103.024 199.051 90.543 196.064 85.0558 197.46Z" fill="#B96B6B"/>
<path opacity="0.1" d="M115.447 135.851L114.965 139.323L109.357 140.057C109.357 140.057 108.75 138.838 107.893 136.964L115.357 135.649L115.447 135.851Z" fill="black"/>
<path d="M121.357 212.564L124.621 209.011L123.967 189.417C124.289 188.003 124.507 186.571 124.621 185.129C124.75 183.046 122.989 178.394 122.989 178.394C123.262 177.463 123.633 176.56 124.096 175.698C124.879 174.228 122.993 170.921 122.993 170.921C122.993 170.921 120.183 162.349 121.357 158.062C122.531 153.774 121.071 151.327 121.071 151.327C121.071 151.327 119.924 146.55 120.053 144.592C120.183 142.634 117.443 140.793 117.443 140.793L115.357 136.017L107.009 137.486V154.02C107.009 154.02 107.529 169.819 107.009 172.883C106.488 175.947 108.05 178.883 108.05 178.883C108.05 178.883 107.138 183.413 107.921 185.129C108.703 186.845 110.269 191.008 110.269 191.008C109.978 192.496 110.068 194.027 110.531 195.476C111.314 197.621 110.531 198.845 110.531 198.845L121.357 212.564Z" fill="#061A40"/>
<g opacity="0.1">
<path opacity="0.1" d="M144.844 17.1651C144.402 19.3157 144.204 21.5041 144.253 23.6938C144.286 21.8731 144.489 20.0585 144.859 18.2709C145.204 16.6397 145.642 14.8835 145.548 13.2559C145.404 14.5719 145.169 15.8777 144.844 17.1651Z" fill="black"/>
<path opacity="0.1" d="M103.478 32.3318C103.059 31.9644 102.559 31.7072 102.128 31.3582C100.985 30.4433 100.504 29.117 100.41 27.6841C100.296 29.5211 100.696 31.2994 102.128 32.4604C102.559 32.8095 103.059 33.074 103.478 33.4341C104.354 34.2473 104.861 35.3462 104.895 36.502C105.009 34.9588 104.676 33.3532 103.478 32.3318Z" fill="black"/>
<path opacity="0.1" d="M102.23 18.6113C102.298 17.8355 102.227 17.0544 102.018 16.3008C101.791 15.5148 101.384 14.747 101.236 13.9573C101.236 14.0418 101.204 14.1299 101.192 14.2218C101.079 15.3237 101.713 16.3412 102.018 17.4028C102.131 17.7982 102.202 18.203 102.23 18.6113Z" fill="black"/>
<path opacity="0.1" d="M143.188 30.7116C142.104 31.8138 140.378 32.0857 138.789 32.0747C137.2 32.0637 135.592 31.8212 134.03 32.1151C132.942 32.3209 131.834 32.7802 130.766 32.4825C129.29 32.0821 128.699 30.278 127.286 29.929C125.678 29.5322 124.453 31.6007 123.373 32.4238C120.731 34.4078 117.024 34.3895 113.647 34.2609C112.21 34.1984 110.437 34.305 109.819 35.5248C109.63 35.8947 109.59 36.316 109.705 36.7116L104.923 37.417C104.905 37.7866 104.861 38.1548 104.793 38.5193L109.705 37.7844C109.59 37.3889 109.63 36.9676 109.819 36.5977C110.437 35.3778 112.21 35.2713 113.647 35.3337C117.024 35.4807 120.731 35.4991 123.373 33.4966C124.468 32.6736 125.693 30.605 127.286 31.0018C128.699 31.3472 129.29 33.1549 130.766 33.5554C131.834 33.842 132.942 33.3827 134.03 33.188C135.595 32.8941 137.2 33.1366 138.789 33.1476C140.378 33.1586 142.104 32.8757 143.188 31.7845C144.273 30.6932 144.429 29.0655 144.363 27.4783C144.316 28.7091 144.046 29.8481 143.188 30.7116Z" fill="black"/>
</g>
<g opacity="0.1">
<path opacity="0.1" d="M106.958 48.3581C106.497 48.1303 106.013 47.9457 105.514 47.8071C104.664 47.4448 103.99 46.7975 103.623 45.9924C103.917 47.2597 104.66 48.4132 105.905 48.9091C106.404 49.0477 106.888 49.2323 107.349 49.4601C107.644 49.6555 107.882 49.9168 108.042 50.2205C107.885 49.5005 107.6 48.7658 106.958 48.3581Z" fill="black"/>
<path opacity="0.1" d="M113.642 57.2976C111.838 57.7274 109.482 57.9515 108.492 56.5151C108.523 56.8612 108.629 57.1976 108.805 57.5033C109.65 58.9176 111.717 58.8698 113.474 58.5208L113.642 57.2976Z" fill="black"/>
<path opacity="0.1" d="M120.954 58.3047C121.204 59.7964 120.171 61.2844 118.801 62.067C117.431 62.8496 115.76 63.0664 114.148 63.1692C113.891 63.2004 113.631 63.1726 113.388 63.0884C113.315 63.2437 113.291 63.4158 113.32 63.5836C113.349 63.7513 113.43 63.9075 113.552 64.033C113.674 64.1586 113.832 64.248 114.008 64.2903C114.183 64.3326 114.368 64.3261 114.539 64.2715C116.152 64.1759 117.811 63.9665 119.193 63.1692C120.574 62.3719 121.607 60.8876 121.341 59.3922C121.266 59.0147 121.136 58.6487 120.954 58.3047Z" fill="black"/>
<path opacity="0.1" d="M122.691 45.0042C122.93 45.8974 122.949 46.8302 122.745 47.7312C122.542 48.6321 122.122 49.4776 121.517 50.203C120.594 51.2538 119.188 52.0952 118.989 53.4436C118.922 54.0635 119.059 54.6878 119.38 55.2329C119.345 55.0051 119.345 54.7737 119.38 54.5459C119.58 53.1974 120.985 52.3414 121.909 51.3053C123.427 49.5821 123.638 47.0433 122.691 45.0042Z" fill="black"/>
</g>
<g opacity="0.1">
<path opacity="0.1" d="M75.6821 204.393C77.0128 203.875 78.6762 203.856 79.6664 202.923C80.3631 202.269 80.5314 201.325 81.0128 200.542C81.7956 199.234 83.4198 198.444 85.0558 198.029C90.5352 196.633 103.028 199.616 106.285 203.941C107.239 205.249 107.759 206.794 107.78 208.379C107.905 206.549 107.381 204.731 106.288 203.21C103.032 198.885 90.5509 195.902 85.0597 197.298C83.4237 197.713 81.8112 198.503 81.0167 199.811C80.5353 200.594 80.367 201.538 79.6703 202.192C78.6801 203.121 77.0168 203.14 75.686 203.662C74.6724 204.055 73.9209 205.216 74.1949 205.995C74.3041 205.642 74.4937 205.316 74.7505 205.04C75.0073 204.763 75.3252 204.542 75.6821 204.393Z" fill="black"/>
<path opacity="0.1" d="M72.2379 209.731C72.4023 208.555 73.4121 207.38 74.778 207.313C74.6346 207.257 74.5063 207.172 74.4027 207.063C74.2991 206.954 74.2227 206.825 74.1792 206.685C73.6596 206.866 73.2027 207.178 72.8578 207.585C72.5129 207.992 72.2931 208.48 72.2223 208.996C72.1851 209.295 72.1851 209.597 72.2223 209.896C72.2379 209.841 72.2379 209.786 72.2379 209.731Z" fill="black"/>
</g>
<path d="M155.145 76.5835H119.529V120.185H155.145V76.5835Z" fill="white"/>
<path opacity="0.1" d="M155.145 76.5835H119.529V120.185H155.145V76.5835Z" fill="black"/>
<path d="M168.753 79.1416L133.652 84.8095L141.526 127.78L176.626 122.112L168.753 79.1416Z" fill="white"/>
<path d="M150.406 112.771L142.159 114.102L144.009 124.198L152.256 122.866L150.406 112.771Z" fill="#0065FF"/>
<path d="M161.818 110.926L153.571 112.257L155.421 122.353L163.667 121.021L161.818 110.926Z" fill="#0065FF"/>
<path d="M169.882 96.1353L140.961 100.797L142.816 110.939L171.737 106.276L169.882 96.1353Z" fill="#0065FF"/>
<path d="M167.471 84.0317L138.55 88.6938L138.964 90.9558L167.885 86.2937L167.471 84.0317Z" fill="#0065FF"/>
<path d="M168.42 88.1936L139.499 92.8559L139.913 95.1179L168.833 90.4557L168.42 88.1936Z" fill="#0065FF"/>
<path d="M139.556 64.7378C139.556 64.7378 123.185 80.1693 131.404 84.0896C139.623 88.01 144.973 71.0463 144.973 71.0463L146.272 67.1885L139.556 64.7378Z" fill="#CB818D"/>
<path opacity="0.1" d="M138.124 63.3747L136.1 67.5706C136.1 67.5706 146.081 68.886 148.167 71.7188L146.93 64.3153L145.462 61.1555L138.124 63.3747Z" fill="black"/>
<path d="M138.515 63.0075L136.492 67.2033C136.492 67.2033 146.472 68.5186 148.558 71.3513L147.321 63.948L145.853 60.7883L138.515 63.0075Z" fill="#05286C"/>
<path d="M198.929 140.154L198.714 140.294L199.011 140.419L199.332 140.393L199.371 140.183L198.929 140.154Z" fill="#061A40"/>
<path opacity="0.1" d="M198.929 140.154L198.714 140.294L199.011 140.419L199.332 140.393L199.371 140.183L198.929 140.154Z" fill="black"/>
<path d="M198.928 140.154L198.71 140.287L198.538 140.088L198.643 139.926L198.741 139.896L198.928 140.154Z" fill="#9C9CA1"/>
<path opacity="0.1" d="M198.928 140.154L198.71 140.287L198.538 140.088L198.643 139.926L198.741 139.896L198.928 140.154Z" fill="black"/>
<path d="M237.453 114.762L221.43 93.0365C221.288 92.8425 221.107 92.6768 220.896 92.5488C220.686 92.4207 220.451 92.3328 220.205 92.2902C219.958 92.2475 219.705 92.2509 219.46 92.3001C219.215 92.3494 218.983 92.4435 218.776 92.5772L183.058 115.592C182.641 115.861 182.354 116.275 182.26 116.743C182.167 117.211 182.275 117.694 182.561 118.087L198.542 140.088L237.453 114.762Z" fill="#9C9CA1"/>
<path opacity="0.1" d="M237.453 114.762L221.43 93.0365C221.288 92.8425 221.107 92.6768 220.896 92.5488C220.686 92.4207 220.451 92.3328 220.205 92.2902C219.958 92.2475 219.705 92.2509 219.46 92.3001C219.215 92.3494 218.983 92.4435 218.776 92.5772L183.058 115.592C182.641 115.861 182.354 116.275 182.26 116.743C182.167 117.211 182.275 117.694 182.561 118.087L198.542 140.088L237.453 114.762Z" fill="black"/>
<path d="M237.845 114.813L221.821 93.0878C221.679 92.8937 221.497 92.7279 221.287 92.5998C221.076 92.4717 220.841 92.3838 220.594 92.3412C220.347 92.2985 220.094 92.3019 219.848 92.3512C219.603 92.4005 219.37 92.4947 219.164 92.6285L183.45 115.658C183.032 115.927 182.745 116.341 182.651 116.809C182.557 117.276 182.664 117.759 182.949 118.153L198.929 140.165L237.845 114.813Z" fill="#9C9CA1"/>
<path d="M251.238 119.108L237.931 115.096L199.012 140.422L212.53 144.574C212.833 144.666 213.154 144.691 213.468 144.646C213.783 144.601 214.082 144.489 214.342 144.317L251.348 119.788C251.417 119.751 251.473 119.696 251.508 119.629C251.543 119.562 251.555 119.486 251.543 119.412C251.531 119.339 251.496 119.27 251.441 119.216C251.387 119.161 251.316 119.124 251.238 119.108Z" fill="#061A40"/>
<path opacity="0.1" d="M251.238 119.108L237.931 115.096L199.012 140.422L212.53 144.574C212.833 144.666 213.154 144.691 213.468 144.646C213.783 144.601 214.082 144.489 214.342 144.317L251.348 119.788C251.417 119.751 251.473 119.696 251.508 119.629C251.543 119.562 251.555 119.486 251.543 119.412C251.531 119.339 251.496 119.27 251.441 119.216C251.387 119.161 251.316 119.124 251.238 119.108Z" fill="black"/>
<path d="M251.156 118.855L237.849 114.839L198.929 140.165L212.448 144.309C212.75 144.403 213.071 144.429 213.386 144.385C213.701 144.341 214 144.228 214.26 144.056L251.265 119.527C251.332 119.49 251.385 119.434 251.418 119.368C251.451 119.302 251.463 119.228 251.451 119.156C251.439 119.084 251.405 119.017 251.352 118.963C251.3 118.91 251.231 118.872 251.156 118.855Z" fill="#061A40"/>
<g opacity="0.1">
<path opacity="0.1" d="M231.559 113.843L230.576 112.52C230.517 112.443 230.429 112.391 230.33 112.374C230.231 112.357 230.128 112.376 230.044 112.428L228.584 113.343C228.502 113.397 228.446 113.479 228.426 113.571C228.406 113.664 228.425 113.759 228.479 113.839L229.383 115.143C229.439 115.221 229.526 115.276 229.624 115.296C229.723 115.316 229.825 115.299 229.911 115.25L231.449 114.342C231.533 114.289 231.591 114.206 231.611 114.113C231.632 114.02 231.613 113.923 231.559 113.843Z" fill="black"/>
<path opacity="0.1" d="M228.937 115.548L227.95 114.229C227.891 114.152 227.803 114.1 227.704 114.083C227.605 114.066 227.502 114.085 227.418 114.137L225.962 115.059C225.88 115.113 225.822 115.194 225.802 115.286C225.781 115.379 225.8 115.475 225.853 115.555L226.757 116.859C226.813 116.938 226.899 116.993 226.997 117.014C227.096 117.034 227.199 117.018 227.285 116.969L228.827 116.062C228.871 116.035 228.908 116.001 228.937 115.96C228.967 115.92 228.987 115.874 228.997 115.826C229.007 115.779 229.007 115.729 228.997 115.681C228.986 115.633 228.966 115.588 228.937 115.548Z" fill="black"/>
<path opacity="0.1" d="M226.181 117.337L225.195 116.018C225.136 115.941 225.048 115.889 224.948 115.872C224.849 115.855 224.747 115.874 224.663 115.926L223.203 116.848C223.12 116.903 223.062 116.985 223.043 117.078C223.023 117.171 223.043 117.268 223.097 117.348L224.001 118.652C224.058 118.73 224.144 118.785 224.243 118.805C224.341 118.824 224.444 118.808 224.53 118.758L226.068 117.851C226.112 117.825 226.149 117.79 226.179 117.75C226.208 117.71 226.229 117.664 226.24 117.616C226.25 117.569 226.251 117.519 226.24 117.471C226.23 117.423 226.21 117.378 226.181 117.337Z" fill="black"/>
<path opacity="0.1" d="M223.391 119.152L222.404 117.83C222.345 117.754 222.258 117.702 222.16 117.685C222.061 117.668 221.96 117.687 221.876 117.738L220.416 118.663C220.334 118.718 220.278 118.799 220.258 118.892C220.238 118.984 220.257 119.08 220.31 119.159L221.215 120.463C221.27 120.541 221.356 120.596 221.453 120.616C221.551 120.637 221.653 120.621 221.739 120.573L223.281 119.662C223.324 119.636 223.361 119.601 223.39 119.561C223.419 119.521 223.439 119.476 223.449 119.429C223.459 119.381 223.459 119.332 223.449 119.285C223.439 119.237 223.419 119.192 223.391 119.152Z" fill="black"/>
<path opacity="0.1" d="M220.604 120.963L219.618 119.644C219.559 119.568 219.47 119.515 219.371 119.498C219.272 119.481 219.17 119.501 219.085 119.553L217.629 120.475C217.547 120.528 217.489 120.61 217.469 120.702C217.449 120.794 217.467 120.89 217.52 120.971L218.424 122.275C218.48 122.353 218.566 122.409 218.664 122.429C218.763 122.45 218.866 122.434 218.952 122.385L220.494 121.474C220.537 121.447 220.574 121.413 220.603 121.373C220.632 121.332 220.652 121.287 220.662 121.24C220.672 121.192 220.672 121.144 220.662 121.096C220.652 121.049 220.633 121.003 220.604 120.963Z" fill="black"/>
<path opacity="0.1" d="M217.939 122.94L216.714 121.302C216.701 121.283 216.684 121.268 216.664 121.256C216.645 121.244 216.623 121.235 216.6 121.231C216.577 121.227 216.554 121.227 216.531 121.232C216.508 121.236 216.486 121.245 216.467 121.258L214.675 122.393C214.655 122.405 214.638 122.42 214.625 122.438C214.611 122.456 214.602 122.477 214.597 122.498C214.593 122.52 214.592 122.542 214.597 122.564C214.601 122.585 214.611 122.606 214.624 122.624L215.747 124.244C215.773 124.281 215.813 124.308 215.859 124.317C215.905 124.327 215.953 124.319 215.994 124.296L217.888 123.194C217.911 123.181 217.93 123.165 217.945 123.145C217.961 123.125 217.971 123.102 217.976 123.078C217.981 123.054 217.98 123.029 217.973 123.005C217.967 122.981 217.955 122.959 217.939 122.94Z" fill="black"/>
<path opacity="0.1" d="M215.152 124.751L213.919 123.113C213.906 123.095 213.889 123.079 213.869 123.067C213.849 123.055 213.827 123.046 213.804 123.042C213.78 123.038 213.757 123.038 213.733 123.043C213.71 123.048 213.688 123.056 213.669 123.069L211.876 124.204C211.838 124.229 211.811 124.268 211.803 124.311C211.794 124.354 211.803 124.399 211.829 124.435L212.952 126.055C212.964 126.075 212.981 126.091 213 126.104C213.019 126.118 213.041 126.127 213.064 126.132C213.087 126.136 213.111 126.137 213.134 126.132C213.157 126.128 213.18 126.119 213.199 126.107L215.089 125.005C215.114 124.994 215.135 124.979 215.152 124.959C215.169 124.94 215.18 124.917 215.186 124.892C215.192 124.868 215.193 124.843 215.187 124.818C215.181 124.794 215.169 124.771 215.152 124.751Z" fill="black"/>
<path opacity="0.1" d="M212.683 126.357L211.458 124.733C211.43 124.698 211.389 124.674 211.343 124.666C211.297 124.659 211.25 124.668 211.211 124.693L209.418 125.824C209.379 125.849 209.352 125.888 209.342 125.932C209.333 125.976 209.342 126.021 209.367 126.059L210.491 127.679C210.517 127.716 210.557 127.741 210.603 127.751C210.649 127.76 210.697 127.753 210.737 127.73L212.632 126.629C212.658 126.617 212.68 126.6 212.698 126.578C212.715 126.557 212.727 126.532 212.732 126.505C212.737 126.478 212.735 126.451 212.727 126.425C212.718 126.399 212.703 126.376 212.683 126.357Z" fill="black"/>
<path opacity="0.1" d="M209.919 128.15L208.694 126.512C208.667 126.476 208.625 126.452 208.579 126.445C208.533 126.437 208.486 126.447 208.448 126.471L206.655 127.603C206.635 127.615 206.618 127.631 206.605 127.649C206.591 127.668 206.582 127.688 206.577 127.71C206.573 127.732 206.573 127.755 206.577 127.776C206.582 127.798 206.591 127.819 206.604 127.838L207.727 129.458C207.754 129.494 207.794 129.52 207.84 129.529C207.886 129.539 207.934 129.532 207.974 129.509L209.868 128.407C209.891 128.395 209.911 128.378 209.926 128.357C209.941 128.337 209.952 128.314 209.956 128.289C209.961 128.265 209.96 128.24 209.954 128.216C209.948 128.192 209.936 128.169 209.919 128.15Z" fill="black"/>
<path opacity="0.1" d="M207.242 129.877L206.017 128.238C206.004 128.22 205.987 128.205 205.968 128.193C205.948 128.18 205.927 128.172 205.904 128.168C205.881 128.164 205.857 128.164 205.834 128.169C205.811 128.173 205.79 128.182 205.77 128.194L203.978 129.329C203.958 129.341 203.941 129.357 203.928 129.375C203.915 129.393 203.905 129.414 203.901 129.435C203.896 129.457 203.896 129.479 203.9 129.501C203.905 129.522 203.914 129.543 203.927 129.561L205.05 131.181C205.076 131.218 205.116 131.244 205.162 131.254C205.209 131.264 205.257 131.256 205.297 131.232L207.191 130.13C207.214 130.118 207.234 130.102 207.249 130.082C207.264 130.062 207.274 130.039 207.279 130.015C207.284 129.991 207.283 129.966 207.277 129.942C207.27 129.918 207.259 129.896 207.242 129.877Z" fill="black"/>
<path opacity="0.1" d="M204.565 131.633L203.352 129.991C203.324 129.956 203.283 129.932 203.237 129.924C203.191 129.917 203.144 129.926 203.105 129.951L201.313 131.082C201.293 131.094 201.276 131.11 201.262 131.129C201.249 131.147 201.24 131.168 201.235 131.19C201.23 131.212 201.23 131.234 201.235 131.256C201.239 131.278 201.248 131.299 201.262 131.317L202.385 132.937C202.411 132.974 202.452 133 202.497 133.009C202.543 133.019 202.591 133.011 202.632 132.989L204.526 131.887C204.548 131.874 204.566 131.856 204.58 131.836C204.594 131.815 204.604 131.792 204.607 131.768C204.611 131.744 204.609 131.72 204.602 131.696C204.595 131.673 204.582 131.652 204.565 131.633Z" fill="black"/>
<path opacity="0.1" d="M201.888 133.371L200.663 131.733C200.65 131.714 200.633 131.699 200.614 131.687C200.594 131.675 200.573 131.666 200.55 131.662C200.527 131.658 200.503 131.658 200.48 131.663C200.457 131.667 200.436 131.676 200.417 131.689L198.624 132.816C198.604 132.828 198.587 132.843 198.574 132.862C198.561 132.88 198.551 132.9 198.547 132.922C198.542 132.943 198.542 132.966 198.546 132.987C198.551 133.009 198.56 133.029 198.573 133.048L199.696 134.667C199.722 134.704 199.762 134.731 199.808 134.74C199.855 134.75 199.903 134.742 199.943 134.719L201.837 133.617C201.859 133.605 201.877 133.588 201.892 133.569C201.906 133.55 201.916 133.528 201.921 133.504C201.926 133.481 201.925 133.457 201.92 133.434C201.914 133.411 201.903 133.39 201.888 133.371Z" fill="black"/>
<path opacity="0.1" d="M229.798 111.45L228.811 110.128C228.752 110.051 228.664 109.999 228.565 109.981C228.466 109.964 228.363 109.984 228.279 110.036L226.835 110.961C226.752 111.015 226.695 111.097 226.674 111.189C226.654 111.281 226.672 111.377 226.725 111.457L227.629 112.761C227.686 112.839 227.772 112.894 227.871 112.914C227.969 112.934 228.072 112.917 228.158 112.868L229.7 111.961C229.785 111.905 229.843 111.82 229.861 111.724C229.879 111.629 229.857 111.53 229.798 111.45Z" fill="black"/>
<path opacity="0.1" d="M225.943 106.223L224.956 104.893C224.897 104.817 224.81 104.766 224.712 104.749C224.613 104.732 224.512 104.75 224.428 104.801L222.968 105.723C222.885 105.777 222.828 105.858 222.808 105.951C222.787 106.043 222.805 106.139 222.858 106.219L223.763 107.523C223.819 107.602 223.905 107.657 224.003 107.678C224.102 107.698 224.205 107.682 224.291 107.633L225.833 106.726C225.918 106.672 225.977 106.589 225.997 106.495C226.017 106.401 225.998 106.303 225.943 106.223Z" fill="black"/>
<path opacity="0.1" d="M227.172 113.156L226.185 111.837C226.126 111.761 226.039 111.709 225.941 111.692C225.842 111.675 225.741 111.694 225.657 111.745L224.197 112.667C224.115 112.721 224.059 112.803 224.039 112.895C224.019 112.988 224.038 113.083 224.091 113.163L224.992 114.467C225.048 114.546 225.134 114.601 225.232 114.622C225.331 114.642 225.434 114.626 225.52 114.577L227.062 113.67C227.106 113.643 227.143 113.609 227.172 113.568C227.201 113.528 227.222 113.482 227.232 113.434C227.242 113.387 227.242 113.337 227.232 113.289C227.221 113.242 227.201 113.196 227.172 113.156Z" fill="black"/>
<path opacity="0.1" d="M224.416 114.945L223.43 113.626C223.371 113.55 223.282 113.497 223.183 113.48C223.084 113.463 222.982 113.483 222.897 113.535L221.441 114.446C221.358 114.499 221.3 114.581 221.279 114.675C221.259 114.768 221.278 114.865 221.332 114.945L222.236 116.249C222.293 116.327 222.379 116.382 222.477 116.402C222.576 116.422 222.679 116.405 222.764 116.356L224.306 115.449C224.391 115.395 224.45 115.312 224.47 115.218C224.491 115.124 224.471 115.026 224.416 114.945Z" fill="black"/>
<path opacity="0.1" d="M221.626 116.76L220.643 115.438C220.584 115.361 220.496 115.309 220.397 115.291C220.298 115.274 220.195 115.294 220.111 115.346L218.651 116.283C218.569 116.337 218.513 116.418 218.493 116.511C218.473 116.603 218.492 116.699 218.546 116.778L219.45 118.083C219.506 118.161 219.593 118.215 219.691 118.235C219.789 118.255 219.892 118.239 219.978 118.189L221.516 117.282C221.561 117.255 221.599 117.22 221.629 117.179C221.659 117.138 221.68 117.092 221.69 117.043C221.7 116.994 221.7 116.944 221.689 116.895C221.678 116.847 221.656 116.801 221.626 116.76Z" fill="black"/>
<path opacity="0.1" d="M223.379 108.013L222.393 106.694C222.334 106.618 222.246 106.567 222.148 106.55C222.05 106.533 221.948 106.551 221.864 106.602L220.404 107.524C220.322 107.578 220.264 107.659 220.244 107.752C220.224 107.844 220.242 107.94 220.295 108.02L221.199 109.324C221.255 109.403 221.341 109.458 221.44 109.479C221.538 109.499 221.641 109.483 221.727 109.434L223.269 108.527C223.313 108.5 223.35 108.466 223.38 108.425C223.409 108.385 223.429 108.339 223.439 108.291C223.449 108.243 223.449 108.194 223.439 108.146C223.429 108.098 223.408 108.053 223.379 108.013Z" fill="black"/>
<path opacity="0.1" d="M220.624 109.804L219.637 108.482C219.578 108.405 219.49 108.353 219.391 108.336C219.292 108.319 219.189 108.338 219.105 108.39L217.649 109.301C217.567 109.355 217.509 109.436 217.489 109.528C217.468 109.621 217.487 109.717 217.54 109.797L218.444 111.101C218.5 111.179 218.587 111.234 218.685 111.254C218.784 111.273 218.886 111.257 218.972 111.207L220.514 110.3C220.597 110.246 220.654 110.165 220.675 110.073C220.695 109.98 220.677 109.884 220.624 109.804Z" fill="black"/>
<path opacity="0.1" d="M217.833 111.615L216.847 110.296C216.789 110.22 216.701 110.168 216.603 110.15C216.505 110.132 216.403 110.15 216.319 110.201L214.859 111.138C214.777 111.192 214.72 111.274 214.7 111.366C214.681 111.458 214.7 111.554 214.753 111.634L215.657 112.938C215.713 113.016 215.799 113.072 215.898 113.092C215.996 113.113 216.099 113.097 216.185 113.048L217.724 112.137C217.768 112.11 217.807 112.075 217.837 112.034C217.866 111.993 217.887 111.947 217.897 111.898C217.908 111.849 217.907 111.799 217.896 111.75C217.885 111.702 217.864 111.656 217.833 111.615Z" fill="black"/>
<path opacity="0.1" d="M218.839 118.571L217.853 117.253C217.794 117.176 217.707 117.124 217.609 117.106C217.51 117.088 217.409 117.107 217.324 117.157L215.876 118.083C215.794 118.137 215.737 118.219 215.718 118.311C215.698 118.403 215.717 118.499 215.77 118.579L216.659 119.883C216.715 119.961 216.8 120.015 216.898 120.036C216.995 120.056 217.097 120.041 217.183 119.993L218.725 119.082C218.769 119.056 218.806 119.021 218.835 118.981C218.864 118.941 218.885 118.896 218.895 118.849C218.906 118.801 218.906 118.753 218.897 118.705C218.887 118.657 218.867 118.612 218.839 118.571Z" fill="black"/>
<path opacity="0.1" d="M216.052 120.383L215.066 119.064C215.007 118.987 214.919 118.935 214.819 118.918C214.72 118.901 214.618 118.92 214.534 118.972L213.078 119.894C212.995 119.948 212.938 120.029 212.917 120.121C212.897 120.214 212.915 120.31 212.968 120.39L213.872 121.694C213.928 121.773 214.014 121.828 214.113 121.849C214.211 121.869 214.314 121.853 214.4 121.804L215.943 120.897C215.986 120.87 216.024 120.836 216.053 120.795C216.082 120.755 216.102 120.709 216.112 120.661C216.123 120.613 216.122 120.564 216.112 120.516C216.102 120.468 216.081 120.423 216.052 120.383Z" fill="black"/>
<path opacity="0.1" d="M213.387 122.359L212.162 120.721C212.149 120.703 212.132 120.687 212.113 120.675C212.093 120.663 212.071 120.654 212.048 120.65C212.025 120.646 212.002 120.646 211.979 120.651C211.956 120.656 211.934 120.664 211.915 120.677L210.123 121.812C210.103 121.824 210.086 121.839 210.073 121.857C210.059 121.876 210.05 121.896 210.045 121.918C210.041 121.939 210.041 121.961 210.045 121.983C210.05 122.005 210.059 122.025 210.072 122.043L211.195 123.663C211.207 123.682 211.224 123.699 211.243 123.711C211.262 123.724 211.284 123.733 211.307 123.738C211.33 123.743 211.354 123.743 211.377 123.739C211.4 123.735 211.422 123.727 211.442 123.715L213.336 122.613C213.359 122.601 213.378 122.584 213.394 122.564C213.409 122.544 213.419 122.521 213.424 122.497C213.429 122.473 213.428 122.448 213.422 122.424C213.415 122.401 213.403 122.378 213.387 122.359Z" fill="black"/>
<path opacity="0.1" d="M210.917 123.965L209.692 122.323C209.665 122.288 209.624 122.263 209.578 122.256C209.532 122.248 209.484 122.258 209.446 122.283L207.657 123.414C207.618 123.439 207.591 123.478 207.581 123.522C207.572 123.566 207.581 123.611 207.606 123.649L208.73 125.269C208.756 125.306 208.796 125.331 208.842 125.341C208.888 125.35 208.936 125.343 208.976 125.321L210.87 124.219C210.894 124.207 210.914 124.191 210.93 124.171C210.946 124.15 210.956 124.127 210.961 124.103C210.965 124.078 210.964 124.053 210.956 124.029C210.949 124.005 210.935 123.983 210.917 123.965Z" fill="black"/>
<path opacity="0.1" d="M208.154 125.758L206.929 124.12C206.902 124.084 206.861 124.06 206.815 124.053C206.769 124.045 206.721 124.055 206.683 124.079L204.89 125.211C204.87 125.223 204.853 125.238 204.84 125.256C204.827 125.274 204.817 125.295 204.813 125.316C204.808 125.338 204.808 125.36 204.812 125.382C204.817 125.403 204.826 125.424 204.839 125.442L205.962 127.066C205.989 127.102 206.029 127.128 206.075 127.137C206.121 127.147 206.169 127.14 206.209 127.117L208.103 126.015C208.126 126.003 208.146 125.986 208.161 125.965C208.176 125.945 208.187 125.922 208.191 125.897C208.196 125.873 208.195 125.848 208.189 125.824C208.183 125.8 208.171 125.777 208.154 125.758Z" fill="black"/>
<path opacity="0.1" d="M205.477 127.5L204.252 125.861C204.239 125.843 204.222 125.828 204.203 125.816C204.183 125.803 204.162 125.795 204.139 125.791C204.116 125.787 204.092 125.787 204.069 125.792C204.046 125.796 204.025 125.805 204.006 125.817L202.213 126.938C202.193 126.95 202.176 126.965 202.163 126.983C202.15 127.001 202.14 127.022 202.136 127.043C202.131 127.065 202.131 127.087 202.135 127.109C202.14 127.13 202.149 127.151 202.162 127.169L203.285 128.789C203.311 128.826 203.351 128.852 203.397 128.862C203.444 128.872 203.492 128.864 203.532 128.84L205.426 127.738C205.447 127.726 205.464 127.71 205.478 127.691C205.492 127.673 205.501 127.651 205.506 127.629C205.511 127.607 205.51 127.584 205.506 127.562C205.501 127.539 205.491 127.518 205.477 127.5Z" fill="black"/>
<path opacity="0.1" d="M222.581 112.458L221.594 111.139C221.535 111.063 221.448 111.011 221.35 110.994C221.251 110.977 221.15 110.996 221.066 111.047L219.606 111.973C219.524 112.027 219.467 112.109 219.448 112.201C219.428 112.293 219.447 112.389 219.5 112.469L220.404 113.773C220.461 113.85 220.547 113.904 220.644 113.924C220.742 113.943 220.843 113.927 220.929 113.879L222.471 112.972C222.515 112.945 222.552 112.911 222.581 112.87C222.61 112.83 222.631 112.784 222.641 112.736C222.651 112.688 222.651 112.639 222.641 112.591C222.63 112.543 222.61 112.498 222.581 112.458Z" fill="black"/>
<path opacity="0.1" d="M219.79 114.273L218.804 112.95C218.745 112.873 218.656 112.821 218.557 112.804C218.458 112.787 218.356 112.806 218.271 112.858L216.816 113.784C216.733 113.838 216.676 113.919 216.655 114.011C216.635 114.104 216.653 114.2 216.706 114.28L217.61 115.584C217.666 115.663 217.752 115.718 217.851 115.739C217.949 115.759 218.052 115.743 218.138 115.694L219.68 114.783C219.723 114.757 219.76 114.722 219.789 114.682C219.818 114.642 219.838 114.597 219.848 114.549C219.859 114.502 219.859 114.453 219.849 114.406C219.839 114.358 219.819 114.313 219.79 114.273Z" fill="black"/>
<path opacity="0.1" d="M217.007 116.084L216.021 114.765C215.962 114.689 215.874 114.636 215.775 114.619C215.675 114.602 215.573 114.621 215.489 114.673L214.029 115.595C213.947 115.65 213.89 115.731 213.871 115.824C213.851 115.916 213.87 116.012 213.923 116.091L214.827 117.395C214.883 117.474 214.969 117.529 215.068 117.55C215.166 117.57 215.269 117.554 215.356 117.505L216.894 116.594C216.937 116.568 216.974 116.534 217.004 116.494C217.033 116.454 217.053 116.409 217.064 116.361C217.074 116.314 217.075 116.265 217.065 116.217C217.055 116.17 217.036 116.124 217.007 116.084Z" fill="black"/>
<path opacity="0.1" d="M214.216 117.895L213.23 116.576C213.171 116.501 213.084 116.449 212.985 116.432C212.887 116.415 212.786 116.434 212.702 116.485L211.242 117.407C211.16 117.461 211.103 117.543 211.084 117.635C211.064 117.727 211.083 117.823 211.136 117.903L212.04 119.221C212.096 119.299 212.182 119.354 212.279 119.374C212.377 119.395 212.479 119.38 212.565 119.332L214.107 118.424C214.153 118.398 214.192 118.362 214.223 118.321C214.253 118.279 214.274 118.232 214.285 118.182C214.295 118.133 214.294 118.081 214.283 118.032C214.271 117.983 214.248 117.936 214.216 117.895Z" fill="black"/>
<path opacity="0.1" d="M211.571 119.872L210.346 118.234C210.333 118.215 210.316 118.2 210.297 118.188C210.277 118.176 210.255 118.167 210.232 118.163C210.21 118.159 210.186 118.159 210.163 118.164C210.14 118.168 210.119 118.177 210.099 118.189L208.307 119.324C208.268 119.349 208.241 119.387 208.231 119.43C208.222 119.474 208.23 119.519 208.256 119.556L209.379 121.179C209.392 121.198 209.408 121.214 209.428 121.226C209.447 121.239 209.469 121.248 209.492 121.252C209.515 121.256 209.538 121.257 209.561 121.252C209.584 121.248 209.606 121.239 209.626 121.227L211.52 120.125C211.543 120.113 211.562 120.096 211.578 120.077C211.593 120.057 211.603 120.034 211.608 120.01C211.613 119.985 211.612 119.961 211.606 119.937C211.599 119.913 211.587 119.891 211.571 119.872Z" fill="black"/>
<path opacity="0.1" d="M209.086 121.478L207.861 119.836C207.832 119.8 207.791 119.776 207.744 119.768C207.697 119.761 207.649 119.77 207.61 119.795L205.821 120.927C205.782 120.952 205.755 120.991 205.745 121.035C205.736 121.078 205.745 121.124 205.771 121.162L206.894 122.782C206.92 122.819 206.96 122.845 207.006 122.855C207.052 122.864 207.1 122.856 207.14 122.833L209.035 121.731C209.057 121.719 209.077 121.702 209.092 121.682C209.108 121.662 209.118 121.639 209.123 121.615C209.128 121.591 209.127 121.566 209.12 121.543C209.114 121.519 209.102 121.497 209.086 121.478Z" fill="black"/>
<path opacity="0.1" d="M206.322 123.263L205.097 121.621C205.069 121.585 205.027 121.561 204.981 121.554C204.934 121.546 204.886 121.556 204.847 121.581L203.054 122.712C203.016 122.738 202.989 122.777 202.98 122.82C202.97 122.864 202.979 122.909 203.003 122.947L204.131 124.568C204.156 124.605 204.197 124.631 204.243 124.641C204.289 124.65 204.337 124.643 204.377 124.619L206.268 123.517C206.291 123.506 206.312 123.489 206.328 123.47C206.344 123.45 206.355 123.427 206.36 123.403C206.365 123.378 206.365 123.353 206.358 123.329C206.352 123.305 206.339 123.282 206.322 123.263Z" fill="black"/>
<path opacity="0.1" d="M203.645 125.012L202.42 123.374C202.407 123.355 202.39 123.34 202.37 123.328C202.35 123.315 202.328 123.307 202.305 123.303C202.282 123.299 202.258 123.299 202.235 123.304C202.211 123.308 202.189 123.317 202.17 123.33L200.377 124.465C200.339 124.49 200.313 124.528 200.304 124.572C200.295 124.615 200.305 124.659 200.33 124.696L201.454 126.316C201.466 126.335 201.482 126.352 201.501 126.365C201.52 126.378 201.542 126.388 201.565 126.392C201.588 126.397 201.612 126.398 201.635 126.393C201.659 126.389 201.681 126.38 201.7 126.368L203.591 125.266C203.614 125.254 203.635 125.238 203.651 125.218C203.667 125.199 203.678 125.176 203.683 125.151C203.688 125.127 203.688 125.102 203.681 125.078C203.675 125.054 203.662 125.031 203.645 125.012Z" fill="black"/>
<path opacity="0.1" d="M202.8 129.238L201.575 127.599C201.548 127.564 201.506 127.54 201.46 127.532C201.414 127.525 201.367 127.534 201.328 127.559L199.536 128.69C199.516 128.702 199.499 128.718 199.486 128.736C199.473 128.754 199.463 128.774 199.459 128.796C199.454 128.817 199.454 128.84 199.458 128.861C199.463 128.883 199.472 128.903 199.485 128.922L200.608 130.545C200.635 130.582 200.675 130.607 200.721 130.617C200.767 130.627 200.815 130.619 200.855 130.597L202.749 129.495C202.772 129.482 202.792 129.465 202.807 129.445C202.822 129.425 202.833 129.401 202.837 129.377C202.842 129.353 202.841 129.328 202.835 129.304C202.828 129.279 202.817 129.257 202.8 129.238Z" fill="black"/>
<path opacity="0.1" d="M200.123 130.979L198.898 129.341C198.885 129.323 198.868 129.307 198.849 129.295C198.829 129.283 198.807 129.274 198.784 129.27C198.761 129.266 198.738 129.266 198.715 129.271C198.692 129.275 198.671 129.284 198.651 129.297L196.859 130.432C196.839 130.444 196.822 130.459 196.809 130.477C196.795 130.495 196.786 130.516 196.781 130.537C196.777 130.559 196.777 130.581 196.781 130.603C196.786 130.624 196.795 130.645 196.808 130.663L197.931 132.283C197.957 132.32 197.997 132.346 198.043 132.356C198.089 132.366 198.138 132.358 198.178 132.334L200.072 131.232C200.095 131.22 200.114 131.204 200.13 131.184C200.145 131.164 200.155 131.141 200.16 131.117C200.165 131.093 200.164 131.068 200.158 131.044C200.151 131.02 200.139 130.998 200.123 130.979Z" fill="black"/>
<path opacity="0.1" d="M204.326 120.566L203.152 119.023C203.115 118.976 203.06 118.943 202.998 118.933C202.936 118.922 202.872 118.935 202.819 118.968L201.129 120.037C201.102 120.054 201.08 120.075 201.062 120.099C201.045 120.124 201.032 120.151 201.026 120.18C201.02 120.21 201.02 120.239 201.026 120.268C201.032 120.297 201.045 120.325 201.062 120.35L202.119 121.874C202.135 121.899 202.157 121.921 202.182 121.938C202.208 121.956 202.237 121.968 202.268 121.974C202.298 121.981 202.33 121.981 202.361 121.976C202.392 121.971 202.421 121.96 202.448 121.944L204.236 120.89C204.266 120.875 204.292 120.854 204.312 120.83C204.333 120.805 204.348 120.777 204.357 120.746C204.365 120.716 204.367 120.684 204.361 120.653C204.356 120.622 204.344 120.593 204.326 120.566Z" fill="black"/>
<path opacity="0.1" d="M201.649 122.308L200.495 120.765C200.477 120.741 200.454 120.72 200.428 120.704C200.402 120.687 200.372 120.676 200.341 120.671C200.31 120.665 200.279 120.666 200.248 120.672C200.217 120.678 200.188 120.69 200.162 120.706L198.471 121.794C198.445 121.81 198.422 121.83 198.405 121.855C198.387 121.879 198.375 121.906 198.369 121.935C198.363 121.964 198.363 121.993 198.369 122.022C198.375 122.051 198.387 122.078 198.405 122.102L199.461 123.63C199.496 123.68 199.549 123.715 199.611 123.728C199.672 123.741 199.736 123.731 199.79 123.7L201.579 122.646C201.609 122.63 201.635 122.607 201.655 122.581C201.676 122.554 201.69 122.524 201.696 122.492C201.703 122.46 201.702 122.427 201.694 122.395C201.686 122.363 201.671 122.334 201.649 122.308Z" fill="black"/>
<path opacity="0.1" d="M198.972 124.05L197.818 122.503C197.781 122.455 197.725 122.422 197.663 122.412C197.601 122.402 197.537 122.415 197.485 122.448L195.794 123.517C195.768 123.533 195.745 123.554 195.728 123.579C195.71 123.603 195.698 123.631 195.692 123.66C195.685 123.689 195.685 123.719 195.692 123.748C195.698 123.777 195.71 123.805 195.728 123.829L196.784 125.354C196.801 125.379 196.822 125.401 196.848 125.418C196.874 125.435 196.902 125.447 196.933 125.454C196.964 125.46 196.996 125.461 197.026 125.456C197.057 125.451 197.087 125.44 197.113 125.423L198.902 124.369C198.93 124.353 198.954 124.332 198.972 124.307C198.991 124.282 199.004 124.254 199.011 124.224C199.017 124.194 199.017 124.163 199.011 124.133C199.004 124.103 198.991 124.075 198.972 124.05Z" fill="black"/>
<path opacity="0.1" d="M196.331 125.835L195.105 124.193C195.078 124.158 195.037 124.134 194.991 124.126C194.945 124.119 194.898 124.128 194.859 124.153L193.066 125.284C193.027 125.309 193 125.348 192.99 125.392C192.981 125.436 192.99 125.481 193.015 125.519L194.139 127.139C194.165 127.176 194.205 127.201 194.251 127.211C194.297 127.22 194.345 127.213 194.385 127.19L196.28 126.088C196.303 126.077 196.324 126.061 196.34 126.041C196.356 126.021 196.367 125.998 196.372 125.974C196.377 125.949 196.376 125.924 196.369 125.9C196.362 125.876 196.348 125.854 196.331 125.835Z" fill="black"/>
<path opacity="0.1" d="M228.009 108.878L226.948 107.464C226.889 107.388 226.8 107.336 226.701 107.32C226.602 107.304 226.5 107.324 226.416 107.376L222.275 110.098C222.195 110.153 222.14 110.234 222.121 110.325C222.102 110.417 222.121 110.511 222.174 110.59L223.172 112.038C223.2 112.078 223.237 112.112 223.28 112.139C223.323 112.166 223.371 112.184 223.422 112.193C223.472 112.202 223.524 112.202 223.575 112.193C223.625 112.183 223.673 112.164 223.716 112.137L227.919 109.378C228 109.322 228.054 109.238 228.071 109.145C228.087 109.052 228.065 108.957 228.009 108.878Z" fill="black"/>
<path opacity="0.1" d="M200.96 126.698L199.661 124.976C199.648 124.957 199.631 124.941 199.611 124.929C199.591 124.917 199.568 124.909 199.545 124.905C199.522 124.901 199.498 124.902 199.474 124.907C199.451 124.912 199.43 124.922 199.411 124.935L194.941 127.874C194.903 127.899 194.876 127.936 194.868 127.979C194.859 128.021 194.868 128.066 194.894 128.102L196.115 129.876C196.128 129.895 196.145 129.912 196.165 129.925C196.185 129.937 196.208 129.946 196.231 129.951C196.255 129.955 196.28 129.955 196.303 129.951C196.327 129.946 196.35 129.937 196.369 129.924L200.913 126.937C200.953 126.911 200.98 126.872 200.989 126.827C200.998 126.782 200.988 126.736 200.96 126.698Z" fill="black"/>
<path opacity="0.1" d="M215.179 113.52L213.982 111.874C213.955 111.838 213.914 111.813 213.868 111.805C213.822 111.797 213.774 111.805 213.735 111.83L203.81 118.12C203.77 118.145 203.743 118.183 203.734 118.226C203.724 118.269 203.733 118.314 203.759 118.352L204.984 120.115C204.997 120.134 205.014 120.151 205.034 120.164C205.054 120.176 205.076 120.185 205.1 120.19C205.124 120.194 205.148 120.194 205.172 120.19C205.196 120.185 205.218 120.176 205.238 120.163L215.132 113.755C215.152 113.742 215.169 113.726 215.182 113.708C215.194 113.689 215.203 113.668 215.208 113.647C215.212 113.625 215.212 113.602 215.207 113.581C215.202 113.559 215.193 113.538 215.179 113.52Z" fill="black"/>
</g>
<path d="M231.821 113.887L230.835 112.564C230.776 112.488 230.688 112.435 230.588 112.418C230.489 112.401 230.387 112.421 230.303 112.473L228.847 113.398C228.764 113.452 228.707 113.533 228.686 113.626C228.666 113.718 228.684 113.814 228.737 113.894L229.641 115.198C229.697 115.277 229.783 115.332 229.882 115.353C229.98 115.373 230.083 115.357 230.17 115.308L231.712 114.397C231.755 114.371 231.792 114.336 231.821 114.296C231.849 114.256 231.869 114.211 231.88 114.163C231.89 114.116 231.89 114.067 231.88 114.02C231.87 113.972 231.85 113.927 231.821 113.887Z" fill="#061A40"/>
<path d="M229.183 115.592L228.197 114.273C228.138 114.197 228.051 114.146 227.952 114.128C227.854 114.111 227.753 114.13 227.669 114.181L226.209 115.103C226.126 115.157 226.069 115.238 226.049 115.33C226.028 115.423 226.046 115.519 226.099 115.599L227.003 116.903C227.059 116.982 227.146 117.037 227.244 117.058C227.342 117.078 227.446 117.062 227.532 117.013L229.074 116.106C229.117 116.079 229.155 116.045 229.184 116.004C229.213 115.964 229.233 115.918 229.244 115.87C229.254 115.822 229.254 115.773 229.243 115.725C229.233 115.677 229.213 115.632 229.183 115.592Z" fill="#061A40"/>
<path d="M226.444 117.385L225.457 116.066C225.398 115.989 225.31 115.937 225.211 115.92C225.112 115.903 225.009 115.922 224.925 115.974L223.469 116.9C223.386 116.953 223.329 117.035 223.309 117.127C223.288 117.219 223.306 117.316 223.359 117.396L224.264 118.7C224.32 118.778 224.407 118.833 224.505 118.852C224.603 118.872 224.706 118.856 224.792 118.806L226.334 117.899C226.377 117.872 226.415 117.838 226.444 117.797C226.473 117.757 226.494 117.711 226.504 117.663C226.514 117.616 226.514 117.566 226.504 117.518C226.493 117.47 226.473 117.425 226.444 117.385Z" fill="#061A40"/>
<path d="M223.649 119.196L222.663 117.874C222.604 117.798 222.517 117.746 222.418 117.729C222.32 117.712 222.219 117.731 222.135 117.782L220.675 118.708C220.632 118.735 220.595 118.77 220.567 118.811C220.538 118.851 220.519 118.897 220.509 118.945C220.5 118.993 220.501 119.042 220.512 119.089C220.522 119.137 220.543 119.182 220.573 119.222L221.477 120.526C221.533 120.605 221.619 120.66 221.718 120.681C221.816 120.701 221.919 120.685 222.005 120.636L223.544 119.725C223.589 119.698 223.628 119.663 223.658 119.621C223.689 119.579 223.709 119.532 223.719 119.482C223.729 119.433 223.728 119.382 223.716 119.332C223.704 119.283 223.681 119.237 223.649 119.196Z" fill="#061A40"/>
<path d="M220.863 121.007L219.876 119.689C219.817 119.613 219.73 119.561 219.632 119.544C219.533 119.527 219.432 119.546 219.348 119.597L217.888 120.519C217.806 120.573 217.749 120.655 217.73 120.747C217.71 120.839 217.729 120.935 217.782 121.015L218.683 122.319C218.739 122.397 218.825 122.453 218.923 122.473C219.022 122.494 219.125 122.478 219.211 122.429L220.753 121.518C220.796 121.491 220.833 121.457 220.862 121.417C220.891 121.377 220.911 121.332 220.921 121.284C220.931 121.237 220.931 121.188 220.921 121.14C220.911 121.093 220.891 121.048 220.863 121.007Z" fill="#061A40"/>
<path d="M218.197 122.984L216.972 121.346C216.959 121.328 216.942 121.312 216.923 121.3C216.903 121.288 216.882 121.279 216.859 121.275C216.836 121.271 216.812 121.272 216.789 121.276C216.766 121.281 216.745 121.289 216.726 121.302L214.933 122.437C214.913 122.449 214.896 122.464 214.883 122.482C214.87 122.5 214.86 122.521 214.856 122.542C214.851 122.564 214.851 122.586 214.855 122.608C214.86 122.629 214.869 122.65 214.882 122.668L216.005 124.288C216.031 124.325 216.071 124.352 216.117 124.361C216.164 124.371 216.212 124.363 216.252 124.34L218.146 123.238C218.169 123.225 218.189 123.209 218.204 123.189C218.219 123.169 218.23 123.146 218.234 123.122C218.239 123.098 218.238 123.073 218.232 123.049C218.226 123.025 218.214 123.003 218.197 122.984Z" fill="#061A40"/>
<path d="M215.411 124.796L214.186 123.157C214.172 123.139 214.155 123.123 214.135 123.111C214.116 123.099 214.093 123.09 214.07 123.086C214.047 123.082 214.023 123.083 214 123.087C213.977 123.092 213.955 123.101 213.935 123.113L212.146 124.248C212.127 124.26 212.11 124.276 212.096 124.294C212.083 124.312 212.074 124.332 212.069 124.354C212.064 124.375 212.064 124.398 212.069 124.419C212.073 124.441 212.083 124.461 212.096 124.48L213.219 126.103C213.232 126.122 213.248 126.138 213.267 126.15C213.287 126.163 213.308 126.171 213.331 126.176C213.354 126.18 213.378 126.18 213.401 126.176C213.424 126.172 213.446 126.163 213.465 126.151L215.36 125.049C215.382 125.036 215.401 125.02 215.416 125C215.431 124.98 215.441 124.957 215.446 124.933C215.451 124.909 215.45 124.884 215.444 124.861C215.438 124.837 215.426 124.815 215.411 124.796Z" fill="#061A40"/>
<path d="M212.941 126.401L211.716 124.759C211.688 124.724 211.647 124.7 211.601 124.692C211.555 124.684 211.508 124.694 211.469 124.719L209.677 125.835C209.638 125.861 209.61 125.899 209.601 125.943C209.591 125.987 209.6 126.033 209.626 126.07L210.749 127.69C210.776 127.727 210.816 127.752 210.862 127.762C210.907 127.772 210.955 127.764 210.996 127.742L212.89 126.64C212.911 126.627 212.928 126.611 212.942 126.593C212.955 126.574 212.965 126.553 212.97 126.531C212.974 126.508 212.974 126.485 212.969 126.463C212.964 126.441 212.955 126.42 212.941 126.401Z" fill="#061A40"/>
<path d="M210.178 128.198L208.953 126.57C208.925 126.535 208.884 126.511 208.838 126.503C208.792 126.496 208.745 126.505 208.706 126.53L206.913 127.661C206.894 127.674 206.877 127.689 206.863 127.708C206.85 127.726 206.841 127.747 206.836 127.769C206.831 127.791 206.831 127.813 206.836 127.835C206.84 127.857 206.849 127.878 206.863 127.896L207.986 129.516C208.012 129.553 208.052 129.579 208.098 129.588C208.144 129.598 208.192 129.59 208.232 129.568L210.127 128.466C210.152 128.454 210.174 128.437 210.191 128.416C210.208 128.395 210.22 128.37 210.225 128.344C210.229 128.318 210.228 128.291 210.22 128.265C210.212 128.24 210.197 128.217 210.178 128.198Z" fill="#061A40"/>
<path d="M207.501 129.935L206.276 128.297C206.263 128.279 206.246 128.263 206.226 128.251C206.207 128.239 206.185 128.231 206.162 128.227C206.139 128.222 206.116 128.223 206.093 128.227C206.07 128.232 206.048 128.24 206.029 128.253L204.236 129.388C204.217 129.4 204.2 129.415 204.186 129.434C204.173 129.452 204.164 129.472 204.159 129.494C204.154 129.515 204.154 129.537 204.159 129.559C204.163 129.581 204.172 129.601 204.186 129.619L205.309 131.239C205.321 131.258 205.337 131.274 205.357 131.287C205.376 131.3 205.398 131.309 205.421 131.314C205.444 131.319 205.467 131.319 205.49 131.315C205.514 131.311 205.536 131.303 205.555 131.291L207.45 130.189C207.472 130.177 207.492 130.16 207.507 130.14C207.523 130.12 207.533 130.097 207.538 130.073C207.543 130.049 207.542 130.024 207.535 130C207.529 129.977 207.517 129.954 207.501 129.935Z" fill="#061A40"/>
<path d="M204.824 131.677L203.598 130.035C203.571 130 203.53 129.976 203.484 129.968C203.438 129.961 203.391 129.97 203.352 129.995L201.559 131.126C201.52 131.151 201.493 131.19 201.483 131.234C201.474 131.278 201.483 131.324 201.508 131.361L202.632 132.981C202.658 133.018 202.698 133.043 202.744 133.053C202.79 133.063 202.838 133.055 202.878 133.033L204.773 131.931C204.795 131.919 204.815 131.902 204.83 131.882C204.845 131.862 204.856 131.839 204.861 131.815C204.865 131.791 204.865 131.766 204.858 131.742C204.852 131.718 204.84 131.696 204.824 131.677Z" fill="#061A40"/>
<path d="M202.146 133.415L200.921 131.777C200.908 131.758 200.892 131.743 200.872 131.731C200.853 131.718 200.831 131.71 200.808 131.706C200.785 131.702 200.761 131.702 200.738 131.707C200.716 131.711 200.694 131.72 200.675 131.732L198.882 132.868C198.862 132.879 198.845 132.895 198.832 132.913C198.819 132.931 198.81 132.952 198.805 132.973C198.8 132.995 198.8 133.017 198.805 133.039C198.809 133.06 198.818 133.081 198.831 133.099L199.955 134.719C199.967 134.738 199.983 134.754 200.002 134.767C200.022 134.78 200.043 134.789 200.066 134.794C200.089 134.798 200.113 134.799 200.136 134.795C200.159 134.791 200.181 134.783 200.201 134.77L202.095 133.668C202.118 133.656 202.138 133.64 202.153 133.62C202.168 133.6 202.179 133.577 202.184 133.553C202.188 133.529 202.188 133.504 202.181 133.48C202.175 133.456 202.163 133.434 202.146 133.415Z" fill="#061A40"/>
<path d="M230.056 111.506L229.07 110.184C229.011 110.108 228.923 110.056 228.825 110.039C228.727 110.022 228.625 110.041 228.542 110.092L227.082 111.018C227 111.072 226.943 111.154 226.923 111.246C226.904 111.338 226.923 111.434 226.976 111.514L227.876 112.818C227.932 112.897 228.018 112.952 228.117 112.972C228.215 112.993 228.318 112.977 228.405 112.928L229.947 112.017C229.99 111.99 230.027 111.956 230.055 111.916C230.084 111.876 230.104 111.83 230.114 111.783C230.125 111.736 230.125 111.687 230.115 111.639C230.105 111.592 230.085 111.547 230.056 111.506Z" fill="#061A40"/>
<path d="M226.201 106.267L225.215 104.948C225.156 104.872 225.068 104.821 224.97 104.804C224.872 104.786 224.77 104.805 224.686 104.856L223.226 105.778C223.144 105.832 223.088 105.914 223.068 106.006C223.048 106.099 223.067 106.194 223.121 106.274L224.025 107.578C224.081 107.656 224.166 107.711 224.264 107.731C224.361 107.752 224.463 107.736 224.549 107.688L226.091 106.781C226.135 106.754 226.172 106.72 226.202 106.679C226.231 106.639 226.251 106.593 226.261 106.545C226.271 106.498 226.271 106.448 226.261 106.4C226.251 106.353 226.23 106.307 226.201 106.267Z" fill="#061A40"/>
<path d="M227.43 113.2L226.444 111.874C226.385 111.798 226.297 111.746 226.199 111.729C226.101 111.712 225.999 111.731 225.915 111.782L224.455 112.704C224.373 112.758 224.317 112.84 224.297 112.932C224.277 113.024 224.296 113.12 224.35 113.2L225.254 114.504C225.31 114.582 225.395 114.636 225.493 114.657C225.59 114.677 225.692 114.662 225.778 114.614L227.32 113.707C227.406 113.653 227.466 113.569 227.486 113.475C227.507 113.38 227.486 113.281 227.43 113.2Z" fill="#061A40"/>
<path d="M224.675 114.989L223.704 113.67C223.645 113.595 223.557 113.543 223.459 113.526C223.361 113.509 223.26 113.528 223.176 113.579L221.716 114.501C221.633 114.555 221.575 114.637 221.556 114.73C221.536 114.823 221.556 114.92 221.61 115L222.51 116.304C222.567 116.382 222.653 116.437 222.752 116.457C222.85 116.476 222.953 116.46 223.039 116.411L224.581 115.503C224.623 115.475 224.659 115.44 224.687 115.399C224.714 115.358 224.733 115.312 224.742 115.265C224.751 115.217 224.749 115.168 224.738 115.12C224.726 115.073 224.705 115.029 224.675 114.989Z" fill="#061A40"/>
<path d="M221.888 116.804L220.902 115.482C220.843 115.405 220.754 115.353 220.655 115.336C220.556 115.319 220.453 115.338 220.369 115.39L218.913 116.316C218.831 116.369 218.773 116.451 218.753 116.543C218.733 116.635 218.751 116.732 218.804 116.812L219.708 118.116C219.764 118.194 219.85 118.25 219.948 118.27C220.047 118.291 220.15 118.275 220.236 118.226L221.778 117.315C221.821 117.288 221.858 117.254 221.887 117.214C221.916 117.173 221.936 117.128 221.946 117.081C221.956 117.033 221.956 116.985 221.946 116.937C221.936 116.89 221.916 116.844 221.888 116.804Z" fill="#061A40"/>
<path d="M223.637 108.056L222.651 106.73C222.592 106.654 222.505 106.602 222.406 106.585C222.308 106.568 222.207 106.587 222.123 106.638L220.663 107.56C220.581 107.614 220.524 107.696 220.505 107.788C220.485 107.88 220.504 107.976 220.557 108.056L221.461 109.36C221.517 109.438 221.603 109.493 221.7 109.513C221.798 109.534 221.9 109.518 221.986 109.47L223.528 108.563C223.614 108.509 223.673 108.426 223.694 108.331C223.714 108.236 223.694 108.137 223.637 108.056Z" fill="#061A40"/>
<path d="M220.882 109.849L219.896 108.527C219.837 108.451 219.749 108.399 219.651 108.382C219.553 108.365 219.451 108.384 219.368 108.435L217.908 109.36C217.825 109.414 217.768 109.496 217.747 109.588C217.727 109.68 217.745 109.776 217.798 109.856L218.702 111.16C218.758 111.239 218.844 111.294 218.943 111.315C219.041 111.336 219.144 111.32 219.231 111.271L220.773 110.36C220.816 110.333 220.853 110.298 220.881 110.258C220.91 110.218 220.93 110.173 220.941 110.126C220.951 110.078 220.951 110.029 220.941 109.982C220.931 109.934 220.911 109.889 220.882 109.849Z" fill="#061A40"/>
<path d="M218.095 111.66L217.109 110.342C217.05 110.265 216.962 110.213 216.863 110.196C216.763 110.178 216.661 110.198 216.577 110.25L215.121 111.172C215.038 111.226 214.981 111.307 214.96 111.399C214.94 111.492 214.958 111.588 215.011 111.668L215.915 112.976C215.971 113.054 216.058 113.11 216.156 113.13C216.254 113.151 216.357 113.135 216.444 113.086L217.982 112.175C218.026 112.148 218.064 112.114 218.093 112.074C218.123 112.033 218.143 111.988 218.154 111.94C218.164 111.892 218.165 111.843 218.155 111.795C218.145 111.747 218.124 111.701 218.095 111.66Z" fill="#061A40"/>
<path d="M219.097 118.615L218.111 117.297C218.052 117.221 217.965 117.169 217.866 117.152C217.768 117.135 217.667 117.154 217.583 117.205L216.123 118.119C216.041 118.174 215.984 118.255 215.965 118.348C215.945 118.44 215.964 118.536 216.017 118.615L216.921 119.919C216.977 119.997 217.063 120.052 217.16 120.072C217.258 120.093 217.36 120.078 217.446 120.03L218.988 119.119C219.072 119.065 219.131 118.982 219.152 118.888C219.172 118.794 219.153 118.696 219.097 118.615Z" fill="#061A40"/>
<path d="M216.311 120.427L215.324 119.108C215.265 119.032 215.178 118.981 215.08 118.964C214.981 118.947 214.88 118.965 214.796 119.016L213.336 119.957C213.254 120.01 213.196 120.092 213.176 120.184C213.155 120.276 213.173 120.372 213.227 120.453L214.131 121.757C214.187 121.835 214.273 121.891 214.371 121.911C214.47 121.932 214.573 121.916 214.659 121.867L216.201 120.959C216.247 120.933 216.287 120.897 216.318 120.855C216.349 120.813 216.371 120.766 216.381 120.716C216.391 120.666 216.39 120.614 216.378 120.564C216.366 120.515 216.343 120.468 216.311 120.427Z" fill="#061A40"/>
<path d="M213.645 122.404L212.42 120.765C212.407 120.747 212.391 120.731 212.371 120.719C212.352 120.707 212.33 120.699 212.307 120.695C212.284 120.691 212.26 120.691 212.237 120.695C212.215 120.7 212.193 120.709 212.174 120.721L210.397 121.856C210.377 121.868 210.36 121.884 210.347 121.902C210.334 121.92 210.324 121.94 210.32 121.962C210.315 121.983 210.315 122.006 210.319 122.027C210.324 122.049 210.333 122.069 210.346 122.088L211.469 123.708C211.482 123.726 211.498 123.743 211.517 123.756C211.536 123.768 211.558 123.777 211.581 123.782C211.604 123.787 211.628 123.787 211.651 123.783C211.674 123.779 211.696 123.771 211.716 123.759L213.61 122.657C213.631 122.643 213.649 122.626 213.662 122.605C213.676 122.584 213.684 122.561 213.688 122.538C213.691 122.514 213.689 122.49 213.682 122.466C213.674 122.443 213.662 122.422 213.645 122.404Z" fill="#061A40"/>
<path d="M211.18 123.998L209.955 122.356C209.926 122.321 209.885 122.296 209.838 122.289C209.791 122.281 209.743 122.291 209.704 122.316L207.911 123.447C207.873 123.473 207.846 123.512 207.837 123.555C207.827 123.599 207.836 123.644 207.861 123.682L208.988 125.302C209.013 125.339 209.054 125.366 209.1 125.375C209.146 125.385 209.194 125.377 209.234 125.353L211.125 124.252C211.148 124.24 211.169 124.224 211.185 124.204C211.201 124.184 211.212 124.162 211.217 124.137C211.223 124.113 211.222 124.088 211.215 124.064C211.209 124.04 211.197 124.017 211.18 123.998Z" fill="#061A40"/>
<path d="M208.413 125.806L207.187 124.164C207.16 124.128 207.119 124.104 207.073 124.097C207.027 124.089 206.98 124.099 206.941 124.123L205.148 125.255C205.109 125.28 205.082 125.319 205.072 125.363C205.063 125.407 205.072 125.452 205.097 125.49L206.221 127.11C206.247 127.146 206.287 127.172 206.333 127.182C206.379 127.191 206.427 127.184 206.467 127.161L208.362 126.059C208.385 126.048 208.406 126.032 208.422 126.012C208.438 125.992 208.449 125.969 208.454 125.944C208.459 125.92 208.458 125.895 208.451 125.871C208.444 125.846 208.43 125.824 208.413 125.806Z" fill="#061A40"/>
<path d="M205.739 127.544L204.526 125.905C204.513 125.887 204.496 125.872 204.477 125.859C204.457 125.847 204.435 125.839 204.413 125.835C204.39 125.831 204.366 125.831 204.343 125.836C204.32 125.84 204.299 125.849 204.279 125.861L202.487 126.996C202.448 127.021 202.421 127.059 202.411 127.102C202.402 127.146 202.411 127.191 202.436 127.228L203.559 128.848C203.585 128.885 203.625 128.911 203.671 128.921C203.717 128.93 203.766 128.923 203.806 128.899L205.7 127.797C205.723 127.785 205.742 127.767 205.756 127.747C205.771 127.727 205.78 127.703 205.784 127.679C205.788 127.655 205.785 127.63 205.778 127.607C205.77 127.583 205.757 127.562 205.739 127.544Z" fill="#061A40"/>
<path d="M222.839 112.505L221.857 111.183C221.798 111.106 221.709 111.054 221.61 111.037C221.511 111.02 221.409 111.039 221.324 111.091L219.865 112.017C219.783 112.071 219.726 112.153 219.706 112.245C219.687 112.337 219.705 112.433 219.759 112.513L220.663 113.817C220.72 113.895 220.806 113.95 220.904 113.969C221.003 113.989 221.106 113.973 221.191 113.923L222.73 113.016C222.773 112.989 222.81 112.955 222.838 112.915C222.867 112.875 222.887 112.83 222.897 112.782C222.908 112.735 222.908 112.686 222.898 112.638C222.888 112.591 222.868 112.546 222.839 112.505Z" fill="#061A40"/>
<path d="M220.052 114.317L219.066 112.998C219.008 112.922 218.92 112.869 218.822 112.852C218.724 112.834 218.622 112.852 218.538 112.903L217.078 113.828C216.996 113.882 216.939 113.964 216.919 114.056C216.9 114.149 216.919 114.244 216.972 114.324L217.876 115.628C217.932 115.706 218.018 115.76 218.115 115.781C218.213 115.801 218.315 115.786 218.401 115.738L219.943 114.827C219.986 114.801 220.023 114.766 220.051 114.726C220.08 114.686 220.1 114.641 220.111 114.593C220.121 114.546 220.121 114.497 220.111 114.45C220.101 114.402 220.081 114.357 220.052 114.317Z" fill="#061A40"/>
<path d="M217.266 116.128L216.268 114.813C216.209 114.736 216.12 114.684 216.021 114.667C215.922 114.65 215.82 114.669 215.735 114.721L214.311 115.64C214.228 115.693 214.171 115.775 214.15 115.867C214.13 115.959 214.148 116.055 214.201 116.136L215.105 117.44C215.161 117.518 215.248 117.574 215.346 117.594C215.444 117.615 215.547 117.599 215.634 117.55L217.176 116.643C217.218 116.614 217.253 116.579 217.281 116.538C217.308 116.497 217.326 116.451 217.335 116.403C217.343 116.355 217.341 116.306 217.33 116.259C217.318 116.212 217.296 116.167 217.266 116.128Z" fill="#061A40"/>
<path d="M214.475 117.939L213.489 116.621C213.43 116.545 213.342 116.493 213.244 116.476C213.146 116.459 213.044 116.478 212.96 116.529L211.5 117.451C211.419 117.505 211.362 117.587 211.342 117.679C211.323 117.771 211.341 117.867 211.395 117.947L212.299 119.251C212.355 119.329 212.44 119.383 212.538 119.404C212.635 119.424 212.738 119.409 212.823 119.361L214.365 118.454C214.409 118.427 214.446 118.392 214.476 118.352C214.505 118.312 214.525 118.266 214.535 118.218C214.545 118.17 214.545 118.121 214.535 118.073C214.525 118.025 214.504 117.98 214.475 117.939Z" fill="#061A40"/>
<path d="M211.814 119.916L210.589 118.278C210.575 118.259 210.558 118.244 210.538 118.232C210.519 118.219 210.496 118.211 210.473 118.207C210.45 118.203 210.426 118.203 210.403 118.208C210.38 118.212 210.358 118.221 210.338 118.234L208.546 119.369C208.507 119.393 208.479 119.431 208.47 119.475C208.46 119.518 208.469 119.563 208.495 119.6L209.618 121.224C209.631 121.242 209.648 121.258 209.668 121.271C209.687 121.283 209.709 121.292 209.733 121.296C209.756 121.301 209.78 121.301 209.803 121.297C209.827 121.292 209.849 121.284 209.868 121.271L211.759 120.169C211.782 120.158 211.802 120.141 211.817 120.121C211.833 120.102 211.844 120.079 211.849 120.055C211.854 120.031 211.854 120.006 211.848 119.982C211.842 119.958 211.83 119.935 211.814 119.916Z" fill="#061A40"/>
<path d="M209.344 121.522L208.119 119.883C208.106 119.865 208.089 119.849 208.07 119.837C208.05 119.825 208.029 119.817 208.006 119.813C207.983 119.809 207.959 119.809 207.936 119.813C207.913 119.818 207.892 119.827 207.873 119.839L206.092 120.971C206.052 120.996 206.025 121.035 206.016 121.079C206.006 121.122 206.015 121.168 206.041 121.206L207.164 122.826C207.19 122.862 207.231 122.888 207.277 122.897C207.322 122.907 207.37 122.9 207.411 122.877L209.305 121.775C209.327 121.762 209.345 121.745 209.36 121.724C209.374 121.704 209.383 121.681 209.387 121.657C209.39 121.633 209.388 121.608 209.381 121.585C209.374 121.562 209.361 121.54 209.344 121.522Z" fill="#061A40"/>
<path d="M206.581 123.319L205.356 121.677C205.328 121.641 205.286 121.617 205.239 121.609C205.193 121.602 205.145 121.611 205.105 121.636L203.317 122.768C203.277 122.793 203.25 122.832 203.241 122.875C203.231 122.919 203.24 122.965 203.266 123.003L204.389 124.623C204.415 124.66 204.455 124.686 204.501 124.696C204.547 124.705 204.596 124.698 204.636 124.674L206.53 123.572C206.553 123.56 206.572 123.543 206.588 123.523C206.603 123.503 206.613 123.48 206.618 123.456C206.623 123.432 206.622 123.407 206.616 123.384C206.609 123.36 206.597 123.338 206.581 123.319Z" fill="#061A40"/>
<path d="M203.904 125.056L202.679 123.418C202.666 123.4 202.649 123.384 202.629 123.372C202.609 123.36 202.587 123.351 202.563 123.347C202.54 123.343 202.516 123.343 202.493 123.348C202.47 123.352 202.448 123.361 202.428 123.374L200.64 124.509C200.62 124.521 200.603 124.536 200.59 124.554C200.577 124.573 200.567 124.593 200.563 124.615C200.558 124.636 200.558 124.658 200.562 124.68C200.567 124.702 200.576 124.722 200.589 124.74L201.712 126.364C201.725 126.383 201.741 126.398 201.761 126.411C201.78 126.423 201.802 126.432 201.825 126.437C201.848 126.441 201.871 126.441 201.894 126.437C201.917 126.433 201.939 126.424 201.959 126.412L203.853 125.31C203.875 125.297 203.895 125.28 203.909 125.26C203.924 125.24 203.934 125.218 203.939 125.194C203.944 125.17 203.943 125.145 203.937 125.121C203.931 125.098 203.92 125.076 203.904 125.056Z" fill="#061A40"/>
<path d="M203.062 129.285L201.837 127.643C201.809 127.607 201.767 127.583 201.721 127.576C201.674 127.568 201.626 127.578 201.587 127.603L199.794 128.734C199.755 128.759 199.728 128.798 199.718 128.842C199.709 128.886 199.718 128.931 199.743 128.969L200.867 130.589C200.893 130.625 200.933 130.651 200.979 130.661C201.025 130.67 201.073 130.663 201.113 130.64L203.007 129.538C203.031 129.527 203.052 129.511 203.068 129.491C203.084 129.471 203.095 129.448 203.1 129.424C203.105 129.4 203.104 129.375 203.098 129.351C203.091 129.326 203.079 129.304 203.062 129.285Z" fill="#061A40"/>
<path d="M200.385 131.023L199.16 129.385C199.147 129.366 199.13 129.351 199.11 129.339C199.09 129.326 199.068 129.318 199.045 129.314C199.021 129.31 198.997 129.31 198.974 129.315C198.951 129.319 198.929 129.328 198.91 129.341L197.117 130.476C197.078 130.5 197.051 130.538 197.041 130.582C197.032 130.625 197.041 130.67 197.066 130.707L198.189 132.327C198.202 132.346 198.219 132.363 198.238 132.375C198.258 132.388 198.28 132.397 198.303 132.402C198.326 132.407 198.351 132.407 198.374 132.403C198.398 132.399 198.42 132.391 198.44 132.379L200.33 131.277C200.354 131.265 200.374 131.249 200.39 131.229C200.406 131.21 200.417 131.187 200.423 131.162C200.428 131.138 200.427 131.113 200.421 131.089C200.414 131.065 200.402 131.042 200.385 131.023Z" fill="#061A40"/>
<path d="M204.585 120.614L203.43 119.068C203.393 119.02 203.338 118.987 203.276 118.977C203.214 118.967 203.15 118.98 203.097 119.013L201.395 120.082C201.343 120.115 201.306 120.167 201.294 120.225C201.281 120.283 201.294 120.344 201.328 120.394L202.385 121.922C202.42 121.972 202.475 122.007 202.537 122.019C202.599 122.031 202.664 122.02 202.718 121.988L204.503 120.934C204.531 120.919 204.556 120.898 204.576 120.874C204.596 120.849 204.61 120.821 204.618 120.791C204.626 120.761 204.627 120.73 204.621 120.699C204.615 120.669 204.603 120.64 204.585 120.614Z" fill="#061A40"/>
<path d="M201.908 122.352L200.753 120.809C200.735 120.785 200.713 120.764 200.687 120.748C200.66 120.732 200.631 120.721 200.6 120.715C200.569 120.71 200.537 120.71 200.506 120.716C200.476 120.722 200.446 120.734 200.42 120.751L198.73 121.823C198.678 121.856 198.641 121.907 198.629 121.965C198.616 122.022 198.629 122.082 198.663 122.132L199.72 123.66C199.755 123.709 199.809 123.744 199.871 123.757C199.933 123.77 199.998 123.76 200.053 123.729L201.841 122.675C201.868 122.658 201.892 122.636 201.91 122.611C201.928 122.585 201.94 122.557 201.946 122.527C201.953 122.497 201.952 122.466 201.946 122.436C201.939 122.406 201.926 122.377 201.908 122.352Z" fill="#061A40"/>
<path d="M199.231 124.094L198.057 122.547C198.02 122.499 197.966 122.467 197.904 122.457C197.843 122.446 197.779 122.459 197.728 122.492L196.033 123.561C195.981 123.595 195.944 123.646 195.932 123.704C195.92 123.763 195.932 123.823 195.967 123.873L197.023 125.401C197.058 125.451 197.113 125.486 197.175 125.498C197.237 125.511 197.302 125.5 197.356 125.467L199.145 124.413C199.174 124.398 199.199 124.378 199.219 124.354C199.24 124.329 199.254 124.301 199.262 124.271C199.27 124.241 199.272 124.21 199.266 124.179C199.261 124.149 199.249 124.12 199.231 124.094Z" fill="#061A40"/>
<path d="M196.593 125.883L195.368 124.241C195.34 124.205 195.298 124.181 195.251 124.174C195.204 124.166 195.157 124.176 195.117 124.201L193.325 125.332C193.286 125.358 193.26 125.397 193.251 125.441C193.242 125.484 193.252 125.53 193.278 125.567L194.401 127.187C194.427 127.224 194.467 127.251 194.513 127.26C194.559 127.27 194.608 127.262 194.648 127.238L196.542 126.136C196.565 126.124 196.584 126.108 196.599 126.088C196.615 126.068 196.625 126.045 196.63 126.021C196.635 125.997 196.634 125.972 196.628 125.948C196.621 125.924 196.609 125.902 196.593 125.883Z" fill="#061A40"/>
<path d="M228.272 108.934L227.227 107.516C227.167 107.44 227.078 107.388 226.979 107.372C226.88 107.356 226.778 107.376 226.694 107.428L222.53 110.15C222.45 110.205 222.395 110.286 222.376 110.377C222.357 110.469 222.376 110.563 222.428 110.642L223.43 112.09C223.459 112.13 223.496 112.164 223.539 112.191C223.582 112.218 223.63 112.236 223.68 112.245C223.731 112.254 223.783 112.254 223.833 112.245C223.884 112.235 223.932 112.216 223.974 112.189L228.174 109.43C228.254 109.375 228.309 109.293 228.328 109.2C228.346 109.108 228.326 109.013 228.272 108.934Z" fill="#061A40"/>
<path d="M201.219 126.743L199.919 125.02C199.906 125.002 199.889 124.986 199.869 124.974C199.849 124.962 199.827 124.953 199.803 124.95C199.78 124.946 199.756 124.947 199.733 124.952C199.71 124.957 199.688 124.966 199.669 124.98L195.199 127.919C195.161 127.944 195.135 127.982 195.126 128.026C195.117 128.069 195.127 128.113 195.152 128.15L196.377 129.921C196.391 129.94 196.408 129.957 196.428 129.97C196.448 129.982 196.47 129.991 196.494 129.996C196.518 130 196.542 130 196.566 129.995C196.589 129.991 196.612 129.982 196.632 129.969L201.176 126.982C201.215 126.955 201.241 126.915 201.249 126.871C201.257 126.826 201.247 126.78 201.219 126.743Z" fill="#061A40"/>
<path d="M215.438 113.564L214.264 111.929C214.237 111.892 214.195 111.866 214.149 111.857C214.102 111.849 214.053 111.857 214.013 111.881L204.092 118.164C204.072 118.176 204.055 118.191 204.042 118.21C204.028 118.228 204.019 118.248 204.014 118.27C204.01 118.291 204.009 118.313 204.014 118.335C204.018 118.357 204.028 118.377 204.041 118.395L205.262 120.159C205.275 120.178 205.292 120.195 205.312 120.208C205.332 120.22 205.354 120.229 205.378 120.234C205.402 120.238 205.426 120.238 205.45 120.234C205.474 120.229 205.496 120.22 205.516 120.207L215.41 113.799C215.447 113.771 215.47 113.731 215.475 113.687C215.48 113.643 215.467 113.599 215.438 113.564Z" fill="#061A40"/>
<path opacity="0.1" d="M215.485 107.95L210.209 100.752C210.063 100.552 209.839 100.414 209.585 100.369C209.331 100.323 209.069 100.374 208.855 100.509L194.323 109.669C194.216 109.737 194.124 109.824 194.053 109.925C193.982 110.027 193.933 110.14 193.908 110.259C193.884 110.378 193.885 110.501 193.911 110.619C193.937 110.738 193.988 110.851 194.06 110.951L199.438 118.355C199.51 118.455 199.603 118.541 199.711 118.608C199.819 118.675 199.94 118.721 200.067 118.743C200.194 118.766 200.325 118.765 200.451 118.739C200.578 118.714 200.698 118.666 200.804 118.597L215.234 109.225C215.34 109.156 215.431 109.069 215.501 108.968C215.57 108.867 215.618 108.754 215.642 108.636C215.665 108.517 215.663 108.396 215.636 108.278C215.609 108.16 215.558 108.049 215.485 107.95Z" fill="black"/>
<path d="M215.728 107.994L210.452 100.796C210.305 100.597 210.081 100.46 209.828 100.415C209.574 100.369 209.312 100.419 209.098 100.554L194.585 109.721C194.477 109.788 194.385 109.875 194.313 109.976C194.241 110.077 194.191 110.19 194.167 110.31C194.142 110.429 194.143 110.552 194.169 110.671C194.195 110.79 194.246 110.903 194.319 111.003L199.681 118.399C199.753 118.5 199.846 118.586 199.954 118.653C200.062 118.719 200.183 118.765 200.31 118.788C200.437 118.81 200.567 118.809 200.694 118.784C200.82 118.759 200.94 118.71 201.047 118.642L215.485 109.269C215.59 109.2 215.68 109.113 215.749 109.011C215.818 108.91 215.865 108.797 215.888 108.679C215.911 108.56 215.908 108.439 215.88 108.321C215.853 108.204 215.801 108.093 215.728 107.994Z" fill="#939498"/>
<path d="M248.443 119.626L237.25 116.121L201.348 139.533L212.459 142.931C212.759 143.023 213.077 143.048 213.389 143.005C213.701 142.962 213.997 142.851 214.256 142.682L248.545 120.299C248.612 120.262 248.665 120.207 248.699 120.141C248.732 120.076 248.744 120.002 248.734 119.93C248.723 119.858 248.689 119.791 248.638 119.737C248.586 119.683 248.518 119.644 248.443 119.626Z" fill="#0065FF"/>
</svg>
